Montserrat-LightItalic.ufo
<glyph name="quotesingle" format="2">
  <advance width="184"/>
  <unicode hex="0027"/>
  <outline>
    <contour>
      <point x="121" y="450" type="line"/>
      <point x="139" y="450" type="line"/>
      <point x="191" y="700" type="line"/>
      <point x="169" y="700" type="line"/>
    </contour>
  </outline>
</glyph>
<glyph name="parenleft" format="2">
  <advance width="311"/>
  <unicode hex="0028"/>
  <outline>
    <contour>
      <point x="144" y="-194" type="curve"/>
      <point x="161" y="-194" type="line"/>
      <point x="134" y="-107"/>
      <point x="122" y="-30"/>
      <point x="122" y="55" type="curve" smooth="yes"/>
      <point x="122" y="296"/>
      <point x="216" y="579"/>
      <point x="349" y="742" type="curve"/>
      <point x="329" y="742" type="line"/>
      <point x="194" y="575"/>
      <point x="104" y="302"/>
      <point x="104" y="55" type="curve" smooth="yes"/>
      <point x="104" y="-26"/>
      <point x="118" y="-117"/>
    </contour>
  </outline>
</glyph>
<glyph name="asterisk" format="2">
  <advance width="358"/>
  <unicode hex="002A"/>
  <outline>
    <contour>
      <point x="410" y="648" type="line"/>
      <point x="403" y="665" type="line"/>
      <point x="244" y="582" type="line"/>
      <point x="252" y="579" type="line"/>
      <point x="284" y="742" type="line"/>
      <point x="266" y="742" type="line"/>
      <point x="234" y="579" type="line"/>
      <point x="242" y="583" type="line"/>
      <point x="117" y="665" type="line"/>
      <point x="106" y="650" type="line"/>
      <point x="232" y="568" type="line"/>
      <point x="233" y="577" type="line"/>
      <point x="74" y="495" type="line"/>
      <point x="82" y="479" type="line"/>
      <point x="240" y="561" type="line"/>
      <point x="231" y="565" type="line"/>
      <point x="198" y="402" type="line"/>
      <point x="216" y="402" type="line"/>
      <point x="249" y="565" type="line"/>
      <point x="241" y="562" type="line"/>
      <point x="367" y="480" type="line"/>
      <point x="378" y="495" type="line"/>
      <point x="252" y="577" type="line"/>
      <point x="251" y="566" type="line"/>
    </contour>
  </outline>
</glyph>
<glyph name="hyphen" format="2">
  <advance width="380"/>
  <unicode hex="002D"/>
  <outline>
    <contour>
      <point x="64" y="255" type="line"/>
      <point x="314" y="255" type="line"/>
      <point x="318" y="274" type="line"/>
      <point x="68" y="274" type="line"/>
    </contour>
  </outline>
</glyph>
<glyph name="zero" format="2">
  <advance width="652"/>
  <unicode hex="0030"/>
  <outline>
    <contour>
      <point x="278" y="-3" type="curve" smooth="yes"/>
      <point x="493" y="-3"/>
      <point x="621" y="229"/>
      <point x="621" y="457" type="curve" smooth="yes"/>
      <point x="621" y="611"/>
      <point x="543" y="703"/>
      <point x="410" y="703" type="curve" smooth="yes"/>
      <point x="195" y="703"/>
      <point x="67" y="471"/>
      <point x="67" y="243" type="curve" smooth="yes"/>
      <point x="67" y="89"/>
      <point x="145" y="-3"/>
    </contour>
    <contour>
      <point x="281" y="16" type="curve" smooth="yes"/>
      <point x="157" y="16"/>
      <point x="85" y="99"/>
      <point x="85" y="242" type="curve" smooth="yes"/>
      <point x="85" y="455"/>
      <point x="204" y="684"/>
      <point x="407" y="684" type="curve" smooth="yes"/>
      <point x="531" y="684"/>
      <point x="603" y="601"/>
      <point x="603" y="458" type="curve" smooth="yes"/>
      <point x="603" y="245"/>
      <point x="484" y="16"/>
    </contour>
  </outline>
</glyph>
<glyph name="one" format="2">
  <advance width="342"/>
  <unicode hex="0031"/>
  <outline>
    <contour>
      <point x="138" y="0" type="line"/>
      <point x="157" y="0" type="line"/>
      <point x="297" y="700" type="line"/>
      <point x="98" y="700" type="line"/>
      <point x="94" y="681" type="line"/>
      <point x="283" y="681" type="line"/>
      <point x="276" y="689" type="line"/>
    </contour>
  </outline>
</glyph>
<glyph name="two" format="2">
  <advance width="555"/>
  <unicode hex="0032"/>
  <outline>
    <contour>
      <point x="-9" y="0" type="line"/>
      <point x="459" y="0" type="line"/>
      <point x="463" y="19" type="line"/>
      <point x="6" y="19" type="line"/>
      <point x="17" y="9" type="line"/>
      <point x="378" y="307" type="line" smooth="yes"/>
      <point x="494" y="403"/>
      <point x="530" y="471"/>
      <point x="530" y="549" type="curve" smooth="yes"/>
      <point x="530" y="641"/>
      <point x="466" y="703"/>
      <point x="332" y="703" type="curve" smooth="yes"/>
      <point x="241" y="703"/>
      <point x="154" y="671"/>
      <point x="98" y="613" type="curve"/>
      <point x="113" y="599" type="line"/>
      <point x="164" y="654"/>
      <point x="246" y="684"/>
      <point x="331" y="684" type="curve" smooth="yes"/>
      <point x="454" y="684"/>
      <point x="510" y="631"/>
      <point x="510" y="548" type="curve" smooth="yes"/>
      <point x="510" y="475"/>
      <point x="477" y="415"/>
      <point x="364" y="321" type="curve" smooth="yes"/>
      <point x="-6" y="15" type="line"/>
    </contour>
  </outline>
</glyph>
<glyph name="five" format="2">
  <advance width="548"/>
  <unicode hex="0035"/>
  <outline>
    <contour>
      <point x="230" y="-3" type="curve" smooth="yes"/>
      <point x="393" y="-3"/>
      <point x="495" y="82"/>
      <point x="495" y="220" type="curve" smooth="yes"/>
      <point x="495" y="330"/>
      <point x="420" y="397"/>
      <point x="248" y="397" type="curve" smooth="yes"/>
      <point x="117" y="397" type="line"/>
      <point x="123" y="387" type="line"/>
      <point x="219" y="689" type="line"/>
      <point x="208" y="681" type="line"/>
      <point x="552" y="681" type="line"/>
      <point x="556" y="700" type="line"/>
      <point x="201" y="700" type="line"/>
      <point x="100" y="378" type="line"/>
      <point x="245" y="378" type="line" smooth="yes"/>
      <point x="411" y="378"/>
      <point x="475" y="319"/>
      <point x="475" y="220" type="curve" smooth="yes"/>
      <point x="475" y="93"/>
      <point x="384" y="16"/>
      <point x="232" y="16" type="curve" smooth="yes"/>
      <point x="124" y="16"/>
      <point x="48" y="56"/>
      <point x="17" y="109" type="curve"/>
      <point x="0" y="96" type="line"/>
      <point x="34" y="38"/>
      <point x="119" y="-3"/>
    </contour>
  </outline>
</glyph>
<glyph name="seven" format="2">
  <advance width="570"/>
  <unicode hex="0037"/>
  <outline>
    <contour>
      <point x="134" y="0" type="line"/>
      <point x="159" y="0" type="line"/>
      <point x="607" y="685" type="line"/>
      <point x="610" y="700" type="line"/>
      <point x="124" y="700" type="line"/>
      <point x="92" y="540" type="line"/>
      <point x="112" y="540" type="line"/>
      <point x="142" y="689" type="line"/>
      <point x="131" y="681" type="line"/>
      <point x="597" y="681" type="line"/>
      <point x="584" y="688" type="line"/>
    </contour>
  </outline>
</glyph>
<glyph name="greater" format="2">
  <advance width="560"/>
  <unicode hex="003E"/>
  <outline>
    <contour>
      <point x="58" y="168" type="line"/>
      <point x="502" y="339" type="line"/>
      <point x="506" y="361" type="line"/>
      <point x="130" y="532" type="line"/>
      <point x="126" y="512" type="line"/>
      <point x="491" y="347" type="line"/>
      <point x="493" y="355" type="line"/>
      <point x="63" y="191" type="line"/>
    </contour>
  </outline>
</glyph>
<glyph name="B" format="2">
  <advance width="748"/>
  <unicode hex="0042"/>
  <anchor x="325" y="0" name="bottom"/>
  <anchor x="465" y="700" name="top"/>
  <outline>
    <contour>
      <point x="81" y="0" type="line"/>
      <point x="382" y="0" type="line" smooth="yes"/>
      <point x="567" y="0"/>
      <point x="672" y="77"/>
      <point x="672" y="214" type="curve" smooth="yes"/>
      <point x="672" y="314"/>
      <point x="596" y="362"/>
      <point x="471" y="362" type="curve"/>
      <point x="452" y="351" type="line"/>
      <point x="589" y="351"/>
      <point x="701" y="421"/>
      <point x="701" y="559" type="curve" smooth="yes"/>
      <point x="701" y="652"/>
      <point x="623" y="700"/>
      <point x="498" y="700" type="curve" smooth="yes"/>
      <point x="221" y="700" type="line"/>
    </contour>
    <contour>
      <point x="105" y="19" type="line"/>
      <point x="237" y="681" type="line"/>
      <point x="498" y="681" type="line" smooth="yes"/>
      <point x="614" y="681"/>
      <point x="681" y="639"/>
      <point x="681" y="556" type="curve" smooth="yes"/>
      <point x="681" y="430"/>
      <point x="577" y="365"/>
      <point x="435" y="365" type="curve" smooth="yes"/>
      <point x="169" y="365" type="line"/>
      <point x="165" y="346" type="line"/>
      <point x="455" y="346" type="line" smooth="yes"/>
      <point x="585" y="346"/>
      <point x="652" y="308"/>
      <point x="652" y="212" type="curve" smooth="yes"/>
      <point x="652" y="88"/>
      <point x="557" y="19"/>
      <point x="386" y="19" type="curve" smooth="yes"/>
    </contour>
  </outline>
</glyph>
<glyph name="E" format="2">
  <advance width="668"/>
  <unicode hex="0045"/>
  <anchor x="324" y="0" name="bottom"/>
  <anchor x="547" y="0" name="ogonek"/>
  <anchor x="447" y="700" name="top"/>
  <anchor x="129" y="700" name="topleft"/>
  <outline>
    <contour>
      <point x="169" y="365" type="line"/>
      <point x="165" y="346" type="line"/>
      <point x="556" y="346" type="line"/>
      <point x="560" y="365" type="line"/>
    </contour>
    <contour>
      <point x="105" y="19" type="line"/>
      <point x="237" y="681" type="line"/>
      <point x="668" y="681" type="line"/>
      <point x="672" y="700" type="line"/>
      <point x="221" y="700" type="line"/>
      <point x="81" y="0" type="line"/>
      <point x="547" y="0" type="line"/>
      <point x="551" y="19" type="line"/>
    </contour>
  </outline>
</glyph>
<glyph name="I" format="2">
  <advance width="286"/>
  <unicode hex="0049"/>
  <anchor x="91" y="0" name="bottom"/>
  <anchor x="101" y="0" name="ogonek"/>
  <anchor x="231" y="700" name="top"/>
  <anchor x="129" y="699" name="topleft"/>
  <outline>
    <contour>
      <point x="81" y="0" type="line"/>
      <point x="101" y="0" type="line"/>
      <point x="241" y="700" type="line"/>
      <point x="221" y="700" type="line"/>
    </contour>
  </outline>
</glyph>
<glyph name="J" format="2">
  <advance width="477"/>
  <unicode hex="004A"/>
  <anchor x="297" y="700" name="top"/>
  <outline>
    <contour>
      <point x="137" y="-3" type="curve" smooth="yes"/>
      <point x="243" y="-3"/>
      <point x="308" y="49"/>
      <point x="336" y="190" type="curve" smooth="yes"/>
      <point x="438" y="700" type="line"/>
      <point x="156" y="700" type="line"/>
      <point x="152" y="681" type="line"/>
      <point x="414" y="681" type="line"/>
      <point x="317" y="196" type="line" smooth="yes"/>
      <point x="290" y="63"/>
      <point x="233" y="16"/>
      <point x="140" y="16" type="curve" smooth="yes"/>
      <point x="67" y="16"/>
      <point x="13" y="51"/>
      <point x="-12" y="106" type="curve"/>
      <point x="-30" y="96" type="line"/>
      <point x="-5" y="37"/>
      <point x="58" y="-3"/>
    </contour>
  </outline>
</glyph>
<glyph name="M" format="2">
  <advance width="956"/>
  <unicode hex="004D"/>
  <anchor x="426" y="0" name="bottom"/>
  <anchor x="566" y="700" name="top"/>
  <outline>
    <contour>
      <point x="81" y="0" type="line"/>
      <point x="101" y="0" type="line"/>
      <point x="235" y="671" type="line"/>
      <point x="227" y="672" type="line"/>
      <point x="446" y="99" type="line"/>
      <point x="458" y="99" type="line"/>
      <point x="894" y="669" type="line"/>
      <point x="885" y="671" type="line"/>
      <point x="751" y="0" type="line"/>
      <point x="771" y="0" type="line"/>
      <point x="911" y="700" type="line"/>
      <point x="892" y="700" type="line"/>
      <point x="451" y="121" type="line"/>
      <point x="460" y="118" type="line"/>
      <point x="238" y="700" type="line"/>
      <point x="221" y="700" type="line"/>
    </contour>
  </outline>
</glyph>
<glyph name="P" format="2">
  <advance width="710"/>
  <unicode hex="0050"/>
  <outline>
    <contour>
      <point x="81" y="0" type="line"/>
      <point x="101" y="0" type="line"/>
      <point x="151" y="249" type="line"/>
      <point x="140" y="240" type="line"/>
      <point x="373" y="240" type="line" smooth="yes"/>
      <point x="568" y="240"/>
      <point x="690" y="334"/>
      <point x="690" y="514" type="curve" smooth="yes"/>
      <point x="690" y="633"/>
      <point x="604" y="700"/>
      <point x="456" y="700" type="curve" smooth="yes"/>
      <point x="221" y="700" type="line"/>
    </contour>
    <contour>
      <point x="151" y="251" type="line"/>
      <point x="239" y="691" type="line"/>
      <point x="228" y="681" type="line"/>
      <point x="457" y="681" type="line" smooth="yes"/>
      <point x="594" y="681"/>
      <point x="670" y="621"/>
      <point x="670" y="514" type="curve" smooth="yes"/>
      <point x="670" y="345"/>
      <point x="561" y="259"/>
      <point x="372" y="259" type="curve" smooth="yes"/>
      <point x="144" y="259" type="line"/>
    </contour>
  </outline>
</glyph>
<glyph name="T" format="2">
  <advance width="548"/>
  <unicode hex="0054"/>
  <anchor x="222" y="0" name="bottom"/>
  <anchor x="293" y="356" name="center"/>
  <anchor x="362" y="700" name="top"/>
  <outline>
    <contour>
      <point x="212" y="0" type="line"/>
      <point x="232" y="0" type="line"/>
      <point x="368" y="681" type="line"/>
      <point x="628" y="681" type="line"/>
      <point x="632" y="700" type="line"/>
      <point x="92" y="700" type="line"/>
      <point x="88" y="681" type="line"/>
      <point x="348" y="681" type="line"/>
    </contour>
  </outline>
</glyph>
<glyph name="U" format="2">
  <advance width="794"/>
  <unicode hex="0055"/>
  <anchor x="345" y="0" name="bottom"/>
  <anchor x="531" y="0" name="ogonek"/>
  <anchor x="485" y="700" name="top"/>
  <anchor x="760" y="700" name="topright"/>
  <outline>
    <contour>
      <point x="360" y="-3" type="curve" smooth="yes"/>
      <point x="528" y="-3"/>
      <point x="634" y="93"/>
      <point x="674" y="293" type="curve" smooth="yes"/>
      <point x="755" y="700" type="line"/>
      <point x="735" y="700" type="line"/>
      <point x="654" y="294" type="line" smooth="yes"/>
      <point x="617" y="106"/>
      <point x="520" y="16"/>
      <point x="360" y="16" type="curve" smooth="yes"/>
      <point x="194" y="16"/>
      <point x="118" y="116"/>
      <point x="154" y="295" type="curve" smooth="yes"/>
      <point x="235" y="700" type="line"/>
      <point x="215" y="700" type="line"/>
      <point x="134" y="293" type="line" smooth="yes"/>
      <point x="97" y="107"/>
      <point x="183" y="-3"/>
    </contour>
  </outline>
</glyph>
<glyph name="V" format="2">
  <advance width="670"/>
  <unicode hex="0056"/>
  <outline>
    <contour>
      <point x="273" y="0" type="line"/>
      <point x="293" y="0" type="line"/>
      <point x="748" y="700" type="line"/>
      <point x="724" y="700" type="line"/>
      <point x="280" y="17" type="line"/>
      <point x="289" y="17" type="line"/>
      <point x="119" y="700" type="line"/>
      <point x="98" y="700" type="line"/>
    </contour>
  </outline>
</glyph>
<glyph name="W" format="2">
  <advance width="1080"/>
  <unicode hex="0057"/>
  <anchor x="488" y="0" name="bottom"/>
  <anchor x="628" y="700" name="top"/>
  <outline>
    <contour>
      <point x="233" y="0" type="line"/>
      <point x="253" y="0" type="line"/>
      <point x="626" y="677" type="line"/>
      <point x="621" y="676" type="line"/>
      <point x="723" y="0" type="line"/>
      <point x="743" y="0" type="line"/>
      <point x="1123" y="700" type="line"/>
      <point x="1101" y="700" type="line"/>
      <point x="730" y="17" type="line"/>
      <point x="740" y="17" type="line"/>
      <point x="637" y="700" type="line"/>
      <point x="617" y="700" type="line"/>
      <point x="241" y="17" type="line"/>
      <point x="250" y="17" type="line"/>
      <point x="153" y="700" type="line"/>
      <point x="133" y="700" type="line"/>
    </contour>
  </outline>
</glyph>
<glyph name="X" format="2">
  <advance width="621"/>
  <unicode hex="0058"/>
  <outline>
    <contour>
      <point x="-27" y="0" type="line"/>
      <point x="-3" y="0" type="line"/>
      <point x="332" y="351" type="line"/>
      <point x="327" y="353" type="line"/>
      <point x="523" y="0" type="line"/>
      <point x="544" y="0" type="line"/>
      <point x="340" y="366" type="line"/>
      <point x="340" y="360" type="line"/>
      <point x="664" y="700" type="line"/>
      <point x="640" y="700" type="line"/>
      <point x="329" y="374" type="line"/>
      <point x="338" y="369" type="line"/>
      <point x="154" y="700" type="line"/>
      <point x="133" y="700" type="line"/>
      <point x="323" y="359" type="line"/>
      <point x="324" y="369" type="line"/>
    </contour>
  </outline>
</glyph>
<glyph name="Y" format="2">
  <advance width="610"/>
  <unicode hex="0059"/>
  <guideline x="279" y="129" angle="258.7"/>
  <anchor x="253" y="0" name="bottom"/>
  <anchor x="301" y="241" name="center"/>
  <anchor x="393" y="700" name="top"/>
  <anchor x="108" y="700" name="topleft"/>
  <outline>
    <contour>
      <point x="243" y="0" type="line"/>
      <point x="263" y="0" type="line"/>
      <point x="312" y="245" type="line"/>
      <point x="304" y="228" type="line"/>
      <point x="688" y="700" type="line"/>
      <point x="663" y="700" type="line"/>
      <point x="299" y="252" type="line"/>
      <point x="306" y="253" type="line"/>
      <point x="120" y="700" type="line"/>
      <point x="98" y="700" type="line"/>
      <point x="294" y="230" type="line"/>
      <point x="292" y="245" type="line"/>
    </contour>
  </outline>
</glyph>
<glyph name="backslash" format="2">
  <advance width="300"/>
  <unicode hex="005C"/>
  <outline>
    <contour>
      <point x="248" y="-100" type="line"/>
      <point x="105" y="842" type="line"/>
      <point x="86" y="842" type="line"/>
      <point x="229" y="-100" type="line"/>
    </contour>
  </outline>
</glyph>
<glyph name="d" format="2">
  <advance width="671"/>
  <unicode hex="0064"/>
  <anchor x="276" y="0" name="bottom"/>
  <anchor x="556" y="630" name="center"/>
  <anchor x="752" y="742" name="topright"/>
  <outline>
    <contour>
      <point x="269" y="-3" type="curve" smooth="yes"/>
      <point x="440" y="-3"/>
      <point x="558" y="133"/>
      <point x="557" y="312" type="curve" smooth="yes"/>
      <point x="556" y="442"/>
      <point x="479" y="520"/>
      <point x="341" y="520" type="curve" smooth="yes"/>
      <point x="171" y="520"/>
      <point x="49" y="386"/>
      <point x="49" y="207" type="curve" smooth="yes"/>
      <point x="49" y="78"/>
      <point x="134" y="-3"/>
    </contour>
    <contour>
      <point x="272" y="16" type="curve" smooth="yes"/>
      <point x="144" y="16"/>
      <point x="69" y="86"/>
      <point x="69" y="208" type="curve" smooth="yes"/>
      <point x="69" y="376"/>
      <point x="183" y="501"/>
      <point x="338" y="501" type="curve" smooth="yes"/>
      <point x="466" y="501"/>
      <point x="541" y="431"/>
      <point x="541" y="309" type="curve" smooth="yes"/>
      <point x="541" y="140"/>
      <point x="427" y="16"/>
    </contour>
    <contour>
      <point x="485" y="0" type="line"/>
      <point x="505" y="0" type="line"/>
      <point x="653" y="742" type="line"/>
      <point x="633" y="742" type="line"/>
      <point x="550" y="327" type="line"/>
      <point x="547" y="250" type="line"/>
      <point x="521" y="180" type="line"/>
    </contour>
  </outline>
</glyph>
<glyph name="e" format="2">
  <advance width="589"/>
  <unicode hex="0065"/>
  <guideline x="428" y="91" angle="90"/>
  <anchor x="240" y="0" name="bottom"/>
  <anchor x="425" y="0" name="ogonek"/>
  <anchor x="339" y="517" name="top"/>
  <outline>
    <contour>
      <point x="278" y="-3" type="curve" smooth="yes"/>
      <point x="362" y="-3"/>
      <point x="437" y="30"/>
      <point x="479" y="80" type="curve"/>
      <point x="467" y="93" type="line"/>
      <point x="425" y="45"/>
      <point x="357" y="16"/>
      <point x="279" y="16" type="curve" smooth="yes"/>
      <point x="143" y="16"/>
      <point x="69" y="85"/>
      <point x="69" y="210" type="curve" smooth="yes"/>
      <point x="69" y="377"/>
      <point x="179" y="501"/>
      <point x="326" y="501" type="curve" smooth="yes"/>
      <point x="453" y="501"/>
      <point x="538" y="418"/>
      <point x="515" y="267" type="curve"/>
      <point x="523" y="278" type="line"/>
      <point x="70" y="278" type="line"/>
      <point x="66" y="259" type="line"/>
      <point x="532" y="259" type="line"/>
      <point x="535" y="274"/>
      <point x="537" y="292"/>
      <point x="537" y="310" type="curve" smooth="yes"/>
      <point x="537" y="441"/>
      <point x="457" y="520"/>
      <point x="326" y="520" type="curve" smooth="yes"/>
      <point x="167" y="520"/>
      <point x="50" y="386"/>
      <point x="50" y="210" type="curve" smooth="yes"/>
      <point x="50" y="74"/>
      <point x="135" y="-3"/>
    </contour>
  </outline>
</glyph>
<glyph name="f" format="2">
  <advance width="311"/>
  <unicode hex="0066"/>
  <outline>
    <contour>
      <point x="71" y="0" type="line"/>
      <point x="91" y="0" type="line"/>
      <point x="192" y="504" type="line"/>
      <point x="194" y="514" type="line"/>
      <point x="213" y="609" type="line" smooth="yes"/>
      <point x="229" y="691"/>
      <point x="270" y="726"/>
      <point x="341" y="726" type="curve" smooth="yes"/>
      <point x="375" y="726"/>
      <point x="404" y="715"/>
      <point x="423" y="695" type="curve"/>
      <point x="437" y="708" type="line"/>
      <point x="417" y="732"/>
      <point x="380" y="745"/>
      <point x="342" y="745" type="curve" smooth="yes"/>
      <point x="262" y="745"/>
      <point x="211" y="701"/>
      <point x="194" y="615" type="curve" smooth="yes"/>
    </contour>
    <contour>
      <point x="71" y="498" type="line"/>
      <point x="366" y="498" type="line"/>
      <point x="369" y="517" type="line"/>
      <point x="74" y="517" type="line"/>
    </contour>
  </outline>
</glyph>
<glyph name="k" format="2">
  <advance width="557"/>
  <unicode hex="006B"/>
  <anchor x="255" y="0" name="bottom"/>
  <anchor x="221" y="742" name="top"/>
  <anchor x="274" y="517" name="topright"/>
  <outline>
    <contour>
      <point x="107" y="153" type="line"/>
      <point x="297" y="299" type="line"/>
      <point x="311" y="310" type="line"/>
      <point x="580" y="517" type="line"/>
      <point x="548" y="517" type="line"/>
      <point x="109" y="178" type="line"/>
    </contour>
    <contour>
      <point x="63" y="0" type="line"/>
      <point x="83" y="0" type="line"/>
      <point x="231" y="742" type="line"/>
      <point x="211" y="742" type="line"/>
    </contour>
    <contour>
      <point x="476" y="0" type="line"/>
      <point x="500" y="0" type="line"/>
      <point x="309" y="316" type="line"/>
      <point x="293" y="304" type="line"/>
    </contour>
  </outline>
</glyph>
<glyph name="l" format="2">
  <advance width="250"/>
  <unicode hex="006C"/>
  <anchor x="73" y="0" name="bottom"/>
  <anchor x="143" y="350" name="center"/>
  <anchor x="269" y="350" name="dot"/>
  <anchor x="221" y="742" name="top"/>
  <anchor x="331" y="742" name="topright"/>
  <outline>
    <contour>
      <point x="63" y="0" type="line"/>
      <point x="83" y="0" type="line"/>
      <point x="231" y="742" type="line"/>
      <point x="211" y="742" type="line"/>
    </contour>
  </outline>
</glyph>
<glyph name="s" format="2">
  <advance width="463"/>
  <unicode hex="0073"/>
  <anchor x="180" y="0" name="bottom"/>
  <anchor x="283" y="517" name="top"/>
  <outline>
    <contour>
      <point x="189" y="-3" type="curve" smooth="yes"/>
      <point x="319" y="-3"/>
      <point x="401" y="53"/>
      <point x="401" y="145" type="curve" smooth="yes"/>
      <point x="401" y="316"/>
      <point x="94" y="219"/>
      <point x="94" y="372" type="curve" smooth="yes"/>
      <point x="94" y="450"/>
      <point x="166" y="501"/>
      <point x="277" y="501" type="curve" smooth="yes"/>
      <point x="334" y="501"/>
      <point x="391" y="484"/>
      <point x="428" y="452" type="curve"/>
      <point x="442" y="467" type="line"/>
      <point x="407" y="500"/>
      <point x="341" y="520"/>
      <point x="278" y="520" type="curve" smooth="yes"/>
      <point x="156" y="520"/>
      <point x="74" y="461"/>
      <point x="74" y="371" type="curve" smooth="yes"/>
      <point x="74" y="198"/>
      <point x="381" y="295"/>
      <point x="381" y="144" type="curve" smooth="yes"/>
      <point x="381" y="64"/>
      <point x="309" y="16"/>
      <point x="190" y="16" type="curve" smooth="yes"/>
      <point x="119" y="16"/>
      <point x="51" y="41"/>
      <point x="12" y="82" type="curve"/>
      <point x="-3" y="66" type="line"/>
      <point x="34" y="26"/>
      <point x="111" y="-3"/>
    </contour>
  </outline>
</glyph>
<glyph name="exclamdown" format="2">
  <advance width="242"/>
  <unicode hex="00A1"/>
  <outline>
    <contour>
      <point x="27" y="-154" type="line"/>
      <point x="49" y="-154" type="line"/>
      <point x="142" y="329" type="line"/>
      <point x="128" y="329" type="line"/>
    </contour>
    <contour>
      <point x="168" y="468" type="curve" smooth="yes"/>
      <point x="182" y="468"/>
      <point x="194" y="480"/>
      <point x="194" y="494" type="curve" smooth="yes"/>
      <point x="194" y="508"/>
      <point x="182" y="520"/>
      <point x="168" y="520" type="curve" smooth="yes"/>
      <point x="154" y="520"/>
      <point x="142" y="508"/>
      <point x="142" y="494" type="curve" smooth="yes"/>
      <point x="142" y="480"/>
      <point x="154" y="468"/>
    </contour>
  </outline>
</glyph>
<glyph name="sterling" format="2">
  <advance width="618"/>
  <unicode hex="00A3"/>
  <outline>
    <contour>
      <point x="100" y="10" type="line"/>
      <point x="120" y="10" type="line"/>
      <point x="214" y="479" type="line" smooth="yes"/>
      <point x="242" y="619"/>
      <point x="332" y="684"/>
      <point x="478" y="684" type="curve" smooth="yes"/>
      <point x="554" y="684"/>
      <point x="616" y="667"/>
      <point x="659" y="626" type="curve"/>
      <point x="674" y="642" type="line"/>
      <point x="630" y="684"/>
      <point x="558" y="703"/>
      <point x="478" y="703" type="curve" smooth="yes"/>
      <point x="325" y="703"/>
      <point x="224" y="631"/>
      <point x="194" y="482" type="curve" smooth="yes"/>
    </contour>
    <contour>
      <point x="-22" y="0" type="line"/>
      <point x="538" y="0" type="line"/>
      <point x="542" y="19" type="line"/>
      <point x="-18" y="19" type="line"/>
    </contour>
    <contour>
      <point x="46" y="341" type="line"/>
      <point x="485" y="341" type="line"/>
      <point x="489" y="359" type="line"/>
      <point x="50" y="359" type="line"/>
    </contour>
  </outline>
</glyph>
<glyph name="yen" format="2">
  <advance width="670"/>
  <unicode hex="00A5"/>
  <outline>
    <contour>
      <point x="273" y="0" type="line"/>
      <point x="293" y="0" type="line"/>
      <point x="354" y="304" type="line"/>
      <point x="347" y="289" type="line"/>
      <point x="748" y="700" type="line"/>
      <point x="724" y="700" type="line"/>
      <point x="343" y="310" type="line"/>
      <point x="348" y="310" type="line"/>
      <point x="120" y="700" type="line"/>
      <point x="98" y="700" type="line"/>
      <point x="338" y="290" type="line"/>
      <point x="334" y="304" type="line"/>
    </contour>
    <contour>
      <point x="64" y="157" type="line"/>
      <point x="564" y="157" type="line"/>
      <point x="568" y="175" type="line"/>
      <point x="68" y="175" type="line"/>
    </contour>
    <contour>
      <point x="92" y="295" type="line"/>
      <point x="592" y="295" type="line"/>
      <point x="596" y="313" type="line"/>
      <point x="96" y="313" type="line"/>
    </contour>
  </outline>
</glyph>
<glyph name="copyright" format="2">
  <advance width="824"/>
  <unicode hex="00A9"/>
  <outline>
    <contour>
      <point x="429" y="-3" type="curve" smooth="yes"/>
      <point x="628" y="-3"/>
      <point x="783" y="153"/>
      <point x="783" y="352" type="curve" smooth="yes"/>
      <point x="783" y="551"/>
      <point x="632" y="703"/>
      <point x="431" y="703" type="curve" smooth="yes"/>
      <point x="230" y="703"/>
      <point x="77" y="547"/>
      <point x="77" y="350" type="curve" smooth="yes"/>
      <point x="77" y="153"/>
      <point x="230" y="-3"/>
    </contour>
    <contour>
      <point x="429" y="16" type="curve" smooth="yes"/>
      <point x="241" y="16"/>
      <point x="96" y="164"/>
      <point x="96" y="350" type="curve" smooth="yes"/>
      <point x="96" y="536"/>
      <point x="241" y="684"/>
      <point x="431" y="684" type="curve" smooth="yes"/>
      <point x="621" y="684"/>
      <point x="764" y="540"/>
      <point x="764" y="352" type="curve" smooth="yes"/>
      <point x="764" y="164"/>
      <point x="617" y="16"/>
    </contour>
    <contour>
      <point x="437" y="139" type="curve" smooth="yes"/>
      <point x="497" y="139"/>
      <point x="552" y="162"/>
      <point x="588" y="207" type="curve"/>
      <point x="573" y="222" type="line"/>
      <point x="541" y="179"/>
      <point x="491" y="158"/>
      <point x="436" y="158" type="curve" smooth="yes"/>
      <point x="330" y="158"/>
      <point x="252" y="236"/>
      <point x="252" y="350" type="curve" smooth="yes"/>
      <point x="252" y="464"/>
      <point x="330" y="542"/>
      <point x="436" y="542" type="curve" smooth="yes"/>
      <point x="491" y="542"/>
      <point x="541" y="521"/>
      <point x="573" y="478" type="curve"/>
      <point x="588" y="493" type="line"/>
      <point x="552" y="538"/>
      <point x="497" y="561"/>
      <point x="437" y="561" type="curve" smooth="yes"/>
      <point x="319" y="561"/>
      <point x="232" y="474"/>
      <point x="232" y="350" type="curve" smooth="yes"/>
      <point x="232" y="226"/>
      <point x="319" y="139"/>
    </contour>
  </outline>
</glyph>
<glyph name="degree" format="2">
  <advance width="420"/>
  <unicode hex="00B0"/>
  <outline>
    <contour>
      <point x="269" y="403" type="curve" smooth="yes"/>
      <point x="352" y="403"/>
      <point x="419" y="469"/>
      <point x="419" y="553" type="curve" smooth="yes"/>
      <point x="419" y="637"/>
      <point x="352" y="703"/>
      <point x="269" y="703" type="curve" smooth="yes"/>
      <point x="186" y="703"/>
      <point x="119" y="637"/>
      <point x="119" y="553" type="curve" smooth="yes"/>
      <point x="119" y="469"/>
      <point x="186" y="403"/>
    </contour>
    <contour>
      <point x="269" y="421" type="curve" smooth="yes"/>
      <point x="195" y="421"/>
      <point x="138" y="480"/>
      <point x="138" y="553" type="curve" smooth="yes"/>
      <point x="138" y="626"/>
      <point x="195" y="685"/>
      <point x="269" y="685" type="curve" smooth="yes"/>
      <point x="343" y="685"/>
      <point x="400" y="626"/>
      <point x="400" y="553" type="curve" smooth="yes"/>
      <point x="400" y="480"/>
      <point x="343" y="421"/>
    </contour>
  </outline>
</glyph>
<glyph name="plusminus" format="2">
  <advance width="560"/>
  <unicode hex="00B1"/>
  <outline>
    <contour>
      <point x="23" y="0" type="line"/>
      <point x="433" y="0" type="line"/>
      <point x="437" y="19" type="line"/>
      <point x="27" y="19" type="line"/>
    </contour>
    <contour>
      <point x="248" y="150" type="line"/>
      <point x="268" y="150" type="line"/>
      <point x="348" y="550" type="line"/>
      <point x="328" y="550" type="line"/>
    </contour>
    <contour>
      <point x="91" y="340" type="line"/>
      <point x="502" y="340" type="line"/>
      <point x="506" y="359" type="line"/>
      <point x="95" y="359" type="line"/>
    </contour>
  </outline>
</glyph>
<glyph name="paragraph" format="2">
  <advance width="600"/>
  <unicode hex="00B6"/>
  <outline>
    <contour>
      <point x="153" y="-100" type="line"/>
      <point x="173" y="-100" type="line"/>
      <point x="337" y="723" type="line"/>
      <point x="539" y="723" type="line"/>
      <point x="375" y="-100" type="line"/>
      <point x="395" y="-100" type="line"/>
      <point x="563" y="742" type="line"/>
      <point x="321" y="742" type="line" smooth="yes"/>
      <point x="185" y="742"/>
      <point x="87" y="680"/>
      <point x="87" y="558" type="curve" smooth="yes"/>
      <point x="87" y="468"/>
      <point x="159" y="419"/>
      <point x="257" y="419" type="curve"/>
    </contour>
  </outline>
</glyph>
<glyph name="periodcentered" format="2">
  <advance width="222"/>
  <unicode hex="00B7"/>
  <outline>
    <contour>
      <point x="112" y="238" type="curve" smooth="yes"/>
      <point x="126" y="238"/>
      <point x="138" y="250"/>
      <point x="138" y="264" type="curve" smooth="yes"/>
      <point x="138" y="278"/>
      <point x="126" y="290"/>
      <point x="112" y="290" type="curve" smooth="yes"/>
      <point x="98" y="290"/>
      <point x="86" y="278"/>
      <point x="86" y="264" type="curve" smooth="yes"/>
      <point x="86" y="250"/>
      <point x="98" y="238"/>
    </contour>
  </outline>
</glyph>
<glyph name="germandbls" format="2">
  <advance width="651"/>
  <unicode hex="00DF"/>
  <outline>
    <contour>
      <point x="322" y="-3" type="curve" smooth="yes"/>
      <point x="478" y="-3"/>
      <point x="588" y="88"/>
      <point x="588" y="233" type="curve" smooth="yes"/>
      <point x="588" y="334"/>
      <point x="510" y="387"/>
      <point x="395" y="387" type="curve"/>
      <point x="369" y="379" type="line"/>
      <point x="500" y="379"/>
      <point x="603" y="474"/>
      <point x="603" y="597" type="curve" smooth="yes"/>
      <point x="603" y="689"/>
      <point x="537" y="745"/>
      <point x="429" y="745" type="curve" smooth="yes"/>
      <point x="297" y="745"/>
      <point x="197" y="676"/>
      <point x="163" y="507" type="curve" smooth="yes"/>
      <point x="62" y="0" type="line"/>
      <point x="82" y="0" type="line"/>
      <point x="183" y="506" type="line" smooth="yes"/>
      <point x="215" y="665"/>
      <point x="307" y="726"/>
      <point x="428" y="726" type="curve" smooth="yes"/>
      <point x="530" y="726"/>
      <point x="583" y="677"/>
      <point x="583" y="597" type="curve" smooth="yes"/>
      <point x="583" y="468"/>
      <point x="479" y="390"/>
      <point x="336" y="390" type="curve"/>
      <point x="332" y="371" type="line"/>
      <point x="391" y="371" type="line" smooth="yes"/>
      <point x="495" y="371"/>
      <point x="568" y="327"/>
      <point x="568" y="233" type="curve" smooth="yes"/>
      <point x="568" y="99"/>
      <point x="470" y="16"/>
      <point x="322" y="16" type="curve" smooth="yes"/>
      <point x="292" y="16"/>
      <point x="254" y="21"/>
      <point x="223" y="33" type="curve"/>
      <point x="215" y="14" type="line"/>
      <point x="242" y="3"/>
      <point x="289" y="-3"/>
    </contour>
  </outline>
</glyph>
<glyph name="divide" format="2">
  <advance width="560"/>
  <unicode hex="00F7"/>
  <outline>
    <contour>
      <point x="91" y="340" type="line"/>
      <point x="502" y="340" type="line"/>
      <point x="506" y="359" type="line"/>
      <point x="95" y="359" type="line"/>
    </contour>
    <contour>
      <point x="262" y="144" type="curve" smooth="yes"/>
      <point x="276" y="144"/>
      <point x="288" y="156"/>
      <point x="288" y="170" type="curve" smooth="yes"/>
      <point x="288" y="184"/>
      <point x="276" y="196"/>
      <point x="262" y="196" type="curve" smooth="yes"/>
      <point x="248" y="196"/>
      <point x="236" y="184"/>
      <point x="236" y="170" type="curve" smooth="yes"/>
      <point x="236" y="156"/>
      <point x="248" y="144"/>
    </contour>
    <contour>
      <point x="334" y="504" type="curve" smooth="yes"/>
      <point x="348" y="504"/>
      <point x="360" y="516"/>
      <point x="360" y="530" type="curve" smooth="yes"/>
      <point x="360" y="544"/>
      <point x="348" y="556"/>
      <point x="334" y="556" type="curve" smooth="yes"/>
      <point x="320" y="556"/>
      <point x="308" y="544"/>
      <point x="308" y="530" type="curve" smooth="yes"/>
      <point x="308" y="516"/>
      <point x="320" y="504"/>
    </contour>
  </outline>
</glyph>
<glyph name="eng" format="2">
  <advance width="668"/>
  <unicode hex="014B"/>
  <outline>
    <contour>
      <point x="349" y="-197" type="curve" smooth="yes"/>
      <point x="429" y="-197"/>
      <point x="476" y="-156"/>
      <point x="493" y="-69" type="curve" smooth="yes"/>
      <point x="568" y="305" type="line" smooth="yes"/>
      <point x="593" y="431"/>
      <point x="536" y="520"/>
      <point x="393" y="520" type="curve" smooth="yes"/>
      <point x="284" y="520"/>
      <point x="195" y="472"/>
      <point x="146" y="362" type="curve"/>
      <point x="156" y="367" type="line"/>
      <point x="186" y="517" type="line"/>
      <point x="166" y="517" type="line"/>
      <point x="63" y="0" type="line"/>
      <point x="83" y="0" type="line"/>
      <point x="140" y="287" type="line" smooth="yes"/>
      <point x="168" y="427"/>
      <point x="260" y="501"/>
      <point x="391" y="501" type="curve" smooth="yes"/>
      <point x="519" y="501"/>
      <point x="572" y="426"/>
      <point x="548" y="305" type="curve" smooth="yes"/>
      <point x="474" y="-64" type="line" smooth="yes"/>
      <point x="458" y="-146"/>
      <point x="417" y="-178"/>
      <point x="351" y="-178" type="curve" smooth="yes"/>
      <point x="315" y="-178"/>
      <point x="287" y="-167"/>
      <point x="265" y="-146" type="curve"/>
      <point x="250" y="-161" type="line"/>
      <point x="272" y="-184"/>
      <point x="309" y="-197"/>
    </contour>
  </outline>
</glyph>
<glyph name="oe" format="2">
  <advance width="1074"/>
  <unicode hex="0153"/>
  <anchor x="494" y="0" name="bottom"/>
  <anchor x="597" y="517" name="top"/>
  <outline>
    <contour>
      <point x="269" y="-3" type="curve" smooth="yes"/>
      <point x="439" y="-3"/>
      <point x="559" y="130"/>
      <point x="559" y="310" type="curve" smooth="yes"/>
      <point x="559" y="439"/>
      <point x="476" y="520"/>
      <point x="341" y="520" type="curve" smooth="yes"/>
      <point x="171" y="520"/>
      <point x="49" y="386"/>
      <point x="49" y="207" type="curve" smooth="yes"/>
      <point x="49" y="78"/>
      <point x="134" y="-3"/>
    </contour>
    <contour>
      <point x="272" y="16" type="curve" smooth="yes"/>
      <point x="144" y="16"/>
      <point x="69" y="86"/>
      <point x="69" y="208" type="curve" smooth="yes"/>
      <point x="69" y="376"/>
      <point x="183" y="501"/>
      <point x="338" y="501" type="curve" smooth="yes"/>
      <point x="466" y="501"/>
      <point x="541" y="431"/>
      <point x="541" y="309" type="curve" smooth="yes"/>
      <point x="541" y="140"/>
      <point x="427" y="16"/>
    </contour>
    <contour>
      <point x="763" y="-3" type="curve" smooth="yes"/>
      <point x="847" y="-3"/>
      <point x="922" y="30"/>
      <point x="964" y="80" type="curve"/>
      <point x="952" y="93" type="line"/>
      <point x="910" y="45"/>
      <point x="842" y="16"/>
      <point x="764" y="16" type="curve" smooth="yes"/>
      <point x="628" y="16"/>
      <point x="553" y="85"/>
      <point x="553" y="210" type="curve" smooth="yes"/>
      <point x="553" y="377"/>
      <point x="664" y="501"/>
      <point x="811" y="501" type="curve" smooth="yes"/>
      <point x="938" y="501"/>
      <point x="1023" y="418"/>
      <point x="1000" y="267" type="curve"/>
      <point x="1008" y="278" type="line"/>
      <point x="555" y="278" type="line"/>
      <point x="551" y="259" type="line"/>
      <point x="1017" y="259" type="line"/>
      <point x="1020" y="274"/>
      <point x="1022" y="292"/>
      <point x="1022" y="310" type="curve" smooth="yes"/>
      <point x="1022" y="441"/>
      <point x="942" y="520"/>
      <point x="811" y="520" type="curve" smooth="yes"/>
      <point x="652" y="520"/>
      <point x="535" y="386"/>
      <point x="535" y="210" type="curve" smooth="yes"/>
      <point x="535" y="74"/>
      <point x="620" y="-3"/>
    </contour>
  </outline>
</glyph>
<glyph name="longs" format="2">
  <advance width="274"/>
  <unicode hex="017F"/>
  <outline>
    <contour>
      <point x="83" y="0" type="line"/>
      <point x="103" y="0" type="line"/>
      <point x="225" y="609" type="line" smooth="yes"/>
      <point x="241" y="691"/>
      <point x="282" y="726"/>
      <point x="353" y="726" type="curve" smooth="yes"/>
      <point x="387" y="726"/>
      <point x="416" y="715"/>
      <point x="435" y="695" type="curve"/>
      <point x="449" y="708" type="line"/>
      <point x="429" y="732"/>
      <point x="392" y="745"/>
      <point x="354" y="745" type="curve" smooth="yes"/>
      <point x="274" y="745"/>
      <point x="223" y="701"/>
      <point x="206" y="615" type="curve" smooth="yes"/>
    </contour>
    <contour>
      <point x="83" y="498" type="line"/>
      <point x="198" y="498" type="line"/>
      <point x="201" y="517" type="line"/>
      <point x="86" y="517" type="line"/>
    </contour>
  </outline>
</glyph>
<glyph name="ohorn" format="2">
  <advance width="610"/>
  <unicode hex="01A1"/>
  <anchor x="253" y="0" name="bottom"/>
  <anchor x="356" y="517" name="top"/>
  <outline>
    <contour>
      <point x="269" y="-3" type="curve" smooth="yes"/>
      <point x="439" y="-3"/>
      <point x="561" y="130"/>
      <point x="561" y="310" type="curve" smooth="yes"/>
      <point x="561" y="402"/>
      <point x="518" y="470"/>
      <point x="440" y="502" type="curve"/>
      <point x="418" y="502" type="line"/>
      <point x="451" y="498"/>
      <point x="475" y="496"/>
      <point x="503" y="496" type="curve" smooth="yes"/>
      <point x="568" y="496"/>
      <point x="606" y="529"/>
      <point x="606" y="589" type="curve" smooth="yes"/>
      <point x="606" y="615"/>
      <point x="597" y="643"/>
      <point x="584" y="663" type="curve"/>
      <point x="566" y="655" type="line"/>
      <point x="577" y="636"/>
      <point x="586" y="614"/>
      <point x="586" y="588" type="curve" smooth="yes"/>
      <point x="586" y="540"/>
      <point x="557" y="515"/>
      <point x="504" y="515" type="curve" smooth="yes"/>
      <point x="453" y="515"/>
      <point x="424" y="520"/>
      <point x="341" y="520" type="curve" smooth="yes"/>
      <point x="171" y="520"/>
      <point x="49" y="386"/>
      <point x="49" y="207" type="curve" smooth="yes"/>
      <point x="49" y="78"/>
      <point x="134" y="-3"/>
    </contour>
    <contour>
      <point x="272" y="16" type="curve" smooth="yes"/>
      <point x="144" y="16"/>
      <point x="69" y="86"/>
      <point x="69" y="208" type="curve" smooth="yes"/>
      <point x="69" y="376"/>
      <point x="183" y="501"/>
      <point x="338" y="501" type="curve" smooth="yes"/>
      <point x="466" y="501"/>
      <point x="541" y="431"/>
      <point x="541" y="309" type="curve" smooth="yes"/>
      <point x="541" y="140"/>
      <point x="427" y="16"/>
    </contour>
  </outline>
</glyph>
<glyph name="gstroke" format="2">
  <advance width="680"/>
  <unicode hex="01E5"/>
  <outline>
    <contour>
      <point x="237" y="-197" type="curve" smooth="yes"/>
      <point x="400" y="-197"/>
      <point x="487" y="-125"/>
      <point x="521" y="46" type="curve" smooth="yes"/>
      <point x="615" y="517" type="line"/>
      <point x="595" y="517" type="line"/>
      <point x="558" y="329" type="line"/>
      <point x="556" y="269" type="line"/>
      <point x="534" y="209" type="line"/>
      <point x="501" y="43" type="line" smooth="yes"/>
      <point x="471" y="-110"/>
      <point x="387" y="-178"/>
      <point x="238" y="-178" type="curve" smooth="yes"/>
      <point x="152" y="-178"/>
      <point x="81" y="-150"/>
      <point x="39" y="-97" type="curve"/>
      <point x="21" y="-111" type="line"/>
      <point x="66" y="-165"/>
      <point x="143" y="-197"/>
    </contour>
    <contour>
      <point x="233" y="-69" type="line"/>
      <point x="561" y="-69" type="line"/>
      <point x="565" y="-50" type="line"/>
      <point x="237" y="-50" type="line"/>
    </contour>
    <contour>
      <point x="274" y="17" type="curve" smooth="yes"/>
      <point x="446" y="17"/>
      <point x="565" y="148"/>
      <point x="564" y="318" type="curve" smooth="yes"/>
      <point x="563" y="445"/>
      <point x="483" y="520"/>
      <point x="345" y="520" type="curve" smooth="yes"/>
      <point x="174" y="520"/>
      <point x="51" y="391"/>
      <point x="51" y="219" type="curve" smooth="yes"/>
      <point x="51" y="94"/>
      <point x="136" y="17"/>
    </contour>
    <contour>
      <point x="276" y="36" type="curve" smooth="yes"/>
      <point x="147" y="36"/>
      <point x="71" y="103"/>
      <point x="71" y="220" type="curve" smooth="yes"/>
      <point x="71" y="381"/>
      <point x="186" y="501"/>
      <point x="343" y="501" type="curve" smooth="yes"/>
      <point x="472" y="501"/>
      <point x="548" y="434"/>
      <point x="548" y="317" type="curve" smooth="yes"/>
      <point x="548" y="155"/>
      <point x="433" y="36"/>
    </contour>
  </outline>
</glyph>
<glyph name="oogonek" format="2">
  <advance width="610"/>
  <unicode hex="01EB"/>
  <anchor x="356" y="517" name="top"/>
  <outline>
    <contour>
      <point x="238" y="-213" type="curve" smooth="yes"/>
      <point x="268" y="-213"/>
      <point x="296" y="-204"/>
      <point x="319" y="-186" type="curve"/>
      <point x="311" y="-169" type="line"/>
      <point x="291" y="-185"/>
      <point x="265" y="-194"/>
      <point x="240" y="-194" type="curve" smooth="yes"/>
      <point x="204" y="-194"/>
      <point x="183" y="-176"/>
      <point x="183" y="-142" type="curve" smooth="yes"/>
      <point x="183" y="-86"/>
      <point x="240" y="-33"/>
      <point x="370" y="14" type="curve" smooth="yes"/>
      <point x="486" y="56"/>
      <point x="561" y="169"/>
      <point x="561" y="310" type="curve" smooth="yes"/>
      <point x="561" y="439"/>
      <point x="476" y="520"/>
      <point x="341" y="520" type="curve" smooth="yes"/>
      <point x="171" y="520"/>
      <point x="49" y="386"/>
      <point x="49" y="207" type="curve" smooth="yes"/>
      <point x="49" y="78"/>
      <point x="134" y="-3"/>
      <point x="269" y="-3" type="curve" smooth="yes"/>
      <point x="278" y="-3"/>
      <point x="287" y="-3"/>
      <point x="302" y="-1" type="curve"/>
      <point x="305" y="5" type="line"/>
      <point x="204" y="-38"/>
      <point x="163" y="-91"/>
      <point x="163" y="-144" type="curve" smooth="yes"/>
      <point x="163" y="-187"/>
      <point x="193" y="-213"/>
    </contour>
    <contour>
      <point x="272" y="16" type="curve" smooth="yes"/>
      <point x="144" y="16"/>
      <point x="69" y="86"/>
      <point x="69" y="208" type="curve" smooth="yes"/>
      <point x="69" y="376"/>
      <point x="183" y="501"/>
      <point x="338" y="501" type="curve" smooth="yes"/>
      <point x="466" y="501"/>
      <point x="541" y="431"/>
      <point x="541" y="309" type="curve" smooth="yes"/>
      <point x="541" y="140"/>
      <point x="427" y="16"/>
    </contour>
  </outline>
</glyph>
<glyph name="ringhalfleft" format="2">
  <advance width="600"/>
  <unicode hex="02BF"/>
  <outline>
    <contour>
      <point x="400" y="760" type="curve"/>
      <point x="404" y="779" type="line"/>
      <point x="397" y="780"/>
      <point x="392" y="780"/>
      <point x="386" y="780" type="curve" smooth="yes"/>
      <point x="333" y="780"/>
      <point x="294" y="737"/>
      <point x="294" y="687" type="curve" smooth="yes"/>
      <point x="294" y="644"/>
      <point x="323" y="607"/>
      <point x="368" y="599" type="curve"/>
      <point x="371" y="617" type="line"/>
      <point x="336" y="624"/>
      <point x="314" y="652"/>
      <point x="314" y="687" type="curve" smooth="yes"/>
      <point x="314" y="728"/>
      <point x="344" y="761"/>
      <point x="386" y="761" type="curve" smooth="yes"/>
      <point x="391" y="761"/>
      <point x="395" y="761"/>
    </contour>
  </outline>
</glyph>
<glyph name="secondtonechinese" format="2">
  <advance width="600"/>
  <unicode hex="02CA"/>
  <anchor x="351" y="517" name="_top"/>
  <anchor x="380" y="660" name="top"/>
  <outline>
    <contour>
      <point x="323" y="607" type="line"/>
      <point x="355" y="607" type="line"/>
      <point x="517" y="717" type="line"/>
      <point x="475" y="717" type="line"/>
    </contour>
  </outline>
</glyph>
<glyph name="gravecomb" format="2">
  <unicode hex="0300"/>
  <anchor x="351" y="517" name="_top"/>
  <anchor x="380" y="660" name="top"/>
  <outline>
    <contour>
      <point x="384" y="607" type="line"/>
      <point x="414" y="607" type="line"/>
      <point x="296" y="717" type="line"/>
      <point x="256" y="717" type="line"/>
    </contour>
  </outline>
</glyph>
<glyph name="circumflexcomb" format="2">
  <unicode hex="0302"/>
  <anchor x="351" y="517" name="_top"/>
  <anchor x="378" y="650" name="top"/>
  <outline>
    <contour>
      <point x="231" y="607" type="line"/>
      <point x="260" y="607" type="line"/>
      <point x="383" y="703" type="line"/>
      <point x="377" y="703" type="line"/>
      <point x="482" y="607" type="line"/>
      <point x="507" y="607" type="line"/>
      <point x="397" y="717" type="line"/>
      <point x="365" y="717" type="line"/>
    </contour>
  </outline>
</glyph>
<glyph name="brevecomb" format="2">
  <unicode hex="0306"/>
  <anchor x="351" y="517" name="_top"/>
  <anchor x="378" y="650" name="top"/>
  <outline>
    <contour>
      <point x="380" y="604" type="curve" smooth="yes"/>
      <point x="452" y="604"/>
      <point x="512" y="647"/>
      <point x="522" y="717" type="curve"/>
      <point x="503" y="717" type="line"/>
      <point x="495" y="658"/>
      <point x="441" y="623"/>
      <point x="381" y="623" type="curve" smooth="yes"/>
      <point x="317" y="623"/>
      <point x="273" y="659"/>
      <point x="277" y="717" type="curve"/>
      <point x="258" y="717" type="line"/>
      <point x="253" y="648"/>
      <point x="308" y="604"/>
    </contour>
  </outline>
</glyph>
<glyph name="dblgravecomb" format="2">
  <unicode hex="030F"/>
  <anchor x="351" y="517" name="_top"/>
  <anchor x="380" y="660" name="top"/>
  <outline>
    <contour>
      <point x="425" y="607" type="line"/>
      <point x="452" y="607" type="line"/>
      <point x="363" y="717" type="line"/>
      <point x="329" y="717" type="line"/>
    </contour>
    <contour>
      <point x="286" y="607" type="line"/>
      <point x="313" y="607" type="line"/>
      <point x="224" y="717" type="line"/>
      <point x="190" y="717" type="line"/>
    </contour>
  </outline>
</glyph>
<glyph name="breveinvertedcomb" format="2">
  <unicode hex="0311"/>
  <anchor x="351" y="517" name="_top"/>
  <anchor x="378" y="650" name="top"/>
  <outline>
    <contour>
      <point x="237" y="607" type="curve"/>
      <point x="256" y="607" type="line"/>
      <point x="264" y="666"/>
      <point x="318" y="701"/>
      <point x="378" y="701" type="curve" smooth="yes"/>
      <point x="442" y="701"/>
      <point x="486" y="665"/>
      <point x="482" y="607" type="curve"/>
      <point x="501" y="607" type="line"/>
      <point x="506" y="676"/>
      <point x="451" y="720"/>
      <point x="379" y="720" type="curve" smooth="yes"/>
      <point x="307" y="720"/>
      <point x="247" y="677"/>
    </contour>
  </outline>
</glyph>
<glyph name="commaaccentcomb" format="2">
  <unicode hex="0326"/>
  <anchor x="248" y="0" name="_bottom"/>
  <anchor x="225" y="-113" name="bottom"/>
  <outline>
    <contour>
      <point x="177" y="-259" type="line"/>
      <point x="195" y="-259" type="line"/>
      <point x="235" y="-179" type="line" smooth="yes"/>
      <point x="241" y="-168"/>
      <point x="244" y="-161"/>
      <point x="244" y="-150" type="curve" smooth="yes"/>
      <point x="244" y="-136"/>
      <point x="233" y="-124"/>
      <point x="217" y="-124" type="curve" smooth="yes"/>
      <point x="203" y="-124"/>
      <point x="192" y="-136"/>
      <point x="192" y="-150" type="curve" smooth="yes"/>
      <point x="192" y="-164"/>
      <point x="204" y="-176"/>
      <point x="218" y="-176" type="curve"/>
      <point x="217" y="-165" type="line"/>
    </contour>
  </outline>
</glyph>
<glyph name="ogonekcomb" format="2">
  <unicode hex="0328"/>
  <anchor x="249" y="0" name="_ogonek"/>
  <outline>
    <contour>
      <point x="150" y="-213" type="curve" smooth="yes"/>
      <point x="179" y="-213"/>
      <point x="207" y="-204"/>
      <point x="230" y="-186" type="curve"/>
      <point x="222" y="-169" type="line"/>
      <point x="202" y="-185"/>
      <point x="176" y="-194"/>
      <point x="151" y="-194" type="curve" smooth="yes"/>
      <point x="115" y="-194"/>
      <point x="94" y="-176"/>
      <point x="94" y="-142" type="curve" smooth="yes"/>
      <point x="94" y="-88"/>
      <point x="145" y="-41"/>
      <point x="249" y="0" type="curve"/>
      <point x="242" y="16" type="line"/>
      <point x="123" y="-31"/>
      <point x="74" y="-85"/>
      <point x="74" y="-144" type="curve" smooth="yes"/>
      <point x="74" y="-187"/>
      <point x="104" y="-213"/>
    </contour>
  </outline>
</glyph>
<glyph name="strokeshortcomb" format="2">
  <unicode hex="0335"/>
  <anchor x="336" y="441" name="_center"/>
  <outline>
    <contour>
      <point x="145" y="432" type="line"/>
      <point x="523" y="432" type="line"/>
      <point x="527" y="451" type="line"/>
      <point x="149" y="451" type="line"/>
    </contour>
  </outline>
</glyph>
<glyph name="Delta" format="2">
  <advance width="688"/>
  <unicode hex="0394"/>
  <outline>
    <contour>
      <point x="442" y="700" type="line"/>
      <point x="422" y="700" type="line"/>
      <point x="-43" y="0" type="line"/>
      <point x="627" y="0" type="line"/>
    </contour>
    <contour>
      <point x="-12" y="11" type="line"/>
      <point x="435" y="684" type="line"/>
      <point x="426" y="684" type="line"/>
      <point x="603" y="11" type="line"/>
      <point x="608" y="19" type="line"/>
      <point x="-17" y="19" type="line"/>
    </contour>
  </outline>
</glyph>
<glyph name="mu" format="2">
  <advance width="670"/>
  <unicode hex="03BC"/>
  <outline>
    <contour>
      <point x="25" y="-194" type="line"/>
      <point x="45" y="-194" type="line"/>
      <point x="111" y="135" type="line"/>
      <point x="103" y="121" type="line"/>
      <point x="119" y="37"/>
      <point x="184" y="-3"/>
      <point x="279" y="-3" type="curve" smooth="yes"/>
      <point x="387" y="-3"/>
      <point x="475" y="45"/>
      <point x="524" y="155" type="curve"/>
      <point x="514" y="150" type="line"/>
      <point x="484" y="0" type="line"/>
      <point x="504" y="0" type="line"/>
      <point x="607" y="517" type="line"/>
      <point x="587" y="517" type="line"/>
      <point x="530" y="230" type="line" smooth="yes"/>
      <point x="502" y="90"/>
      <point x="411" y="16"/>
      <point x="281" y="16" type="curve" smooth="yes"/>
      <point x="154" y="16"/>
      <point x="102" y="91"/>
      <point x="126" y="212" type="curve" smooth="yes"/>
      <point x="187" y="517" type="line"/>
      <point x="167" y="517" type="line"/>
    </contour>
  </outline>
</glyph>
<glyph name="pi" format="2">
  <advance width="718"/>
  <unicode hex="03C0"/>
  <outline>
    <contour>
      <point x="40" y="270" type="curve"/>
      <point x="57" y="280" type="line"/>
      <point x="46" y="300"/>
      <point x="40" y="323"/>
      <point x="40" y="347" type="curve" smooth="yes"/>
      <point x="40" y="430"/>
      <point x="99" y="498"/>
      <point x="224" y="498" type="curve" smooth="yes"/>
      <point x="758" y="498" type="line"/>
      <point x="762" y="517" type="line"/>
      <point x="224" y="517" type="line" smooth="yes"/>
      <point x="81" y="517"/>
      <point x="20" y="437"/>
      <point x="20" y="346" type="curve" smooth="yes"/>
      <point x="20" y="317"/>
      <point x="28" y="291"/>
    </contour>
    <contour>
      <point x="137" y="0" type="line"/>
      <point x="157" y="0" type="line"/>
      <point x="320" y="517" type="line"/>
      <point x="300" y="517" type="line"/>
    </contour>
    <contour>
      <point x="457" y="0" type="line"/>
      <point x="477" y="0" type="line"/>
      <point x="580" y="517" type="line"/>
      <point x="560" y="517" type="line"/>
    </contour>
  </outline>
</glyph>
<glyph name="Dje-cy" format="2">
  <advance width="810"/>
  <unicode hex="0402"/>
  <outline>
    <contour>
      <point x="217" y="0" type="line"/>
      <point x="237" y="0" type="line"/>
      <point x="375" y="690" type="line"/>
      <point x="364" y="681" type="line"/>
      <point x="648" y="681" type="line"/>
      <point x="652" y="700" type="line"/>
      <point x="97" y="700" type="line"/>
      <point x="93" y="681" type="line"/>
      <point x="362" y="681" type="line"/>
      <point x="355" y="690" type="line"/>
    </contour>
    <contour>
      <point x="406" y="9" type="line"/>
      <point x="586" y="-39"/>
      <point x="754" y="74"/>
      <point x="754" y="254" type="curve" smooth="yes"/>
      <point x="754" y="419"/>
      <point x="559" y="465"/>
      <point x="296" y="352" type="curve"/>
      <point x="291" y="331" type="line"/>
      <point x="549" y="442"/>
      <point x="734" y="406"/>
      <point x="734" y="253" type="curve" smooth="yes"/>
      <point x="734" y="89"/>
      <point x="585" y="-16"/>
      <point x="414" y="28" type="curve"/>
    </contour>
  </outline>
</glyph>
<glyph name="E-cy" format="2">
  <advance width="706"/>
  <unicode hex="0404"/>
  <outline>
    <contour>
      <point x="516" y="351" type="line"/>
      <point x="104" y="351" type="line"/>
      <point x="101" y="332" type="line"/>
      <point x="513" y="332" type="line"/>
    </contour>
    <contour>
      <point x="360" y="-3" type="curve" smooth="yes"/>
      <point x="458" y="-3"/>
      <point x="554" y="27"/>
      <point x="626" y="87" type="curve"/>
      <point x="616" y="101" type="line"/>
      <point x="540" y="40"/>
      <point x="455" y="16"/>
      <point x="364" y="16" type="curve" smooth="yes"/>
      <point x="207" y="16"/>
      <point x="104" y="134"/>
      <point x="104" y="291" type="curve" smooth="yes"/>
      <point x="104" y="507"/>
      <point x="292" y="684"/>
      <point x="497" y="684" type="curve" smooth="yes"/>
      <point x="588" y="684"/>
      <point x="664" y="661"/>
      <point x="716" y="600" type="curve"/>
      <point x="731" y="614" type="line"/>
      <point x="683" y="674"/>
      <point x="599" y="703"/>
      <point x="501" y="703" type="curve" smooth="yes"/>
      <point x="282" y="703"/>
      <point x="83" y="518"/>
      <point x="83" y="286" type="curve" smooth="yes"/>
      <point x="83" y="120"/>
      <point x="193" y="-3"/>
    </contour>
  </outline>
</glyph>
<glyph name="Nje-cy" format="2">
  <advance width="1194"/>
  <unicode hex="040A"/>
  <outline>
    <contour>
      <point x="85" y="0" type="line"/>
      <point x="105" y="0" type="line"/>
      <point x="180" y="377" type="line"/>
      <point x="672" y="377" type="line"/>
      <point x="597" y="0" type="line"/>
      <point x="617" y="0" type="line"/>
      <point x="757" y="700" type="line"/>
      <point x="737" y="700" type="line"/>
      <point x="676" y="396" type="line"/>
      <point x="184" y="396" type="line"/>
      <point x="245" y="700" type="line"/>
      <point x="225" y="700" type="line"/>
    </contour>
    <contour>
      <point x="619" y="10" type="line"/>
      <point x="694" y="386" type="line"/>
      <point x="684" y="377" type="line"/>
      <point x="928" y="377" type="line" smooth="yes"/>
      <point x="1051" y="377"/>
      <point x="1117" y="325"/>
      <point x="1117" y="235" type="curve" smooth="yes"/>
      <point x="1117" y="104"/>
      <point x="1017" y="19"/>
      <point x="857" y="19" type="curve" smooth="yes"/>
      <point x="613" y="19" type="line"/>
    </contour>
    <contour>
      <point x="597" y="0" type="line"/>
      <point x="849" y="0" type="line" smooth="yes"/>
      <point x="1025" y="0"/>
      <point x="1138" y="95"/>
      <point x="1138" y="239" type="curve" smooth="yes"/>
      <point x="1138" y="338"/>
      <point x="1067" y="396"/>
      <point x="939" y="396" type="curve" smooth="yes"/>
      <point x="688" y="396" type="line"/>
      <point x="695" y="388" type="line"/>
      <point x="757" y="700" type="line"/>
      <point x="737" y="700" type="line"/>
    </contour>
  </outline>
</glyph>
<glyph name="Tshe-cy" format="2">
  <advance width="823"/>
  <unicode hex="040B"/>
  <outline>
    <contour>
      <point x="216" y="0" type="line"/>
      <point x="236" y="0" type="line"/>
      <point x="374" y="690" type="line"/>
      <point x="363" y="681" type="line"/>
      <point x="647" y="681" type="line"/>
      <point x="651" y="700" type="line"/>
      <point x="96" y="700" type="line"/>
      <point x="92" y="681" type="line"/>
      <point x="361" y="681" type="line"/>
      <point x="354" y="690" type="line"/>
    </contour>
    <contour>
      <point x="295" y="352" type="curve"/>
      <point x="290" y="331" type="line"/>
      <point x="395" y="376"/>
      <point x="480" y="397"/>
      <point x="555" y="397" type="curve" smooth="yes"/>
      <point x="686" y="397"/>
      <point x="752" y="331"/>
      <point x="728" y="210" type="curve" smooth="yes"/>
      <point x="686" y="0" type="line"/>
      <point x="706" y="0" type="line"/>
      <point x="748" y="208" type="line" smooth="yes"/>
      <point x="775" y="345"/>
      <point x="696" y="416"/>
      <point x="556" y="416" type="curve" smooth="yes"/>
      <point x="480" y="416"/>
      <point x="396" y="395"/>
    </contour>
  </outline>
</glyph>
<glyph name="Dzhe-cy" format="2">
  <advance width="804"/>
  <unicode hex="040F"/>
  <outline>
    <contour>
      <point x="755" y="700" type="line"/>
      <point x="735" y="700" type="line"/>
      <point x="599" y="19" type="line"/>
      <point x="109" y="19" type="line"/>
      <point x="245" y="700" type="line"/>
      <point x="225" y="700" type="line"/>
      <point x="85" y="0" type="line"/>
      <point x="340" y="0" type="line"/>
      <point x="305" y="-175" type="line"/>
      <point x="325" y="-175" type="line"/>
      <point x="360" y="0" type="line"/>
      <point x="615" y="0" type="line"/>
    </contour>
  </outline>
</glyph>
<glyph name="Ii-cy" format="2">
  <advance width="826"/>
  <unicode hex="0418"/>
  <anchor x="617" y="0" name="bottomleft"/>
  <anchor x="755" y="0" name="bottomright"/>
  <anchor x="498" y="700" name="top"/>
  <outline>
    <contour>
      <point x="85" y="0" type="line"/>
      <point x="101" y="0" type="line"/>
      <point x="750" y="662" type="line"/>
      <point x="617" y="0" type="line"/>
      <point x="637" y="0" type="line"/>
      <point x="777" y="700" type="line"/>
      <point x="762" y="700" type="line"/>
      <point x="113" y="38" type="line"/>
      <point x="245" y="700" type="line"/>
      <point x="225" y="700" type="line"/>
    </contour>
  </outline>
</glyph>
<glyph name="El-cy" format="2">
  <advance width="775"/>
  <unicode hex="041B"/>
  <anchor x="566" y="0" name="#exit"/>
  <anchor x="566" y="0" name="bottomleft"/>
  <outline>
    <contour>
      <point x="-3" y="-2" type="curve" smooth="yes"/>
      <point x="101" y="-2"/>
      <point x="171" y="107"/>
      <point x="237" y="388" type="curve" smooth="yes"/>
      <point x="308" y="690" type="line"/>
      <point x="297" y="681" type="line"/>
      <point x="711" y="681" type="line"/>
      <point x="704" y="690" type="line"/>
      <point x="566" y="0" type="line"/>
      <point x="586" y="0" type="line"/>
      <point x="726" y="700" type="line"/>
      <point x="290" y="700" type="line"/>
      <point x="217" y="391" type="line" smooth="yes"/>
      <point x="153" y="119"/>
      <point x="90" y="18"/>
      <point x="-4" y="18" type="curve" smooth="yes"/>
      <point x="-15" y="18"/>
      <point x="-24" y="19"/>
      <point x="-38" y="22" type="curve"/>
      <point x="-44" y="3" type="line"/>
      <point x="-29" y="-1"/>
      <point x="-18" y="-2"/>
    </contour>
  </outline>
</glyph>
<glyph name="Te-cy" format="2">
  <advance width="556"/>
  <unicode hex="0422"/>
  <anchor x="226" y="0" name="bottom"/>
  <anchor x="216" y="0" name="bottomleft"/>
  <anchor x="297" y="356" name="center"/>
  <anchor x="366" y="700" name="top"/>
  <outline>
    <contour>
      <point x="216" y="0" type="line"/>
      <point x="236" y="0" type="line"/>
      <point x="374" y="690" type="line"/>
      <point x="363" y="681" type="line"/>
      <point x="632" y="681" type="line"/>
      <point x="636" y="700" type="line"/>
      <point x="96" y="700" type="line"/>
      <point x="92" y="681" type="line"/>
      <point x="361" y="681" type="line"/>
      <point x="354" y="690" type="line"/>
    </contour>
  </outline>
</glyph>
<glyph name="Ereversed-cy" format="2">
  <advance width="706"/>
  <unicode hex="042D"/>
  <anchor x="400" y="700" name="top"/>
  <outline>
    <contour>
      <point x="226" y="349" type="line"/>
      <point x="638" y="349" type="line"/>
      <point x="641" y="368" type="line"/>
      <point x="229" y="368" type="line"/>
    </contour>
    <contour>
      <point x="382" y="703" type="curve" smooth="yes"/>
      <point x="284" y="703"/>
      <point x="188" y="673"/>
      <point x="116" y="613" type="curve"/>
      <point x="126" y="599" type="line"/>
      <point x="202" y="660"/>
      <point x="287" y="684"/>
      <point x="378" y="684" type="curve" smooth="yes"/>
      <point x="535" y="684"/>
      <point x="638" y="566"/>
      <point x="638" y="409" type="curve" smooth="yes"/>
      <point x="638" y="193"/>
      <point x="450" y="16"/>
      <point x="245" y="16" type="curve" smooth="yes"/>
      <point x="154" y="16"/>
      <point x="78" y="39"/>
      <point x="26" y="100" type="curve"/>
      <point x="11" y="86" type="line"/>
      <point x="59" y="26"/>
      <point x="143" y="-3"/>
      <point x="241" y="-3" type="curve" smooth="yes"/>
      <point x="460" y="-3"/>
      <point x="659" y="182"/>
      <point x="659" y="414" type="curve" smooth="yes"/>
      <point x="659" y="580"/>
      <point x="549" y="703"/>
    </contour>
  </outline>
</glyph>
<glyph name="Iu-cy" format="2">
  <advance width="1082"/>
  <unicode hex="042E"/>
  <outline>
    <contour>
      <point x="85" y="0" type="line"/>
      <point x="105" y="0" type="line"/>
      <point x="174" y="346" type="line"/>
      <point x="354" y="346" type="line"/>
      <point x="358" y="365" type="line"/>
      <point x="178" y="365" type="line"/>
      <point x="245" y="700" type="line"/>
      <point x="225" y="700" type="line"/>
    </contour>
    <contour>
      <point x="627" y="-3" type="curve" smooth="yes"/>
      <point x="845" y="-3"/>
      <point x="1034" y="188"/>
      <point x="1034" y="411" type="curve" smooth="yes"/>
      <point x="1034" y="585"/>
      <point x="919" y="703"/>
      <point x="749" y="703" type="curve" smooth="yes"/>
      <point x="532" y="703"/>
      <point x="343" y="510"/>
      <point x="343" y="287" type="curve" smooth="yes"/>
      <point x="343" y="113"/>
      <point x="457" y="-3"/>
    </contour>
    <contour>
      <point x="627" y="16" type="curve" smooth="yes"/>
      <point x="469" y="16"/>
      <point x="363" y="125"/>
      <point x="363" y="287" type="curve" smooth="yes"/>
      <point x="363" y="499"/>
      <point x="543" y="684"/>
      <point x="749" y="684" type="curve" smooth="yes"/>
      <point x="908" y="684"/>
      <point x="1014" y="574"/>
      <point x="1014" y="412" type="curve" smooth="yes"/>
      <point x="1014" y="201"/>
      <point x="834" y="16"/>
    </contour>
  </outline>
</glyph>
<glyph name="Ia-cy" format="2">
  <advance width="736"/>
  <unicode hex="042F"/>
  <outline>
    <contour>
      <point x="527" y="0" type="line"/>
      <point x="547" y="0" type="line"/>
      <point x="687" y="700" type="line"/>
      <point x="433" y="700" type="line" smooth="yes"/>
      <point x="239" y="700"/>
      <point x="121" y="593"/>
      <point x="121" y="432" type="curve" smooth="yes"/>
      <point x="121" y="300"/>
      <point x="201" y="230"/>
      <point x="331" y="230" type="curve" smooth="yes"/>
      <point x="582" y="230" type="line"/>
      <point x="575" y="239" type="line"/>
    </contour>
    <contour>
      <point x="33" y="0" type="line"/>
      <point x="60" y="0" type="line"/>
      <point x="279" y="243" type="line"/>
      <point x="253" y="243" type="line"/>
    </contour>
    <contour>
      <point x="576" y="241" type="line"/>
      <point x="586" y="249" type="line"/>
      <point x="336" y="249" type="line" smooth="yes"/>
      <point x="213" y="249"/>
      <point x="141" y="308"/>
      <point x="141" y="432" type="curve" smooth="yes"/>
      <point x="141" y="581"/>
      <point x="248" y="681"/>
      <point x="434" y="681" type="curve" smooth="yes"/>
      <point x="672" y="681" type="line"/>
      <point x="665" y="689" type="line"/>
    </contour>
  </outline>
</glyph>
<glyph name="ve-cy" format="2">
  <advance width="594"/>
  <unicode hex="0432"/>
  <anchor x="245" y="0" name="bottom"/>
  <anchor x="349" y="517" name="top"/>
  <outline>
    <contour>
      <point x="64" y="0" type="line"/>
      <point x="272" y="0" type="line" smooth="yes"/>
      <point x="411" y="0"/>
      <point x="494" y="61"/>
      <point x="494" y="162" type="curve" smooth="yes"/>
      <point x="494" y="236"/>
      <point x="449" y="268"/>
      <point x="343" y="268" type="curve"/>
      <point x="330" y="259" type="line"/>
      <point x="445" y="259"/>
      <point x="524" y="319"/>
      <point x="524" y="408" type="curve" smooth="yes"/>
      <point x="524" y="480"/>
      <point x="472" y="517"/>
      <point x="370" y="517" type="curve" smooth="yes"/>
      <point x="168" y="517" type="line"/>
    </contour>
    <contour>
      <point x="88" y="19" type="line"/>
      <point x="135" y="253" type="line"/>
      <point x="336" y="253" type="line" smooth="yes"/>
      <point x="435" y="253"/>
      <point x="474" y="227"/>
      <point x="474" y="161" type="curve" smooth="yes"/>
      <point x="474" y="72"/>
      <point x="401" y="19"/>
      <point x="277" y="19" type="curve" smooth="yes"/>
    </contour>
    <contour>
      <point x="139" y="272" type="line"/>
      <point x="184" y="498" type="line"/>
      <point x="369" y="498" type="line" smooth="yes"/>
      <point x="460" y="498"/>
      <point x="504" y="469"/>
      <point x="504" y="407" type="curve" smooth="yes"/>
      <point x="504" y="326"/>
      <point x="431" y="272"/>
      <point x="322" y="272" type="curve" smooth="yes"/>
    </contour>
  </outline>
</glyph>
<glyph name="en-cy" format="2">
  <advance width="661"/>
  <unicode hex="043D"/>
  <anchor x="275" y="0" name="bottom"/>
  <anchor x="473" y="0" name="bottomleft"/>
  <anchor x="355" y="398" name="center"/>
  <anchor x="379" y="517" name="top"/>
  <outline>
    <contour>
      <point x="64" y="0" type="line"/>
      <point x="84" y="0" type="line"/>
      <point x="135" y="252" type="line"/>
      <point x="524" y="252" type="line"/>
      <point x="473" y="0" type="line"/>
      <point x="493" y="0" type="line"/>
      <point x="597" y="517" type="line"/>
      <point x="577" y="517" type="line"/>
      <point x="527" y="270" type="line"/>
      <point x="138" y="270" type="line"/>
      <point x="188" y="517" type="line"/>
      <point x="168" y="517" type="line"/>
    </contour>
  </outline>
</glyph>
<glyph name="te-cy" format="2">
  <advance width="432"/>
  <unicode hex="0442"/>
  <anchor x="164" y="0" name="bottom"/>
  <anchor x="154" y="0" name="bottomleft"/>
  <anchor x="217" y="262" name="center"/>
  <anchor x="268" y="517" name="top"/>
  <outline>
    <contour>
      <point x="154" y="0" type="line"/>
      <point x="174" y="0" type="line"/>
      <point x="275" y="506" type="line"/>
      <point x="266" y="498" type="line"/>
      <point x="484" y="498" type="line"/>
      <point x="488" y="517" type="line"/>
      <point x="48" y="517" type="line"/>
      <point x="44" y="498" type="line"/>
      <point x="262" y="498" type="line"/>
      <point x="255" y="506" type="line"/>
    </contour>
  </outline>
</glyph>
<glyph name="sha-cy" format="2">
  <advance width="901"/>
  <unicode hex="0448"/>
  <anchor x="709" y="0" name="bottomleft"/>
  <outline>
    <contour>
      <point x="399" y="18" type="line"/>
      <point x="80" y="18" type="line"/>
      <point x="87" y="10" type="line"/>
      <point x="188" y="517" type="line"/>
      <point x="168" y="517" type="line"/>
      <point x="64" y="0" type="line"/>
      <point x="733" y="0" type="line"/>
      <point x="837" y="517" type="line"/>
      <point x="817" y="517" type="line"/>
      <point x="716" y="10" type="line"/>
      <point x="725" y="18" type="line"/>
      <point x="405" y="18" type="line"/>
      <point x="412" y="10" type="line"/>
      <point x="513" y="517" type="line"/>
      <point x="493" y="517" type="line"/>
      <point x="392" y="10" type="line"/>
    </contour>
  </outline>
</glyph>
<glyph name="ereversed-cy" format="2">
  <advance width="564"/>
  <unicode hex="044D"/>
  <anchor x="303" y="517" name="top"/>
  <outline>
    <contour>
      <point x="170" y="255" type="line"/>
      <point x="489" y="255" type="line"/>
      <point x="493" y="273" type="line"/>
      <point x="174" y="273" type="line"/>
    </contour>
    <contour>
      <point x="282" y="520" type="curve" smooth="yes"/>
      <point x="206" y="520"/>
      <point x="129" y="494"/>
      <point x="81" y="452" type="curve"/>
      <point x="92" y="437" type="line"/>
      <point x="143" y="478"/>
      <point x="212" y="502"/>
      <point x="281" y="502" type="curve" smooth="yes"/>
      <point x="407" y="502"/>
      <point x="488" y="426"/>
      <point x="488" y="307" type="curve" smooth="yes"/>
      <point x="488" y="151"/>
      <point x="347" y="16"/>
      <point x="180" y="16" type="curve" smooth="yes"/>
      <point x="113" y="16"/>
      <point x="53" y="38"/>
      <point x="18" y="77" type="curve"/>
      <point x="5" y="65" type="line"/>
      <point x="39" y="24"/>
      <point x="108" y="-3"/>
      <point x="183" y="-3" type="curve" smooth="yes"/>
      <point x="357" y="-3"/>
      <point x="509" y="141"/>
      <point x="509" y="308" type="curve" smooth="yes"/>
      <point x="509" y="437"/>
      <point x="419" y="520"/>
    </contour>
  </outline>
</glyph>
<glyph name="ia-cy" format="2">
  <advance width="596"/>
  <unicode hex="044F"/>
  <outline>
    <contour>
      <point x="407" y="0" type="line"/>
      <point x="427" y="0" type="line"/>
      <point x="530" y="517" type="line"/>
      <point x="331" y="517" type="line" smooth="yes"/>
      <point x="182" y="517"/>
      <point x="90" y="445"/>
      <point x="90" y="328" type="curve" smooth="yes"/>
      <point x="90" y="235"/>
      <point x="148" y="188"/>
      <point x="261" y="188" type="curve" smooth="yes"/>
      <point x="453" y="188" type="line"/>
      <point x="446" y="196" type="line"/>
    </contour>
    <contour>
      <point x="23" y="0" type="line"/>
      <point x="48" y="0" type="line"/>
      <point x="233" y="200" type="line"/>
      <point x="208" y="200" type="line"/>
    </contour>
    <contour>
      <point x="447" y="199" type="line"/>
      <point x="456" y="206" type="line"/>
      <point x="261" y="206" type="line" smooth="yes"/>
      <point x="162" y="206"/>
      <point x="110" y="247"/>
      <point x="110" y="327" type="curve" smooth="yes"/>
      <point x="110" y="435"/>
      <point x="192" y="498"/>
      <point x="331" y="498" type="curve" smooth="yes"/>
      <point x="515" y="498" type="line"/>
      <point x="508" y="506" type="line"/>
    </contour>
  </outline>
</glyph>
<glyph name="dje-cy" format="2">
  <advance width="661"/>
  <unicode hex="0452"/>
  <anchor x="286" y="0" name="bottom"/>
  <anchor x="266" y="630" name="center"/>
  <anchor x="224" y="742" name="top"/>
  <anchor x="282" y="517" name="topright"/>
  <outline>
    <contour>
      <point x="348" y="-197" type="curve" smooth="yes"/>
      <point x="427" y="-197"/>
      <point x="481" y="-146"/>
      <point x="496" y="-70" type="curve" smooth="yes"/>
      <point x="571" y="305" type="line" smooth="yes"/>
      <point x="596" y="431"/>
      <point x="539" y="520"/>
      <point x="396" y="520" type="curve" smooth="yes"/>
      <point x="297" y="520"/>
      <point x="215" y="481"/>
      <point x="164" y="391" type="curve"/>
      <point x="234" y="742" type="line"/>
      <point x="214" y="742" type="line"/>
      <point x="66" y="0" type="line"/>
      <point x="86" y="0" type="line"/>
      <point x="143" y="287" type="line" smooth="yes"/>
      <point x="171" y="427"/>
      <point x="263" y="501"/>
      <point x="394" y="501" type="curve" smooth="yes"/>
      <point x="522" y="501"/>
      <point x="575" y="426"/>
      <point x="551" y="305" type="curve" smooth="yes"/>
      <point x="477" y="-65" type="line" smooth="yes"/>
      <point x="462" y="-138"/>
      <point x="418" y="-178"/>
      <point x="351" y="-178" type="curve" smooth="yes"/>
      <point x="315" y="-178"/>
      <point x="286" y="-167"/>
      <point x="268" y="-146" type="curve"/>
      <point x="252" y="-160" type="line"/>
      <point x="271" y="-185"/>
      <point x="308" y="-197"/>
    </contour>
    <contour>
      <point x="70" y="621" type="line"/>
      <point x="478" y="621" type="line"/>
      <point x="481" y="640" type="line"/>
      <point x="73" y="640" type="line"/>
    </contour>
  </outline>
</glyph>
<glyph name="dzhe-cy" format="2">
  <advance width="625"/>
  <unicode hex="045F"/>
  <outline>
    <contour>
      <point x="561" y="517" type="line"/>
      <point x="541" y="517" type="line"/>
      <point x="441" y="18" type="line"/>
      <point x="88" y="18" type="line"/>
      <point x="188" y="517" type="line"/>
      <point x="168" y="517" type="line"/>
      <point x="64" y="0" type="line"/>
      <point x="251" y="0" type="line"/>
      <point x="223" y="-134" type="line"/>
      <point x="243" y="-134" type="line"/>
      <point x="271" y="0" type="line"/>
      <point x="457" y="0" type="line"/>
    </contour>
  </outline>
</glyph>
<glyph name="Yat-cy" format="2">
  <advance width="784"/>
  <unicode hex="0462"/>
  <anchor x="290" y="590" name="center"/>
  <outline>
    <contour>
      <point x="163" y="0" type="line"/>
      <point x="417" y="0" type="line" smooth="yes"/>
      <point x="624" y="0"/>
      <point x="727" y="104"/>
      <point x="727" y="256" type="curve" smooth="yes"/>
      <point x="727" y="377"/>
      <point x="662" y="436"/>
      <point x="515" y="436" type="curve" smooth="yes"/>
      <point x="270" y="436" type="line"/>
      <point x="331" y="742" type="line"/>
      <point x="311" y="742" type="line"/>
    </contour>
    <contour>
      <point x="187" y="19" type="line"/>
      <point x="266" y="417" type="line"/>
      <point x="504" y="417" type="line" smooth="yes"/>
      <point x="648" y="417"/>
      <point x="707" y="365"/>
      <point x="707" y="254" type="curve" smooth="yes"/>
      <point x="707" y="114"/>
      <point x="613" y="19"/>
      <point x="425" y="19" type="curve" smooth="yes"/>
    </contour>
    <contour>
      <point x="82" y="580" type="line"/>
      <point x="530" y="580" type="line"/>
      <point x="534" y="599" type="line"/>
      <point x="86" y="599" type="line"/>
    </contour>
  </outline>
</glyph>
<glyph name="Izhitsa-cy" format="2">
  <advance width="722"/>
  <unicode hex="0474"/>
  <outline>
    <contour>
      <point x="267" y="0" type="line"/>
      <point x="287" y="0" type="line"/>
      <point x="587" y="535" type="line" smooth="yes"/>
      <point x="654" y="655"/>
      <point x="710" y="699"/>
      <point x="795" y="678" type="curve"/>
      <point x="802" y="697" type="line"/>
      <point x="705" y="720"/>
      <point x="643" y="673"/>
      <point x="570" y="543" type="curve" smooth="yes"/>
      <point x="281" y="28" type="line"/>
      <point x="138" y="700" type="line"/>
      <point x="115" y="700" type="line"/>
    </contour>
  </outline>
</glyph>
<glyph name="izhitsa-cy" format="2">
  <advance width="531"/>
  <unicode hex="0475"/>
  <outline>
    <contour>
      <point x="202" y="0" type="line"/>
      <point x="222" y="0" type="line"/>
      <point x="443" y="392" type="line" smooth="yes"/>
      <point x="500" y="494"/>
      <point x="520" y="509"/>
      <point x="577" y="494" type="curve"/>
      <point x="584" y="514" type="line"/>
      <point x="518" y="532"/>
      <point x="485" y="509"/>
      <point x="425" y="401" type="curve" smooth="yes"/>
      <point x="209" y="14" type="line"/>
      <point x="218" y="14" type="line"/>
      <point x="91" y="517" type="line"/>
      <point x="69" y="517" type="line"/>
    </contour>
  </outline>
</glyph>
<glyph name="Ertick-cy" format="2">
  <advance width="731"/>
  <unicode hex="048E"/>
  <outline>
    <contour>
      <point x="613" y="126" type="line"/>
      <point x="417" y="470" type="line"/>
      <point x="400" y="457" type="line"/>
      <point x="596" y="113" type="line"/>
    </contour>
    <component base="P" xOffset="4"/>
  </outline>
</glyph>
<glyph name="Gheupturn-cy" format="2">
  <advance width="561"/>
  <unicode hex="0490"/>
  <outline>
    <contour>
      <point x="85" y="0" type="line"/>
      <point x="105" y="0" type="line"/>
      <point x="241" y="681" type="line"/>
      <point x="637" y="681" type="line"/>
      <point x="670" y="845" type="line"/>
      <point x="650" y="845" type="line"/>
      <point x="621" y="700" type="line"/>
      <point x="225" y="700" type="line"/>
    </contour>
  </outline>
</glyph>
<glyph name="gheupturn-cy" format="2">
  <advance width="414"/>
  <unicode hex="0491"/>
  <outline>
    <contour>
      <point x="64" y="0" type="line"/>
      <point x="84" y="0" type="line"/>
      <point x="184" y="498" type="line"/>
      <point x="465" y="498" type="line"/>
      <point x="490" y="624" type="line"/>
      <point x="471" y="624" type="line"/>
      <point x="450" y="517" type="line"/>
      <point x="168" y="517" type="line"/>
    </contour>
  </outline>
</glyph>
<glyph name="Ghestroke-cy" format="2">
  <advance width="591"/>
  <unicode hex="0492"/>
  <outline>
    <contour>
      <point x="48" y="319" type="line"/>
      <point x="496" y="319" type="line"/>
      <point x="500" y="338" type="line"/>
      <point x="52" y="338" type="line"/>
    </contour>
    <component base="Ge-cy" xOffset="23"/>
  </outline>
</glyph>
<glyph name="Kastroke-cy" format="2">
  <advance width="719"/>
  <unicode hex="049E"/>
  <outline>
    <contour>
      <point x="82" y="575" type="line"/>
      <point x="432" y="575" type="line"/>
      <point x="436" y="594" type="line"/>
      <point x="86" y="594" type="line"/>
    </contour>
    <component base="Ka-cy" xOffset="36"/>
  </outline>
</glyph>
<glyph name="Kabashkir-cy" format="2">
  <advance width="803"/>
  <unicode hex="04A0"/>
  <anchor x="425" y="0" name="bottom"/>
  <anchor x="565" y="701" name="top"/>
  <outline>
    <contour>
      <point x="92" y="681" type="line"/>
      <point x="342" y="681" type="line"/>
      <point x="346" y="700" type="line"/>
      <point x="96" y="700" type="line"/>
    </contour>
    <contour>
      <point x="697" y="0" type="line"/>
      <point x="721" y="0" type="line"/>
      <point x="506" y="365" type="line"/>
      <point x="487" y="357" type="line"/>
    </contour>
    <contour>
      <point x="186" y="0" type="line"/>
      <point x="206" y="0" type="line"/>
      <point x="346" y="700" type="line"/>
      <point x="326" y="700" type="line"/>
    </contour>
    <contour>
      <point x="268" y="347" type="line"/>
      <point x="507" y="347" type="line"/>
      <point x="510" y="366" type="line"/>
      <point x="271" y="366" type="line"/>
    </contour>
    <contour>
      <point x="503" y="349" type="line"/>
      <point x="841" y="700" type="line"/>
      <point x="815" y="700" type="line"/>
      <point x="487" y="357" type="line"/>
    </contour>
  </outline>
</glyph>
<glyph name="haabkhasian-cy" format="2">
  <advance width="785"/>
  <unicode hex="04A9"/>
  <outline>
    <contour>
      <point x="328" y="-3" type="curve" smooth="yes"/>
      <point x="524" y="-3"/>
      <point x="701" y="155"/>
      <point x="701" y="331" type="curve" smooth="yes"/>
      <point x="701" y="445"/>
      <point x="625" y="520"/>
      <point x="513" y="520" type="curve" smooth="yes"/>
      <point x="383" y="520"/>
      <point x="287" y="416"/>
      <point x="287" y="271" type="curve" smooth="yes"/>
      <point x="287" y="72"/>
      <point x="460" y="-39"/>
      <point x="684" y="9" type="curve"/>
      <point x="680" y="29" type="line"/>
      <point x="468" y="-17"/>
      <point x="307" y="85"/>
      <point x="307" y="271" type="curve" smooth="yes"/>
      <point x="307" y="405"/>
      <point x="394" y="500"/>
      <point x="513" y="500" type="curve" smooth="yes"/>
      <point x="614" y="500"/>
      <point x="681" y="434"/>
      <point x="681" y="331" type="curve" smooth="yes"/>
      <point x="681" y="166"/>
      <point x="514" y="17"/>
      <point x="328" y="17" type="curve" smooth="yes"/>
      <point x="183" y="17"/>
      <point x="82" y="113"/>
      <point x="82" y="247" type="curve" smooth="yes"/>
      <point x="82" y="366"/>
      <point x="159" y="461"/>
      <point x="281" y="500" type="curve"/>
      <point x="275" y="520" type="line"/>
      <point x="145" y="478"/>
      <point x="62" y="375"/>
      <point x="62" y="247" type="curve" smooth="yes"/>
      <point x="62" y="102"/>
      <point x="172" y="-3"/>
    </contour>
  </outline>
</glyph>
<glyph name="tetse-cy" format="2">
  <advance width="729"/>
  <unicode hex="04B5"/>
  <outline>
    <contour>
      <point x="154" y="0" type="line"/>
      <point x="547" y="0" type="line"/>
      <point x="651" y="517" type="line"/>
      <point x="631" y="517" type="line"/>
      <point x="531" y="18" type="line"/>
      <point x="178" y="18" type="line"/>
      <point x="278" y="517" type="line"/>
      <point x="258" y="517" type="line"/>
    </contour>
    <contour>
      <point x="584" y="-121" type="line"/>
      <point x="604" y="-121" type="line"/>
      <point x="632" y="18" type="line"/>
      <point x="531" y="18" type="line"/>
      <point x="527" y="0" type="line"/>
      <point x="616" y="0" type="line"/>
      <point x="610" y="8" type="line"/>
    </contour>
    <contour>
      <point x="478" y="517" type="line"/>
      <point x="48" y="517" type="line"/>
      <point x="44" y="498" type="line"/>
      <point x="474" y="498" type="line"/>
    </contour>
  </outline>
</glyph>
<glyph name="Cheverticalstroke-cy" format="2">
  <advance width="719"/>
  <unicode hex="04B8"/>
  <outline>
    <contour>
      <point x="278" y="86" type="line"/>
      <point x="298" y="86" type="line"/>
      <point x="370" y="446" type="line"/>
      <point x="350" y="446" type="line"/>
    </contour>
    <component base="Che-cy"/>
  </outline>
</glyph>
<glyph name="Cheabkhasian-cy" format="2">
  <advance width="950"/>
  <unicode hex="04BC"/>
  <anchor x="506" y="0" name="bottom"/>
  <anchor x="643" y="703" name="top"/>
  <outline>
    <contour>
      <point x="522" y="-3" type="curve" smooth="yes"/>
      <point x="615" y="-3"/>
      <point x="708" y="30"/>
      <point x="789" y="93" type="curve"/>
      <point x="777" y="108" type="line"/>
      <point x="702" y="49"/>
      <point x="611" y="16"/>
      <point x="523" y="16" type="curve" smooth="yes"/>
      <point x="351" y="16"/>
      <point x="238" y="129"/>
      <point x="238" y="301" type="curve" smooth="yes"/>
      <point x="238" y="509"/>
      <point x="416" y="684"/>
      <point x="627" y="684" type="curve" smooth="yes"/>
      <point x="817" y="684"/>
      <point x="933" y="541"/>
      <point x="895" y="351" type="curve"/>
      <point x="905" y="353" type="line"/>
      <point x="198" y="353" type="line" smooth="yes"/>
      <point x="87" y="353"/>
      <point x="60" y="455"/>
      <point x="147" y="550" type="curve"/>
      <point x="131" y="561" type="line"/>
      <point x="36" y="454"/>
      <point x="69" y="334"/>
      <point x="195" y="334" type="curve" smooth="yes"/>
      <point x="912" y="333" type="line"/>
      <point x="958" y="544"/>
      <point x="835" y="703"/>
      <point x="627" y="703" type="curve" smooth="yes"/>
      <point x="405" y="703"/>
      <point x="218" y="520"/>
      <point x="218" y="301" type="curve" smooth="yes"/>
      <point x="218" y="117"/>
      <point x="338" y="-3"/>
    </contour>
  </outline>
</glyph>
<glyph name="cheabkhasian-cy" format="2">
  <advance width="719"/>
  <unicode hex="04BD"/>
  <anchor x="373" y="0" name="bottom"/>
  <anchor x="458" y="517" name="top"/>
  <outline>
    <contour>
      <point x="170" y="259" type="line"/>
      <point x="174" y="278" type="line"/>
      <point x="146" y="278" type="line" smooth="yes"/>
      <point x="54" y="278"/>
      <point x="43" y="353"/>
      <point x="103" y="418" type="curve"/>
      <point x="86" y="428" type="line"/>
      <point x="18" y="345"/>
      <point x="34" y="259"/>
      <point x="142" y="259" type="curve" smooth="yes"/>
    </contour>
    <contour>
      <point x="395" y="-3" type="curve" smooth="yes"/>
      <point x="483" y="-3"/>
      <point x="561" y="30"/>
      <point x="605" y="80" type="curve"/>
      <point x="592" y="93" type="line"/>
      <point x="549" y="45"/>
      <point x="478" y="16"/>
      <point x="397" y="16" type="curve" smooth="yes"/>
      <point x="255" y="16"/>
      <point x="178" y="85"/>
      <point x="178" y="210" type="curve" smooth="yes"/>
      <point x="178" y="377"/>
      <point x="292" y="501"/>
      <point x="445" y="501" type="curve" smooth="yes"/>
      <point x="578" y="501"/>
      <point x="666" y="418"/>
      <point x="642" y="267" type="curve"/>
      <point x="651" y="278" type="line"/>
      <point x="179" y="278" type="line"/>
      <point x="175" y="259" type="line"/>
      <point x="660" y="259" type="line"/>
      <point x="663" y="274"/>
      <point x="665" y="292"/>
      <point x="665" y="310" type="curve" smooth="yes"/>
      <point x="665" y="441"/>
      <point x="582" y="520"/>
      <point x="446" y="520" type="curve" smooth="yes"/>
      <point x="280" y="520"/>
      <point x="158" y="386"/>
      <point x="158" y="210" type="curve" smooth="yes"/>
      <point x="158" y="74"/>
      <point x="247" y="-3"/>
    </contour>
  </outline>
</glyph>
<glyph name="Kahook-cy" format="2">
  <advance width="678"/>
  <unicode hex="04C3"/>
  <guideline x="306" y="-197" angle="0"/>
  <guideline x="583" y="361" angle="90"/>
  <outline>
    <contour>
      <point x="427" y="-196" type="curve" smooth="yes"/>
      <point x="515" y="-196"/>
      <point x="574" y="-125"/>
      <point x="574" y="-20" type="curve" smooth="yes"/>
      <point x="574" y="95"/>
      <point x="498" y="236"/>
      <point x="368" y="364" type="curve"/>
      <point x="354" y="350" type="line"/>
      <point x="480" y="226"/>
      <point x="554" y="89"/>
      <point x="554" y="-20" type="curve" smooth="yes"/>
      <point x="554" y="-114"/>
      <point x="503" y="-176"/>
      <point x="427" y="-176" type="curve" smooth="yes"/>
      <point x="398" y="-176"/>
      <point x="371" y="-168"/>
      <point x="339" y="-149" type="curve"/>
      <point x="329" y="-167" type="line"/>
      <point x="364" y="-187"/>
      <point x="394" y="-196"/>
    </contour>
    <contour>
      <point x="85" y="0" type="line"/>
      <point x="105" y="0" type="line"/>
      <point x="245" y="700" type="line"/>
      <point x="225" y="700" type="line"/>
    </contour>
    <contour>
      <point x="167" y="347" type="line"/>
      <point x="371" y="347" type="line"/>
      <point x="374" y="366" type="line"/>
      <point x="170" y="366" type="line"/>
    </contour>
    <contour>
      <point x="367" y="349" type="line"/>
      <point x="725" y="700" type="line"/>
      <point x="699" y="700" type="line"/>
      <point x="349" y="357" type="line"/>
    </contour>
  </outline>
</glyph>
<glyph name="kahook-cy" format="2">
  <advance width="542"/>
  <unicode hex="04C4"/>
  <guideline x="461" y="361" angle="90"/>
  <outline>
    <contour>
      <point x="308" y="-196" type="curve" smooth="yes"/>
      <point x="395" y="-196"/>
      <point x="453" y="-132"/>
      <point x="453" y="-37" type="curve" smooth="yes"/>
      <point x="453" y="56"/>
      <point x="395" y="160"/>
      <point x="280" y="274" type="curve"/>
      <point x="266" y="260" type="line"/>
      <point x="377" y="150"/>
      <point x="433" y="50"/>
      <point x="433" y="-37" type="curve" smooth="yes"/>
      <point x="433" y="-122"/>
      <point x="384" y="-176"/>
      <point x="308" y="-176" type="curve" smooth="yes"/>
      <point x="279" y="-176"/>
      <point x="247" y="-168"/>
      <point x="215" y="-152" type="curve"/>
      <point x="207" y="-170" type="line"/>
      <point x="240" y="-187"/>
      <point x="276" y="-196"/>
    </contour>
    <contour>
      <point x="65" y="0" type="line"/>
      <point x="85" y="0" type="line"/>
      <point x="188" y="517" type="line"/>
      <point x="168" y="517" type="line"/>
    </contour>
    <contour>
      <point x="129" y="254" type="line"/>
      <point x="286" y="254" type="line"/>
      <point x="289" y="272" type="line"/>
      <point x="132" y="272" type="line"/>
    </contour>
    <contour>
      <point x="284" y="257" type="line"/>
      <point x="563" y="517" type="line"/>
      <point x="535" y="517" type="line"/>
      <point x="262" y="263" type="line"/>
    </contour>
  </outline>
</glyph>
<glyph name="enhook-cy" format="2">
  <advance width="672"/>
  <unicode hex="04C8"/>
  <outline>
    <contour>
      <point x="343" y="-197" type="curve" smooth="yes"/>
      <point x="422" y="-197"/>
      <point x="475" y="-146"/>
      <point x="490" y="-70" type="curve"/>
      <point x="607" y="517" type="line"/>
      <point x="587" y="517" type="line"/>
      <point x="538" y="270" type="line"/>
      <point x="139" y="270" type="line"/>
      <point x="188" y="517" type="line"/>
      <point x="168" y="517" type="line"/>
      <point x="65" y="0" type="line"/>
      <point x="85" y="0" type="line"/>
      <point x="135" y="252" type="line"/>
      <point x="534" y="252" type="line"/>
      <point x="471" y="-65" type="line" smooth="yes"/>
      <point x="456" y="-138"/>
      <point x="412" y="-178"/>
      <point x="345" y="-178" type="curve" smooth="yes"/>
      <point x="309" y="-178"/>
      <point x="281" y="-167"/>
      <point x="263" y="-146" type="curve"/>
      <point x="246" y="-160" type="line"/>
      <point x="265" y="-185"/>
      <point x="303" y="-197"/>
    </contour>
  </outline>
</glyph>
<glyph name="Chekhakassian-cy" format="2">
  <advance width="719"/>
  <unicode hex="04CB"/>
  <outline>
    <contour>
      <point x="312" y="255" type="curve" smooth="yes"/>
      <point x="391" y="255"/>
      <point x="486" y="277"/>
      <point x="583" y="319" type="curve"/>
      <point x="588" y="340" type="line"/>
      <point x="486" y="297"/>
      <point x="390" y="274"/>
      <point x="312" y="274" type="curve" smooth="yes"/>
      <point x="174" y="274"/>
      <point x="106" y="344"/>
      <point x="130" y="461" type="curve" smooth="yes"/>
      <point x="177" y="700" type="line"/>
      <point x="157" y="700" type="line"/>
      <point x="110" y="463" type="line" smooth="yes"/>
      <point x="84" y="334"/>
      <point x="160" y="255"/>
    </contour>
    <contour>
      <point x="360" y="-165" type="line"/>
      <point x="380" y="-165" type="line"/>
      <point x="415" y="9" type="line"/>
      <point x="404" y="0" type="line"/>
      <point x="530" y="0" type="line"/>
      <point x="534" y="19" type="line"/>
      <point x="397" y="19" type="line"/>
    </contour>
    <contour>
      <point x="510" y="0" type="line"/>
      <point x="530" y="0" type="line"/>
      <point x="670" y="700" type="line"/>
      <point x="650" y="700" type="line"/>
    </contour>
  </outline>
</glyph>
<glyph name="palochka-cy" format="2">
  <advance width="256"/>
  <unicode hex="04CF"/>
  <anchor x="76" y="0" name="bottom"/>
  <anchor x="146" y="350" name="center"/>
  <anchor x="272" y="350" name="dot"/>
  <anchor x="224" y="742" name="top"/>
  <anchor x="334" y="742" name="topright"/>
  <outline>
    <contour>
      <point x="66" y="0" type="line"/>
      <point x="86" y="0" type="line"/>
      <point x="234" y="742" type="line"/>
      <point x="214" y="742" type="line"/>
    </contour>
  </outline>
</glyph>
<glyph name="Dzeabkhasian-cy" format="2">
  <advance width="576"/>
  <unicode hex="04E0"/>
  <outline>
    <contour>
      <point x="232" y="-3" type="curve" smooth="yes"/>
      <point x="392" y="-3"/>
      <point x="497" y="85"/>
      <point x="497" y="216" type="curve" smooth="yes"/>
      <point x="497" y="325"/>
      <point x="422" y="387"/>
      <point x="277" y="387" type="curve" smooth="yes"/>
      <point x="272" y="387" type="line"/>
      <point x="275" y="380" type="line"/>
      <point x="566" y="685" type="line"/>
      <point x="569" y="700" type="line"/>
      <point x="146" y="700" type="line"/>
      <point x="142" y="681" type="line"/>
      <point x="545" y="681" type="line"/>
      <point x="542" y="687" type="line"/>
      <point x="252" y="383" type="line"/>
      <point x="249" y="368" type="line"/>
      <point x="277" y="368" type="line" smooth="yes"/>
      <point x="413" y="368"/>
      <point x="477" y="314"/>
      <point x="477" y="216" type="curve" smooth="yes"/>
      <point x="477" y="96"/>
      <point x="383" y="16"/>
      <point x="233" y="16" type="curve" smooth="yes"/>
      <point x="126" y="16"/>
      <point x="50" y="56"/>
      <point x="19" y="109" type="curve"/>
      <point x="2" y="96" type="line"/>
      <point x="36" y="38"/>
      <point x="122" y="-3"/>
    </contour>
  </outline>
</glyph>
<glyph name="obarred-cy" format="2">
  <advance width="647"/>
  <unicode hex="04E9"/>
  <anchor x="374" y="517" name="top"/>
  <outline>
    <contour>
      <point x="74" y="250" type="line"/>
      <point x="574" y="250" type="line"/>
      <point x="574" y="269" type="line"/>
      <point x="74" y="269" type="line"/>
    </contour>
    <contour>
      <point x="287" y="-3" type="curve" smooth="yes"/>
      <point x="464" y="-3"/>
      <point x="586" y="130"/>
      <point x="586" y="310" type="curve" smooth="yes"/>
      <point x="586" y="439"/>
      <point x="501" y="520"/>
      <point x="359" y="520" type="curve" smooth="yes"/>
      <point x="182" y="520"/>
      <point x="60" y="386"/>
      <point x="60" y="207" type="curve" smooth="yes"/>
      <point x="60" y="78"/>
      <point x="145" y="-3"/>
    </contour>
    <contour>
      <point x="290" y="16" type="curve" smooth="yes"/>
      <point x="155" y="16"/>
      <point x="80" y="86"/>
      <point x="80" y="208" type="curve" smooth="yes"/>
      <point x="80" y="376"/>
      <point x="194" y="501"/>
      <point x="356" y="501" type="curve" smooth="yes"/>
      <point x="491" y="501"/>
      <point x="566" y="431"/>
      <point x="566" y="309" type="curve" smooth="yes"/>
      <point x="566" y="140"/>
      <point x="452" y="16"/>
    </contour>
  </outline>
</glyph>
<glyph name="Gestrokehook-cy" format="2">
  <advance width="590"/>
  <unicode hex="04FA"/>
  <anchor x="445" y="700" name="top"/>
  <outline>
    <contour>
      <point x="104" y="0" type="line"/>
      <point x="124" y="0" type="line"/>
      <point x="260" y="681" type="line"/>
      <point x="656" y="681" type="line"/>
      <point x="660" y="700" type="line"/>
      <point x="244" y="700" type="line"/>
    </contour>
    <contour>
      <point x="80" y="-197" type="curve" smooth="yes"/>
      <point x="159" y="-197"/>
      <point x="212" y="-146"/>
      <point x="227" y="-70" type="curve" smooth="yes"/>
      <point x="245" y="19" type="line"/>
      <point x="108" y="19" type="line"/>
      <point x="104" y="0" type="line"/>
      <point x="229" y="0" type="line"/>
      <point x="223" y="8" type="line"/>
      <point x="208" y="-65" type="line" smooth="yes"/>
      <point x="193" y="-138"/>
      <point x="149" y="-178"/>
      <point x="82" y="-178" type="curve" smooth="yes"/>
      <point x="46" y="-178"/>
      <point x="18" y="-167"/>
      <point x="0" y="-146" type="curve"/>
      <point x="-17" y="-160" type="line"/>
      <point x="2" y="-185"/>
      <point x="40" y="-197"/>
    </contour>
    <contour>
      <point x="58" y="319" type="line"/>
      <point x="506" y="319" type="line"/>
      <point x="510" y="338" type="line"/>
      <point x="62" y="338" type="line"/>
    </contour>
  </outline>
</glyph>
<glyph name="Hahook-cy" format="2">
  <advance width="622"/>
  <unicode hex="04FC"/>
  <guideline x="546" y="626" angle="90"/>
  <guideline x="307" y="-197" angle="0"/>
  <outline>
    <contour>
      <point x="-20" y="0" type="line"/>
      <point x="4" y="0" type="line"/>
      <point x="671" y="700" type="line"/>
      <point x="647" y="700" type="line"/>
      <point x="340" y="378" type="line"/>
      <point x="161" y="700" type="line"/>
      <point x="140" y="700" type="line"/>
      <point x="327" y="365" type="line"/>
    </contour>
    <contour>
      <point x="371" y="-197" type="curve" smooth="yes"/>
      <point x="459" y="-197"/>
      <point x="523" y="-130"/>
      <point x="523" y="-38" type="curve" smooth="yes"/>
      <point x="523" y="37"/>
      <point x="495" y="101"/>
      <point x="346" y="367" type="curve"/>
      <point x="331" y="353" type="line"/>
      <point x="476" y="92"/>
      <point x="503" y="31"/>
      <point x="503" y="-40" type="curve" smooth="yes"/>
      <point x="503" y="-121"/>
      <point x="450" y="-177"/>
      <point x="375" y="-177" type="curve" smooth="yes"/>
      <point x="346" y="-177"/>
      <point x="317" y="-168"/>
      <point x="290" y="-150" type="curve"/>
      <point x="276" y="-168" type="line"/>
      <point x="306" y="-187"/>
      <point x="338" y="-197"/>
    </contour>
  </outline>
</glyph>
<glyph name="Reversedze-cy" format="2">
  <advance width="642"/>
  <unicode hex="0510"/>
  <outline>
    <contour>
      <point x="298" y="-3" type="curve" smooth="yes"/>
      <point x="415" y="-3"/>
      <point x="519" y="33"/>
      <point x="574" y="91" type="curve"/>
      <point x="560" y="106" type="line"/>
      <point x="507" y="50"/>
      <point x="411" y="16"/>
      <point x="298" y="16" type="curve" smooth="yes"/>
      <point x="162" y="16"/>
      <point x="85" y="66"/>
      <point x="85" y="167" type="curve" smooth="yes"/>
      <point x="85" y="281"/>
      <point x="183" y="356"/>
      <point x="340" y="356" type="curve" smooth="yes"/>
      <point x="483" y="356" type="line"/>
      <point x="487" y="375" type="line"/>
      <point x="343" y="375" type="line" smooth="yes"/>
      <point x="242" y="375"/>
      <point x="182" y="423"/>
      <point x="182" y="508" type="curve" smooth="yes"/>
      <point x="182" y="619"/>
      <point x="283" y="684"/>
      <point x="432" y="684" type="curve" smooth="yes"/>
      <point x="513" y="684"/>
      <point x="578" y="666"/>
      <point x="636" y="627" type="curve"/>
      <point x="648" y="644" type="line"/>
      <point x="592" y="683"/>
      <point x="517" y="703"/>
      <point x="433" y="703" type="curve" smooth="yes"/>
      <point x="272" y="703"/>
      <point x="163" y="630"/>
      <point x="163" y="508" type="curve" smooth="yes"/>
      <point x="163" y="414"/>
      <point x="228" y="359"/>
      <point x="333" y="359" type="curve"/>
      <point x="331" y="372" type="line"/>
      <point x="170" y="372"/>
      <point x="65" y="290"/>
      <point x="65" y="166" type="curve" smooth="yes"/>
      <point x="65" y="54"/>
      <point x="151" y="-3"/>
    </contour>
  </outline>
</glyph>
<glyph name="Elhook-cy" format="2">
  <advance width="775"/>
  <unicode hex="0512"/>
  <outline>
    <contour>
      <point x="329" y="-159" type="line"/>
      <point x="396" y="-228"/>
      <point x="546" y="-203"/>
      <point x="570" y="-81" type="curve" smooth="yes"/>
      <point x="726" y="700" type="line"/>
      <point x="290" y="700" type="line"/>
      <point x="217" y="391" type="line" smooth="yes"/>
      <point x="152" y="116"/>
      <point x="90" y="15"/>
      <point x="-4" y="15" type="curve" smooth="yes"/>
      <point x="-15" y="15"/>
      <point x="-24" y="16"/>
      <point x="-38" y="19" type="curve"/>
      <point x="-44" y="0" type="line"/>
      <point x="-29" y="-4"/>
      <point x="-18" y="-5"/>
      <point x="-3" y="-5" type="curve" smooth="yes"/>
      <point x="101" y="-5"/>
      <point x="170" y="104"/>
      <point x="237" y="388" type="curve" smooth="yes"/>
      <point x="306" y="681" type="line"/>
      <point x="702" y="681" type="line"/>
      <point x="552" y="-74" type="line" smooth="yes"/>
      <point x="530" y="-182"/>
      <point x="409" y="-205"/>
      <point x="344" y="-146" type="curve"/>
    </contour>
  </outline>
</glyph>
<glyph name="We-cy" format="2">
  <advance width="1044"/>
  <unicode hex="051C"/>
  <outline>
    <contour>
      <point x="222" y="0" type="line"/>
      <point x="242" y="0" type="line"/>
      <point x="609" y="678" type="line"/>
      <point x="605" y="678" type="line"/>
      <point x="702" y="0" type="line"/>
      <point x="722" y="0" type="line"/>
      <point x="1096" y="700" type="line"/>
      <point x="1075" y="700" type="line"/>
      <point x="709" y="16" type="line"/>
      <point x="719" y="16" type="line"/>
      <point x="621" y="700" type="line"/>
      <point x="601" y="700" type="line"/>
      <point x="229" y="16" type="line"/>
      <point x="240" y="16" type="line"/>
      <point x="146" y="700" type="line"/>
      <point x="124" y="700" type="line"/>
    </contour>
  </outline>
</glyph>
<glyph name="Eldescender-cy" format="2">
  <advance width="792"/>
  <unicode hex="052E"/>
  <anchor x="566" y="0" name="#exit"/>
  <anchor x="566" y="0" name="bottomleft"/>
  <outline>
    <contour>
      <point x="-3" y="-5" type="curve" smooth="yes"/>
      <point x="101" y="-5"/>
      <point x="169" y="104"/>
      <point x="237" y="388" type="curve" smooth="yes"/>
      <point x="308" y="690" type="line"/>
      <point x="297" y="681" type="line"/>
      <point x="711" y="681" type="line"/>
      <point x="704" y="690" type="line"/>
      <point x="566" y="0" type="line"/>
      <point x="586" y="0" type="line"/>
      <point x="726" y="700" type="line"/>
      <point x="290" y="700" type="line"/>
      <point x="217" y="391" type="line" smooth="yes"/>
      <point x="152" y="116"/>
      <point x="90" y="15"/>
      <point x="-4" y="15" type="curve" smooth="yes"/>
      <point x="-15" y="15"/>
      <point x="-24" y="16"/>
      <point x="-38" y="19" type="curve"/>
      <point x="-44" y="0" type="line"/>
      <point x="-29" y="-4"/>
      <point x="-18" y="-5"/>
    </contour>
    <contour>
      <point x="650" y="-165" type="line"/>
      <point x="670" y="-165" type="line"/>
      <point x="706" y="19" type="line"/>
      <point x="571" y="19" type="line"/>
      <point x="566" y="0" type="line"/>
      <point x="692" y="0" type="line"/>
      <point x="684" y="9" type="line"/>
    </contour>
  </outline>
</glyph>
<glyph name="dagger" format="2">
  <advance width="520"/>
  <unicode hex="2020"/>
  <outline>
    <contour>
      <point x="159" y="-194" type="line"/>
      <point x="179" y="-194" type="line"/>
      <point x="300" y="410" type="line"/>
      <point x="520" y="410" type="line"/>
      <point x="524" y="429" type="line"/>
      <point x="304" y="429" type="line"/>
      <point x="358" y="700" type="line"/>
      <point x="338" y="700" type="line"/>
      <point x="284" y="429" type="line"/>
      <point x="64" y="429" type="line"/>
      <point x="60" y="410" type="line"/>
      <point x="280" y="410" type="line"/>
    </contour>
  </outline>
</glyph>
<glyph name="second" format="2">
  <advance width="334"/>
  <unicode hex="2033"/>
  <outline>
    <contour>
      <point x="121" y="450" type="line"/>
      <point x="139" y="450" type="line"/>
      <point x="191" y="700" type="line"/>
      <point x="169" y="700" type="line"/>
    </contour>
    <contour>
      <point x="271" y="450" type="line"/>
      <point x="289" y="450" type="line"/>
      <point x="341" y="700" type="line"/>
      <point x="319" y="700" type="line"/>
    </contour>
  </outline>
</glyph>
<glyph name="franc" format="2">
  <advance width="636"/>
  <unicode hex="20A3"/>
  <outline>
    <contour>
      <point x="9" y="157" type="line"/>
      <point x="369" y="157" type="line"/>
      <point x="373" y="175" type="line"/>
      <point x="13" y="175" type="line"/>
    </contour>
    <contour>
      <point x="172" y="345" type="line"/>
      <point x="168" y="326" type="line"/>
      <point x="559" y="326" type="line"/>
      <point x="563" y="345" type="line"/>
    </contour>
    <contour>
      <point x="108" y="0" type="line"/>
      <point x="244" y="681" type="line"/>
      <point x="675" y="681" type="line"/>
      <point x="679" y="700" type="line"/>
      <point x="228" y="700" type="line"/>
      <point x="88" y="0" type="line"/>
    </contour>
  </outline>
</glyph>
<glyph name="lira" format="2">
  <advance width="618"/>
  <unicode hex="20A4"/>
  <outline>
    <contour>
      <point x="-22" y="0" type="line"/>
      <point x="538" y="0" type="line"/>
      <point x="542" y="19" type="line"/>
      <point x="-18" y="19" type="line"/>
    </contour>
    <contour>
      <point x="100" y="10" type="line"/>
      <point x="120" y="10" type="line"/>
      <point x="214" y="479" type="line" smooth="yes"/>
      <point x="242" y="619"/>
      <point x="332" y="684"/>
      <point x="478" y="684" type="curve" smooth="yes"/>
      <point x="554" y="684"/>
      <point x="616" y="667"/>
      <point x="659" y="626" type="curve"/>
      <point x="674" y="642" type="line"/>
      <point x="630" y="684"/>
      <point x="558" y="703"/>
      <point x="478" y="703" type="curve" smooth="yes"/>
      <point x="325" y="703"/>
      <point x="224" y="631"/>
      <point x="194" y="482" type="curve" smooth="yes"/>
    </contour>
    <contour>
      <point x="32" y="272" type="line"/>
      <point x="471" y="272" type="line"/>
      <point x="475" y="290" type="line"/>
      <point x="36" y="290" type="line"/>
    </contour>
    <contour>
      <point x="60" y="410" type="line"/>
      <point x="499" y="410" type="line"/>
      <point x="503" y="428" type="line"/>
      <point x="64" y="428" type="line"/>
    </contour>
  </outline>
</glyph>
<glyph name="euro" format="2">
  <advance width="792"/>
  <unicode hex="20AC"/>
  <guideline x="371" y="361" angle="90"/>
  <outline>
    <contour>
      <point x="32" y="272" type="line"/>
      <point x="566" y="272" type="line"/>
      <point x="570" y="290" type="line"/>
      <point x="36" y="290" type="line"/>
    </contour>
    <contour>
      <point x="60" y="410" type="line"/>
      <point x="594" y="410" type="line"/>
      <point x="598" y="428" type="line"/>
      <point x="64" y="428" type="line"/>
    </contour>
    <contour>
      <point x="467" y="-3" type="curve" smooth="yes"/>
      <point x="572" y="-3"/>
      <point x="667" y="32"/>
      <point x="725" y="86" type="curve"/>
      <point x="713" y="102" type="line"/>
      <point x="654" y="47"/>
      <point x="572" y="16"/>
      <point x="469" y="16" type="curve" smooth="yes"/>
      <point x="273" y="16"/>
      <point x="172" y="123"/>
      <point x="172" y="280" type="curve" smooth="yes"/>
      <point x="172" y="499"/>
      <point x="327" y="684"/>
      <point x="571" y="684" type="curve" smooth="yes"/>
      <point x="672" y="684"/>
      <point x="746" y="656"/>
      <point x="794" y="602" type="curve"/>
      <point x="808" y="615" type="line"/>
      <point x="761" y="671"/>
      <point x="678" y="703"/>
      <point x="573" y="703" type="curve" smooth="yes"/>
      <point x="310" y="703"/>
      <point x="152" y="504"/>
      <point x="152" y="280" type="curve" smooth="yes"/>
      <point x="152" y="111"/>
      <point x="263" y="-3"/>
    </contour>
  </outline>
</glyph>
<glyph name="manat" format="2">
  <advance width="924"/>
  <unicode hex="20BC"/>
  <outline>
    <contour>
      <point x="81" y="0" type="line"/>
      <point x="101" y="0" type="line"/>
      <point x="158" y="285" type="line" smooth="yes"/>
      <point x="214" y="567"/>
      <point x="363" y="684"/>
      <point x="547" y="684" type="curve" smooth="yes"/>
      <point x="731" y="684"/>
      <point x="832" y="566"/>
      <point x="776" y="285" type="curve" smooth="yes"/>
      <point x="719" y="0" type="line"/>
      <point x="739" y="0" type="line"/>
      <point x="796" y="285" type="line" smooth="yes"/>
      <point x="853" y="574"/>
      <point x="742" y="703"/>
      <point x="546" y="703" type="curve" smooth="yes"/>
      <point x="350" y="703"/>
      <point x="196" y="574"/>
      <point x="139" y="290" type="curve" smooth="yes"/>
    </contour>
    <contour>
      <point x="425" y="120" type="line"/>
      <point x="444" y="120" type="line"/>
      <point x="584" y="820" type="line"/>
      <point x="565" y="820" type="line"/>
    </contour>
  </outline>
</glyph>
<glyph name="numero" format="2">
  <advance width="1190"/>
  <unicode hex="2116"/>
  <outline>
    <contour>
      <point x="81" y="0" type="line"/>
      <point x="101" y="0" type="line"/>
      <point x="236" y="675" type="line"/>
      <point x="228" y="677" type="line"/>
      <point x="614" y="0" type="line"/>
      <point x="631" y="0" type="line"/>
      <point x="771" y="700" type="line"/>
      <point x="751" y="700" type="line"/>
      <point x="616" y="25" type="line"/>
      <point x="624" y="23" type="line"/>
      <point x="238" y="700" type="line"/>
      <point x="221" y="700" type="line"/>
    </contour>
    <contour>
      <point x="820" y="272" type="line"/>
      <point x="1106" y="272" type="line"/>
      <point x="1110" y="291" type="line"/>
      <point x="824" y="291" type="line"/>
    </contour>
    <contour>
      <point x="997" y="391" type="curve" smooth="yes"/>
      <point x="1106" y="391"/>
      <point x="1184" y="470"/>
      <point x="1184" y="571" type="curve" smooth="yes"/>
      <point x="1184" y="651"/>
      <point x="1127" y="703"/>
      <point x="1042" y="703" type="curve" smooth="yes"/>
      <point x="932" y="703"/>
      <point x="854" y="624"/>
      <point x="854" y="523" type="curve" smooth="yes"/>
      <point x="854" y="443"/>
      <point x="911" y="391"/>
    </contour>
    <contour>
      <point x="999" y="409" type="curve" smooth="yes"/>
      <point x="924" y="409"/>
      <point x="873" y="454"/>
      <point x="873" y="523" type="curve" smooth="yes"/>
      <point x="873" y="612"/>
      <point x="942" y="685"/>
      <point x="1040" y="685" type="curve" smooth="yes"/>
      <point x="1114" y="685"/>
      <point x="1165" y="640"/>
      <point x="1165" y="571" type="curve" smooth="yes"/>
      <point x="1165" y="482"/>
      <point x="1096" y="409"/>
    </contour>
  </outline>
</glyph>
<glyph name="lessequal" format="2">
  <advance width="560"/>
  <unicode hex="2264"/>
  <outline>
    <contour>
      <point x="466" y="168" type="line"/>
      <point x="470" y="188" type="line"/>
      <point x="105" y="353" type="line"/>
      <point x="103" y="345" type="line"/>
      <point x="533" y="509" type="line"/>
      <point x="538" y="532" type="line"/>
      <point x="94" y="361" type="line"/>
      <point x="90" y="339" type="line"/>
    </contour>
    <contour>
      <point x="23" y="0" type="line"/>
      <point x="433" y="0" type="line"/>
      <point x="437" y="19" type="line"/>
      <point x="27" y="19" type="line"/>
    </contour>
  </outline>
</glyph>
<glyph name="whiteSquare" format="2">
  <advance width="600"/>
  <unicode hex="25A1"/>
  <outline>
    <contour>
      <point x="106" y="71" type="line"/>
      <point x="494" y="71" type="line"/>
      <point x="494" y="459" type="line"/>
      <point x="106" y="459" type="line"/>
    </contour>
    <contour>
      <point x="126" y="91" type="line"/>
      <point x="126" y="439" type="line"/>
      <point x="474" y="439" type="line"/>
      <point x="474" y="91" type="line"/>
    </contour>
  </outline>
</glyph>
<glyph name="upWhiteTriangle" format="2">
  <advance width="600"/>
  <unicode hex="25B3"/>
  <outline>
    <contour>
      <point x="87" y="52" type="line"/>
      <point x="513" y="52" type="line"/>
      <point x="300" y="478" type="line"/>
    </contour>
    <contour>
      <point x="119" y="72" type="line"/>
      <point x="300" y="433" type="line"/>
      <point x="481" y="72" type="line"/>
    </contour>
  </outline>
</glyph>
<glyph name="whiteDiamond" format="2">
  <advance width="600"/>
  <unicode hex="25C7"/>
  <outline>
    <contour>
      <point x="25" y="265" type="line"/>
      <point x="300" y="-9" type="line"/>
      <point x="574" y="265" type="line"/>
      <point x="300" y="540" type="line"/>
    </contour>
    <contour>
      <point x="53" y="265" type="line"/>
      <point x="300" y="511" type="line"/>
      <point x="546" y="265" type="line"/>
      <point x="300" y="19" type="line"/>
    </contour>
  </outline>
</glyph>
<glyph name="saltillo" format="2">
  <advance width="209"/>
  <unicode hex="A78C"/>
  <outline>
    <contour>
      <point x="102" y="298" type="line"/>
      <point x="122" y="298" type="line"/>
      <point x="189" y="633" type="line"/>
      <point x="169" y="633" type="line"/>
    </contour>
  </outline>
</glyph>
<glyph name="A.ss01" format="2">
  <advance width="804"/>
  <anchor x="350" y="0" name="bottom"/>
  <anchor x="625" y="0" name="ogonek"/>
  <anchor x="490" y="700" name="top"/>
  <anchor x="179" y="700" name="topleft"/>
  <outline>
    <contour>
      <point x="76" y="0" type="line"/>
      <point x="96" y="0" type="line"/>
      <point x="177" y="406" type="line" smooth="yes"/>
      <point x="214" y="594"/>
      <point x="311" y="684"/>
      <point x="477" y="684" type="curve" smooth="yes"/>
      <point x="644" y="684"/>
      <point x="722" y="585"/>
      <point x="686" y="405" type="curve" smooth="yes"/>
      <point x="605" y="0" type="line"/>
      <point x="625" y="0" type="line"/>
      <point x="706" y="407" type="line" smooth="yes"/>
      <point x="743" y="593"/>
      <point x="657" y="703"/>
      <point x="477" y="703" type="curve" smooth="yes"/>
      <point x="302" y="703"/>
      <point x="197" y="608"/>
      <point x="157" y="408" type="curve" smooth="yes"/>
    </contour>
    <contour>
      <point x="136" y="231" type="line"/>
      <point x="662" y="231" type="line"/>
      <point x="666" y="250" type="line"/>
      <point x="140" y="250" type="line"/>
    </contour>
  </outline>
</glyph>
<glyph name="AE.ss01" format="2">
  <advance width="1059"/>
  <anchor x="472" y="0" name="bottom"/>
  <anchor x="612" y="700" name="top"/>
  <outline>
    <contour>
      <point x="499" y="0" type="line"/>
      <point x="965" y="0" type="line"/>
      <point x="969" y="19" type="line"/>
      <point x="523" y="19" type="line"/>
      <point x="588" y="346" type="line"/>
      <point x="974" y="346" type="line"/>
      <point x="978" y="365" type="line"/>
      <point x="592" y="365" type="line"/>
      <point x="655" y="681" type="line"/>
      <point x="1086" y="681" type="line"/>
      <point x="1090" y="700" type="line"/>
      <point x="639" y="700" type="line"/>
    </contour>
    <contour>
      <point x="126" y="241" type="line"/>
      <point x="558" y="241" type="line"/>
      <point x="561" y="260" type="line"/>
      <point x="129" y="260" type="line"/>
    </contour>
    <contour>
      <point x="63" y="0" type="line"/>
      <point x="83" y="0" type="line"/>
      <point x="164" y="404" type="line" smooth="yes"/>
      <point x="199" y="580"/>
      <point x="308" y="681"/>
      <point x="465" y="681" type="curve" smooth="yes"/>
      <point x="645" y="681" type="line"/>
      <point x="649" y="700" type="line"/>
      <point x="467" y="700" type="line" smooth="yes"/>
      <point x="299" y="700"/>
      <point x="182" y="593"/>
      <point x="144" y="406" type="curve" smooth="yes"/>
    </contour>
  </outline>
</glyph>
<glyph name="Adieresis.alt" format="2">
  <advance width="688"/>
  <outline>
    <contour>
      <point x="-43" y="0" type="line"/>
      <point x="-19" y="0" type="line"/>
      <point x="435" y="684" type="line"/>
      <point x="426" y="684" type="line"/>
      <point x="606" y="0" type="line"/>
      <point x="627" y="0" type="line"/>
      <point x="442" y="700" type="line"/>
      <point x="422" y="700" type="line"/>
    </contour>
    <contour>
      <point x="106" y="211" type="line"/>
      <point x="561" y="211" type="line"/>
      <point x="555" y="230" type="line"/>
      <point x="120" y="230" type="line"/>
    </contour>
    <contour>
      <point x="294" y="651" type="curve" smooth="yes"/>
      <point x="309" y="651"/>
      <point x="321" y="664"/>
      <point x="321" y="679" type="curve" smooth="yes"/>
      <point x="321" y="692"/>
      <point x="309" y="703"/>
      <point x="296" y="703" type="curve" smooth="yes"/>
      <point x="281" y="703"/>
      <point x="269" y="690"/>
      <point x="269" y="675" type="curve" smooth="yes"/>
      <point x="269" y="662"/>
      <point x="281" y="651"/>
    </contour>
    <contour>
      <point x="558" y="651" type="curve" smooth="yes"/>
      <point x="573" y="651"/>
      <point x="585" y="664"/>
      <point x="585" y="679" type="curve" smooth="yes"/>
      <point x="585" y="692"/>
      <point x="573" y="703"/>
      <point x="560" y="703" type="curve" smooth="yes"/>
      <point x="545" y="703"/>
      <point x="533" y="690"/>
      <point x="533" y="675" type="curve" smooth="yes"/>
      <point x="533" y="662"/>
      <point x="545" y="651"/>
    </contour>
  </outline>
</glyph>
<glyph name="Ef-cy.ss01" format="2">
  <advance width="898"/>
  <outline>
    <contour>
      <point x="418" y="-3" type="curve" smooth="yes"/>
      <point x="686" y="-3"/>
      <point x="850" y="194"/>
      <point x="850" y="416" type="curve" smooth="yes"/>
      <point x="850" y="588"/>
      <point x="732" y="703"/>
      <point x="517" y="703" type="curve" smooth="yes"/>
      <point x="248" y="703"/>
      <point x="85" y="506"/>
      <point x="85" y="284" type="curve" smooth="yes"/>
      <point x="85" y="112"/>
      <point x="202" y="-3"/>
    </contour>
    <contour>
      <point x="391" y="17" type="line"/>
      <point x="202" y="26"/>
      <point x="105" y="132"/>
      <point x="105" y="283" type="curve" smooth="yes"/>
      <point x="105" y="513"/>
      <point x="274" y="685"/>
      <point x="524" y="685" type="curve"/>
    </contour>
    <contour>
      <point x="411" y="15" type="curve"/>
      <point x="544" y="683" type="line"/>
      <point x="733" y="674"/>
      <point x="830" y="568"/>
      <point x="830" y="417" type="curve" smooth="yes"/>
      <point x="830" y="187"/>
      <point x="661" y="15"/>
    </contour>
  </outline>
</glyph>
<glyph name="El-cy.loclBGR" format="2">
  <advance width="698"/>
  <outline>
    <contour>
      <point x="446" y="700" type="line"/>
      <point x="426" y="700" type="line"/>
      <point x="-28" y="0" type="line"/>
      <point x="-4" y="0" type="line"/>
      <point x="439" y="684" type="line"/>
      <point x="429" y="684" type="line"/>
      <point x="600" y="0" type="line"/>
      <point x="622" y="0" type="line"/>
    </contour>
  </outline>
</glyph>
<glyph name="Er-cy.ss01" format="2">
  <advance width="714"/>
  <outline>
    <contour>
      <point x="70" y="0" type="line"/>
      <point x="90" y="0" type="line"/>
      <point x="180" y="456" type="line" smooth="yes"/>
      <point x="209" y="603"/>
      <point x="307" y="683"/>
      <point x="459" y="683" type="curve" smooth="yes"/>
      <point x="600" y="683"/>
      <point x="678" y="614"/>
      <point x="678" y="487" type="curve" smooth="yes"/>
      <point x="678" y="328"/>
      <point x="556" y="217"/>
      <point x="380" y="217" type="curve" smooth="yes"/>
      <point x="280" y="217"/>
      <point x="200" y="253"/>
      <point x="149" y="322" type="curve"/>
      <point x="134" y="310" type="line"/>
      <point x="189" y="236"/>
      <point x="275" y="197"/>
      <point x="381" y="197" type="curve" smooth="yes"/>
      <point x="567" y="197"/>
      <point x="698" y="317"/>
      <point x="698" y="488" type="curve" smooth="yes"/>
      <point x="698" y="627"/>
      <point x="612" y="703"/>
      <point x="457" y="703" type="curve" smooth="yes"/>
      <point x="296" y="703"/>
      <point x="194" y="621"/>
      <point x="162" y="463" type="curve" smooth="yes"/>
    </contour>
  </outline>
</glyph>
<glyph name="Ghestroke-cy.loclBSH" format="2">
  <advance width="570"/>
  <outline>
    <contour>
      <point x="155" y="319" type="line"/>
      <point x="484" y="319" type="line"/>
      <point x="488" y="338" type="line"/>
      <point x="159" y="338" type="line"/>
    </contour>
    <component base="Ge-cy"/>
  </outline>
</glyph>
<glyph name="Iacute_J.loclNLD" format="2">
  <advance width="714"/>
  <guideline x="510" y="710" angle="90"/>
  <guideline x="786" y="710" angle="90"/>
  <guideline x="934" y="743" angle="90"/>
  <outline>
    <contour>
      <point x="289" y="-3" type="curve" smooth="yes"/>
      <point x="456" y="-3"/>
      <point x="553" y="91"/>
      <point x="593" y="290" type="curve" smooth="yes"/>
      <point x="675" y="700" type="line"/>
      <point x="655" y="700" type="line"/>
      <point x="574" y="294" type="line" smooth="yes"/>
      <point x="536" y="103"/>
      <point x="445" y="16"/>
      <point x="289" y="16" type="curve" smooth="yes"/>
      <point x="210" y="16"/>
      <point x="143" y="40"/>
      <point x="94" y="78" type="curve"/>
      <point x="81" y="61" type="line"/>
      <point x="130" y="24"/>
      <point x="201" y="-3"/>
    </contour>
    <contour>
      <point x="133" y="290" type="line"/>
      <point x="153" y="290" type="line"/>
      <point x="235" y="700" type="line"/>
      <point x="215" y="700" type="line"/>
    </contour>
    <contour>
      <point x="221" y="757" type="line"/>
      <point x="251" y="757" type="line"/>
      <point x="423" y="867" type="line"/>
      <point x="383" y="867" type="line"/>
    </contour>
    <contour>
      <point x="663" y="757" type="line"/>
      <point x="693" y="757" type="line"/>
      <point x="865" y="867" type="line"/>
      <point x="825" y="867" type="line"/>
    </contour>
  </outline>
</glyph>
<glyph name="Iacute_J.loclNLD.ss01" format="2">
  <advance width="714"/>
  <outline>
    <contour>
      <point x="269" y="-103" type="curve" smooth="yes"/>
      <point x="436" y="-103"/>
      <point x="533" y="-8"/>
      <point x="573" y="190" type="curve" smooth="yes"/>
      <point x="675" y="700" type="line"/>
      <point x="655" y="700" type="line"/>
      <point x="554" y="194" type="line" smooth="yes"/>
      <point x="516" y="4"/>
      <point x="425" y="-84"/>
      <point x="269" y="-84" type="curve" smooth="yes"/>
      <point x="190" y="-84"/>
      <point x="123" y="-60"/>
      <point x="74" y="-22" type="curve"/>
      <point x="61" y="-39" type="line"/>
      <point x="110" y="-76"/>
      <point x="181" y="-103"/>
    </contour>
    <contour>
      <point x="113" y="190" type="line"/>
      <point x="133" y="190" type="line"/>
      <point x="235" y="700" type="line"/>
      <point x="215" y="700" type="line"/>
    </contour>
    <contour>
      <point x="221" y="757" type="line"/>
      <point x="251" y="757" type="line"/>
      <point x="423" y="867" type="line"/>
      <point x="383" y="867" type="line"/>
    </contour>
    <contour>
      <point x="663" y="757" type="line"/>
      <point x="693" y="757" type="line"/>
      <point x="865" y="867" type="line"/>
      <point x="825" y="867" type="line"/>
    </contour>
  </outline>
</glyph>
<glyph name="J.ss01" format="2">
  <advance width="477"/>
  <anchor x="297" y="700" name="top"/>
  <outline>
    <contour>
      <point x="117" y="-103" type="curve" smooth="yes"/>
      <point x="223" y="-103"/>
      <point x="288" y="-52"/>
      <point x="316" y="90" type="curve" smooth="yes"/>
      <point x="438" y="700" type="line"/>
      <point x="156" y="700" type="line"/>
      <point x="152" y="681" type="line"/>
      <point x="414" y="681" type="line"/>
      <point x="297" y="96" type="line" smooth="yes"/>
      <point x="270" y="-37"/>
      <point x="213" y="-84"/>
      <point x="120" y="-84" type="curve" smooth="yes"/>
      <point x="47" y="-84"/>
      <point x="-7" y="-49"/>
      <point x="-32" y="6" type="curve"/>
      <point x="-50" y="-4" type="line"/>
      <point x="-25" y="-63"/>
      <point x="38" y="-103"/>
    </contour>
  </outline>
</glyph>
<glyph name="Nje-cy.ss01" format="2">
  <advance width="1181"/>
  <outline>
    <contour>
      <point x="843" y="-3" type="curve" smooth="yes"/>
      <point x="1011" y="-3"/>
      <point x="1124" y="96"/>
      <point x="1124" y="233" type="curve" smooth="yes"/>
      <point x="1124" y="333"/>
      <point x="1044" y="396"/>
      <point x="919" y="396" type="curve" smooth="yes"/>
      <point x="676" y="396" type="line"/>
      <point x="737" y="700" type="line"/>
      <point x="717" y="700" type="line"/>
      <point x="656" y="396" type="line"/>
      <point x="184" y="396" type="line"/>
      <point x="245" y="700" type="line"/>
      <point x="225" y="700" type="line"/>
      <point x="85" y="0" type="line"/>
      <point x="105" y="0" type="line"/>
      <point x="181" y="377" type="line"/>
      <point x="653" y="377" type="line"/>
      <point x="618" y="204" type="line" smooth="yes"/>
      <point x="594" y="84"/>
      <point x="687" y="-3"/>
    </contour>
    <contour>
      <point x="843" y="16" type="curve" smooth="yes"/>
      <point x="699" y="16"/>
      <point x="616" y="93"/>
      <point x="638" y="202" type="curve" smooth="yes"/>
      <point x="673" y="377" type="line"/>
      <point x="909" y="377" type="line" smooth="yes"/>
      <point x="1030" y="377"/>
      <point x="1104" y="321"/>
      <point x="1104" y="233" type="curve" smooth="yes"/>
      <point x="1104" y="105"/>
      <point x="1001" y="16"/>
    </contour>
  </outline>
</glyph>
<glyph name="Q.ss01.BRACKET.170" format="2">
  <advance width="836"/>
  <anchor x="506" y="700" name="top"/>
  <outline>
    <contour>
      <point x="386" y="-3" type="curve" smooth="yes"/>
      <point x="644" y="-3"/>
      <point x="802" y="196"/>
      <point x="802" y="420" type="curve" smooth="yes"/>
      <point x="802" y="589"/>
      <point x="691" y="703"/>
      <point x="487" y="703" type="curve" smooth="yes"/>
      <point x="229" y="703"/>
      <point x="71" y="504"/>
      <point x="71" y="280" type="curve" smooth="yes"/>
      <point x="71" y="111"/>
      <point x="182" y="-3"/>
    </contour>
    <contour>
      <point x="329" y="-135" type="line"/>
      <point x="349" y="-135" type="line"/>
      <point x="376" y="1" type="line"/>
      <point x="378" y="10" type="line"/>
      <point x="417" y="205" type="line"/>
      <point x="397" y="205" type="line"/>
      <point x="358" y="10" type="line"/>
      <point x="356" y="1" type="line"/>
    </contour>
    <contour>
      <point x="388" y="16" type="curve" smooth="yes"/>
      <point x="192" y="16"/>
      <point x="91" y="123"/>
      <point x="91" y="280" type="curve" smooth="yes"/>
      <point x="91" y="499"/>
      <point x="246" y="684"/>
      <point x="485" y="684" type="curve" smooth="yes"/>
      <point x="681" y="684"/>
      <point x="782" y="577"/>
      <point x="782" y="420" type="curve" smooth="yes"/>
      <point x="782" y="201"/>
      <point x="627" y="16"/>
    </contour>
  </outline>
</glyph>
<glyph name="Semisoftsign-cy.ss01" format="2">
  <advance width="746"/>
  <anchor x="249" y="590" name="center"/>
  <outline>
    <contour>
      <point x="94" y="580" type="line"/>
      <point x="479" y="580" type="line"/>
      <point x="483" y="599" type="line"/>
      <point x="98" y="599" type="line"/>
    </contour>
    <contour>
      <point x="370" y="-3" type="curve" smooth="yes"/>
      <point x="561" y="-3"/>
      <point x="688" y="104"/>
      <point x="688" y="262" type="curve" smooth="yes"/>
      <point x="688" y="391"/>
      <point x="604" y="466"/>
      <point x="459" y="466" type="curve" smooth="yes"/>
      <point x="354" y="466"/>
      <point x="260" y="426"/>
      <point x="177" y="346" type="curve"/>
      <point x="184" y="329" type="line"/>
      <point x="262" y="406"/>
      <point x="355" y="446"/>
      <point x="458" y="446" type="curve" smooth="yes"/>
      <point x="591" y="446"/>
      <point x="667" y="379"/>
      <point x="667" y="261" type="curve" smooth="yes"/>
      <point x="667" y="116"/>
      <point x="549" y="17"/>
      <point x="371" y="17" type="curve" smooth="yes"/>
      <point x="216" y="17"/>
      <point x="144" y="100"/>
      <point x="171" y="238" type="curve" smooth="yes"/>
      <point x="271" y="742" type="line"/>
      <point x="251" y="742" type="line"/>
      <point x="151" y="238" type="line" smooth="yes"/>
      <point x="121" y="89"/>
      <point x="202" y="-3"/>
    </contour>
  </outline>
</glyph>
<glyph name="Softsign-cy.ss01" format="2">
  <advance width="710"/>
  <outline>
    <contour>
      <point x="338" y="-3" type="curve" smooth="yes"/>
      <point x="524" y="-3"/>
      <point x="652" y="104"/>
      <point x="652" y="262" type="curve" smooth="yes"/>
      <point x="652" y="391"/>
      <point x="568" y="466"/>
      <point x="423" y="466" type="curve" smooth="yes"/>
      <point x="318" y="466"/>
      <point x="224" y="426"/>
      <point x="141" y="346" type="curve"/>
      <point x="148" y="329" type="line"/>
      <point x="226" y="406"/>
      <point x="319" y="446"/>
      <point x="422" y="446" type="curve" smooth="yes"/>
      <point x="555" y="446"/>
      <point x="631" y="379"/>
      <point x="631" y="261" type="curve" smooth="yes"/>
      <point x="631" y="116"/>
      <point x="513" y="17"/>
      <point x="339" y="17" type="curve" smooth="yes"/>
      <point x="180" y="17"/>
      <point x="107" y="99"/>
      <point x="135" y="238" type="curve" smooth="yes"/>
      <point x="227" y="700" type="line"/>
      <point x="207" y="700" type="line"/>
      <point x="115" y="238" type="line" smooth="yes"/>
      <point x="85" y="89"/>
      <point x="165" y="-3"/>
    </contour>
  </outline>
</glyph>
<glyph name="Udieresis.alt.BRACKET.133" format="2">
  <advance width="794"/>
  <outline>
    <contour>
      <point x="344" y="-3" type="curve" smooth="yes"/>
      <point x="511" y="-3"/>
      <point x="634" y="95"/>
      <point x="674" y="293" type="curve" smooth="yes"/>
      <point x="755" y="700" type="line"/>
      <point x="735" y="700" type="line"/>
      <point x="654" y="294" type="line" smooth="yes"/>
      <point x="616" y="107"/>
      <point x="507" y="16"/>
      <point x="348" y="16" type="curve" smooth="yes"/>
      <point x="189" y="16"/>
      <point x="116" y="107"/>
      <point x="154" y="294" type="curve" smooth="yes"/>
      <point x="235" y="700" type="line"/>
      <point x="215" y="700" type="line"/>
      <point x="134" y="293" type="line" smooth="yes"/>
      <point x="94" y="95"/>
      <point x="177" y="-3"/>
    </contour>
    <contour>
      <point x="458" y="527" type="curve" smooth="yes"/>
      <point x="473" y="527"/>
      <point x="485" y="540"/>
      <point x="485" y="555" type="curve" smooth="yes"/>
      <point x="485" y="568"/>
      <point x="473" y="579"/>
      <point x="460" y="579" type="curve" smooth="yes"/>
      <point x="445" y="579"/>
      <point x="433" y="566"/>
      <point x="433" y="551" type="curve" smooth="yes"/>
      <point x="433" y="538"/>
      <point x="445" y="527"/>
    </contour>
    <contour>
      <point x="483" y="651" type="curve" smooth="yes"/>
      <point x="498" y="651"/>
      <point x="510" y="664"/>
      <point x="510" y="679" type="curve" smooth="yes"/>
      <point x="510" y="692"/>
      <point x="498" y="703"/>
      <point x="485" y="703" type="curve" smooth="yes"/>
      <point x="470" y="703"/>
      <point x="458" y="690"/>
      <point x="458" y="675" type="curve" smooth="yes"/>
      <point x="458" y="662"/>
      <point x="470" y="651"/>
    </contour>
  </outline>
</glyph>
<glyph name="Udieresis.ss01.alt.BRACKET.133" format="2">
  <advance width="800"/>
  <outline>
    <contour>
      <point x="348" y="-3" type="curve" smooth="yes"/>
      <point x="474" y="-3"/>
      <point x="576" y="53"/>
      <point x="634" y="174" type="curve"/>
      <point x="630" y="176" type="line"/>
      <point x="595" y="0" type="line"/>
      <point x="615" y="0" type="line"/>
      <point x="755" y="700" type="line"/>
      <point x="735" y="700" type="line"/>
      <point x="650" y="277" type="line" smooth="yes"/>
      <point x="614" y="99"/>
      <point x="501" y="16"/>
      <point x="350" y="16" type="curve" smooth="yes"/>
      <point x="191" y="16"/>
      <point x="117" y="108"/>
      <point x="153" y="290" type="curve" smooth="yes"/>
      <point x="235" y="700" type="line"/>
      <point x="215" y="700" type="line"/>
      <point x="133" y="289" type="line" smooth="yes"/>
      <point x="95" y="97"/>
      <point x="182" y="-3"/>
    </contour>
    <contour>
      <point x="458" y="527" type="curve" smooth="yes"/>
      <point x="473" y="527"/>
      <point x="485" y="540"/>
      <point x="485" y="555" type="curve" smooth="yes"/>
      <point x="485" y="568"/>
      <point x="473" y="579"/>
      <point x="460" y="579" type="curve" smooth="yes"/>
      <point x="445" y="579"/>
      <point x="433" y="566"/>
      <point x="433" y="551" type="curve" smooth="yes"/>
      <point x="433" y="538"/>
      <point x="445" y="527"/>
    </contour>
    <contour>
      <point x="483" y="651" type="curve" smooth="yes"/>
      <point x="498" y="651"/>
      <point x="510" y="664"/>
      <point x="510" y="679" type="curve" smooth="yes"/>
      <point x="510" y="692"/>
      <point x="498" y="703"/>
      <point x="485" y="703" type="curve" smooth="yes"/>
      <point x="470" y="703"/>
      <point x="458" y="690"/>
      <point x="458" y="675" type="curve" smooth="yes"/>
      <point x="458" y="662"/>
      <point x="470" y="651"/>
    </contour>
  </outline>
</glyph>
<glyph name="Y.ss01" format="2">
  <advance width="789"/>
  <anchor x="601" y="0" name="bottom"/>
  <anchor x="481" y="700" name="top"/>
  <outline>
    <contour>
      <point x="730" y="700" type="line"/>
      <point x="682" y="461" type="line" smooth="yes"/>
      <point x="646" y="283"/>
      <point x="533" y="200"/>
      <point x="382" y="200" type="curve" smooth="yes"/>
      <point x="223" y="200"/>
      <point x="149" y="292"/>
      <point x="185" y="474" type="curve" smooth="yes"/>
      <point x="230" y="700" type="line"/>
      <point x="210" y="700" type="line"/>
      <point x="165" y="473" type="line" smooth="yes"/>
      <point x="127" y="281"/>
      <point x="214" y="181"/>
      <point x="380" y="181" type="curve" smooth="yes"/>
      <point x="506" y="181"/>
      <point x="608" y="237"/>
      <point x="666" y="358" type="curve"/>
      <point x="662" y="360" type="line"/>
      <point x="629" y="194" type="line" smooth="yes"/>
      <point x="592" y="7"/>
      <point x="483" y="-84"/>
      <point x="327" y="-84" type="curve" smooth="yes"/>
      <point x="219" y="-84"/>
      <point x="148" y="-48"/>
      <point x="105" y="27" type="curve"/>
      <point x="88" y="13" type="line"/>
      <point x="130" y="-61"/>
      <point x="213" y="-103"/>
      <point x="325" y="-103" type="curve" smooth="yes"/>
      <point x="492" y="-103"/>
      <point x="610" y="-5"/>
      <point x="649" y="193" type="curve" smooth="yes"/>
      <point x="750" y="700" type="line"/>
    </contour>
  </outline>
</glyph>
<glyph name=".notdef" format="2">
  <advance width="587"/>
  <outline>
    <contour>
      <point x="-12" y="0" type="line"/>
      <point x="495" y="0" type="line"/>
      <point x="635" y="700" type="line"/>
      <point x="128" y="700" type="line"/>
    </contour>
    <contour>
      <point x="82" y="70" type="line"/>
      <point x="194" y="630" type="line"/>
      <point x="541" y="630" type="line"/>
      <point x="429" y="70" type="line"/>
    </contour>
  </outline>
</glyph>
<glyph name="a.sc.ss01" format="2">
  <advance width="680"/>
  <anchor x="288" y="0" name="bottom"/>
  <anchor x="512" y="0" name="ogonek"/>
  <anchor x="400" y="559" name="top"/>
  <anchor x="148" y="559" name="topleft"/>
  <outline>
    <contour>
      <point x="64" y="0" type="line"/>
      <point x="84" y="0" type="line"/>
      <point x="148" y="324" type="line" smooth="yes"/>
      <point x="177" y="472"/>
      <point x="257" y="543"/>
      <point x="389" y="543" type="curve" smooth="yes"/>
      <point x="524" y="543"/>
      <point x="586" y="465"/>
      <point x="557" y="323" type="curve" smooth="yes"/>
      <point x="492" y="0" type="line"/>
      <point x="512" y="0" type="line"/>
      <point x="577" y="324" type="line" smooth="yes"/>
      <point x="607" y="474"/>
      <point x="537" y="562"/>
      <point x="390" y="562" type="curve" smooth="yes"/>
      <point x="247" y="562"/>
      <point x="161" y="486"/>
      <point x="129" y="326" type="curve" smooth="yes"/>
    </contour>
    <contour>
      <point x="115" y="182" type="line"/>
      <point x="538" y="182" type="line"/>
      <point x="542" y="201" type="line"/>
      <point x="118" y="201" type="line"/>
    </contour>
  </outline>
</glyph>
<glyph name="acutecomb.loclVIET" format="2">
  <anchor x="351" y="517" name="_top"/>
  <anchor x="374" y="630" name="top"/>
  <outline>
    <contour>
      <point x="323" y="607" type="line"/>
      <point x="355" y="607" type="line"/>
      <point x="504" y="707" type="line"/>
      <point x="462" y="707" type="line"/>
    </contour>
  </outline>
</glyph>
<glyph name="adieresis.sc.alt" format="2">
  <advance width="563"/>
  <outline>
    <contour>
      <point x="-43" y="0" type="line"/>
      <point x="-20" y="0" type="line"/>
      <point x="94" y="169" type="line"/>
      <point x="106" y="188" type="line"/>
      <point x="345" y="544" type="line"/>
      <point x="337" y="544" type="line"/>
      <point x="431" y="188" type="line"/>
      <point x="436" y="169" type="line"/>
      <point x="481" y="0" type="line"/>
      <point x="502" y="0" type="line"/>
      <point x="352" y="559" type="line"/>
      <point x="333" y="559" type="line"/>
    </contour>
    <contour>
      <point x="78" y="169" type="line"/>
      <point x="446" y="169" type="line"/>
      <point x="441" y="188" type="line"/>
      <point x="91" y="188" type="line"/>
    </contour>
    <contour>
      <point x="204" y="510" type="curve" smooth="yes"/>
      <point x="219" y="510"/>
      <point x="231" y="523"/>
      <point x="231" y="538" type="curve" smooth="yes"/>
      <point x="231" y="551"/>
      <point x="219" y="562"/>
      <point x="206" y="562" type="curve" smooth="yes"/>
      <point x="191" y="562"/>
      <point x="179" y="549"/>
      <point x="179" y="534" type="curve" smooth="yes"/>
      <point x="179" y="521"/>
      <point x="191" y="510"/>
    </contour>
    <contour>
      <point x="467" y="510" type="curve" smooth="yes"/>
      <point x="482" y="510"/>
      <point x="494" y="523"/>
      <point x="494" y="538" type="curve" smooth="yes"/>
      <point x="494" y="551"/>
      <point x="482" y="562"/>
      <point x="469" y="562" type="curve" smooth="yes"/>
      <point x="454" y="562"/>
      <point x="442" y="549"/>
      <point x="442" y="534" type="curve" smooth="yes"/>
      <point x="442" y="521"/>
      <point x="454" y="510"/>
    </contour>
  </outline>
</glyph>
<glyph name="ae.sc.ss01" format="2">
  <advance width="896"/>
  <anchor x="391" y="0" name="bottom"/>
  <anchor x="503" y="559" name="top"/>
  <outline>
    <contour>
      <point x="411" y="0" type="line"/>
      <point x="791" y="0" type="line"/>
      <point x="795" y="18" type="line"/>
      <point x="435" y="18" type="line"/>
      <point x="486" y="275" type="line"/>
      <point x="797" y="275" type="line"/>
      <point x="801" y="293" type="line"/>
      <point x="490" y="293" type="line"/>
      <point x="539" y="540" type="line"/>
      <point x="887" y="540" type="line"/>
      <point x="891" y="559" type="line"/>
      <point x="523" y="559" type="line"/>
    </contour>
    <contour>
      <point x="110" y="190" type="line"/>
      <point x="459" y="190" type="line"/>
      <point x="463" y="209" type="line"/>
      <point x="114" y="209" type="line"/>
    </contour>
    <contour>
      <point x="58" y="0" type="line"/>
      <point x="78" y="0" type="line"/>
      <point x="143" y="322" type="line" smooth="yes"/>
      <point x="170" y="460"/>
      <point x="258" y="540"/>
      <point x="383" y="540" type="curve" smooth="yes"/>
      <point x="529" y="540" type="line"/>
      <point x="533" y="559" type="line"/>
      <point x="385" y="559" type="line" smooth="yes"/>
      <point x="248" y="559"/>
      <point x="153" y="473"/>
      <point x="123" y="324" type="curve" smooth="yes"/>
    </contour>
  </outline>
</glyph>
<glyph name="aogonek.ss01" format="2">
  <advance width="703"/>
  <anchor x="368" y="517" name="top"/>
  <outline>
    <contour>
      <point x="269" y="-3" type="curve" smooth="yes"/>
      <point x="440" y="-3"/>
      <point x="558" y="133"/>
      <point x="557" y="312" type="curve" smooth="yes"/>
      <point x="556" y="442"/>
      <point x="479" y="520"/>
      <point x="341" y="520" type="curve" smooth="yes"/>
      <point x="171" y="520"/>
      <point x="49" y="386"/>
      <point x="49" y="207" type="curve" smooth="yes"/>
      <point x="49" y="78"/>
      <point x="134" y="-3"/>
    </contour>
    <contour>
      <point x="272" y="16" type="curve" smooth="yes"/>
      <point x="144" y="16"/>
      <point x="69" y="86"/>
      <point x="69" y="208" type="curve" smooth="yes"/>
      <point x="69" y="376"/>
      <point x="183" y="501"/>
      <point x="338" y="501" type="curve" smooth="yes"/>
      <point x="466" y="501"/>
      <point x="541" y="431"/>
      <point x="541" y="309" type="curve" smooth="yes"/>
      <point x="541" y="140"/>
      <point x="427" y="16"/>
    </contour>
    <contour>
      <point x="518" y="-213" type="curve" smooth="yes"/>
      <point x="548" y="-213"/>
      <point x="576" y="-204"/>
      <point x="599" y="-186" type="curve"/>
      <point x="591" y="-169" type="line"/>
      <point x="571" y="-185"/>
      <point x="545" y="-194"/>
      <point x="520" y="-194" type="curve" smooth="yes"/>
      <point x="484" y="-194"/>
      <point x="463" y="-176"/>
      <point x="463" y="-142" type="curve" smooth="yes"/>
      <point x="463" y="-88"/>
      <point x="516" y="-33"/>
      <point x="637" y="1" type="curve"/>
      <point x="645" y="2"/>
      <point x="652" y="4"/>
      <point x="658" y="7" type="curve"/>
      <point x="659" y="26" type="line"/>
      <point x="646" y="20"/>
      <point x="627" y="16"/>
      <point x="605" y="16" type="curve" smooth="yes"/>
      <point x="540" y="16"/>
      <point x="516" y="58"/>
      <point x="531" y="132" type="curve" smooth="yes"/>
      <point x="608" y="517" type="line"/>
      <point x="588" y="517" type="line"/>
      <point x="550" y="327" type="line"/>
      <point x="547" y="250" type="line"/>
      <point x="521" y="180" type="line"/>
      <point x="510" y="126" type="line" smooth="yes"/>
      <point x="495" y="54"/>
      <point x="523" y="7"/>
      <point x="585" y="-2" type="curve"/>
      <point x="588" y="2" type="line"/>
      <point x="482" y="-36"/>
      <point x="443" y="-91"/>
      <point x="443" y="-144" type="curve" smooth="yes"/>
      <point x="443" y="-187"/>
      <point x="473" y="-213"/>
    </contour>
  </outline>
</glyph>
<glyph name="b.sc" format="2">
  <advance width="626"/>
  <anchor x="269" y="0" name="bottom"/>
  <anchor x="382" y="559" name="top"/>
  <outline>
    <contour>
      <point x="70" y="0" type="line"/>
      <point x="315" y="0" type="line"/>
      <point x="465" y="0"/>
      <point x="551" y="61"/>
      <point x="551" y="171" type="curve" smooth="yes"/>
      <point x="551" y="251"/>
      <point x="489" y="290"/>
      <point x="388" y="290" type="curve"/>
      <point x="372" y="280" type="line"/>
      <point x="483" y="280"/>
      <point x="574" y="336"/>
      <point x="574" y="446" type="curve" smooth="yes"/>
      <point x="574" y="521"/>
      <point x="511" y="559"/>
      <point x="409" y="559" type="curve" smooth="yes"/>
      <point x="182" y="559" type="line"/>
    </contour>
    <contour>
      <point x="94" y="19" type="line"/>
      <point x="198" y="540" type="line"/>
      <point x="408" y="540" type="line" smooth="yes"/>
      <point x="501" y="540"/>
      <point x="554" y="508"/>
      <point x="554" y="443" type="curve" smooth="yes"/>
      <point x="554" y="344"/>
      <point x="471" y="293"/>
      <point x="358" y="293" type="curve" smooth="yes"/>
      <point x="145" y="293" type="line"/>
      <point x="141" y="274" type="line"/>
      <point x="374" y="274" type="line" smooth="yes"/>
      <point x="477" y="274"/>
      <point x="531" y="245"/>
      <point x="531" y="170" type="curve" smooth="yes"/>
      <point x="531" y="73"/>
      <point x="455" y="19"/>
      <point x="319" y="19" type="curve" smooth="yes"/>
    </contour>
  </outline>
</glyph>
<glyph name="backslash.case" format="2">
  <advance width="300"/>
  <outline>
    <contour>
      <point x="248" y="-100" type="line"/>
      <point x="105" y="842" type="line"/>
      <point x="86" y="842" type="line"/>
      <point x="229" y="-100" type="line"/>
    </contour>
  </outline>
</glyph>
<glyph name="brevecomb-cy.case" format="2">
  <anchor x="312" y="700" name="_top"/>
  <outline>
    <contour>
      <point x="326" y="756" type="curve" smooth="yes"/>
      <point x="404" y="756"/>
      <point x="467" y="801"/>
      <point x="482" y="869" type="curve"/>
      <point x="464" y="869" type="line"/>
      <point x="449" y="813"/>
      <point x="393" y="775"/>
      <point x="325" y="775" type="curve" smooth="yes"/>
      <point x="256" y="775"/>
      <point x="214" y="814"/>
      <point x="222" y="869" type="curve"/>
      <point x="204" y="869" type="line"/>
      <point x="193" y="804"/>
      <point x="244" y="756"/>
    </contour>
  </outline>
</glyph>
<glyph name="brevecomb.loclVIET" format="2">
  <anchor x="351" y="517" name="_top"/>
  <anchor x="370" y="611" name="top"/>
  <outline>
    <contour>
      <point x="377" y="604" type="curve" smooth="yes"/>
      <point x="450" y="604"/>
      <point x="503" y="634"/>
      <point x="517" y="687" type="curve"/>
      <point x="498" y="687" type="line"/>
      <point x="485" y="645"/>
      <point x="442" y="623"/>
      <point x="378" y="623" type="curve" smooth="yes"/>
      <point x="316" y="623"/>
      <point x="278" y="645"/>
      <point x="272" y="687" type="curve"/>
      <point x="253" y="687" type="line"/>
      <point x="258" y="636"/>
      <point x="306" y="604"/>
    </contour>
  </outline>
</glyph>
<glyph name="c.sc" format="2">
  <advance width="588"/>
  <anchor x="287" y="0" name="bottom"/>
  <anchor x="399" y="559" name="top"/>
  <outline>
    <contour>
      <point x="311" y="-3" type="curve" smooth="yes"/>
      <point x="396" y="-3"/>
      <point x="473" y="25"/>
      <point x="520" y="70" type="curve"/>
      <point x="508" y="85" type="line"/>
      <point x="461" y="41"/>
      <point x="395" y="16"/>
      <point x="313" y="16" type="curve" smooth="yes"/>
      <point x="156" y="16"/>
      <point x="75" y="101"/>
      <point x="75" y="224" type="curve" smooth="yes"/>
      <point x="75" y="397"/>
      <point x="199" y="543"/>
      <point x="394" y="543" type="curve" smooth="yes"/>
      <point x="475" y="543"/>
      <point x="534" y="520"/>
      <point x="573" y="477" type="curve"/>
      <point x="587" y="490" type="line"/>
      <point x="549" y="536"/>
      <point x="481" y="562"/>
      <point x="396" y="562" type="curve" smooth="yes"/>
      <point x="183" y="562"/>
      <point x="55" y="404"/>
      <point x="55" y="224" type="curve" smooth="yes"/>
      <point x="55" y="89"/>
      <point x="145" y="-3"/>
    </contour>
  </outline>
</glyph>
<glyph name="che-cy.loclBGR" format="2">
  <advance width="579"/>
  <anchor x="387" y="0" name="bottomleft"/>
  <outline>
    <contour>
      <point x="453" y="279" type="curve"/>
      <point x="459" y="337" type="line"/>
      <point x="438" y="234"/>
      <point x="335" y="198"/>
      <point x="232" y="198" type="curve" smooth="yes"/>
      <point x="130" y="198"/>
      <point x="74" y="246"/>
      <point x="91" y="334" type="curve" smooth="yes"/>
      <point x="128" y="517" type="line"/>
      <point x="108" y="517" type="line"/>
      <point x="71" y="336" type="line" smooth="yes"/>
      <point x="51" y="233"/>
      <point x="119" y="180"/>
      <point x="232" y="180" type="curve" smooth="yes"/>
      <point x="334" y="180"/>
      <point x="415" y="212"/>
    </contour>
    <contour>
      <point x="391" y="0" type="line"/>
      <point x="411" y="0" type="line"/>
      <point x="515" y="517" type="line"/>
      <point x="495" y="517" type="line"/>
    </contour>
  </outline>
</glyph>
<glyph name="colonsign.BRACKET.170" format="2">
  <advance width="711"/>
  <outline>
    <contour>
      <point x="266" y="-120" type="line"/>
      <point x="285" y="-120" type="line"/>
      <point x="712" y="820" type="line"/>
      <point x="693" y="820" type="line"/>
    </contour>
    <contour>
      <point x="121" y="-120" type="line"/>
      <point x="140" y="-120" type="line"/>
      <point x="567" y="820" type="line"/>
      <point x="548" y="820" type="line"/>
    </contour>
    <contour>
      <point x="386" y="-3" type="curve" smooth="yes"/>
      <point x="491" y="-3"/>
      <point x="586" y="32"/>
      <point x="644" y="86" type="curve"/>
      <point x="632" y="102" type="line"/>
      <point x="573" y="47"/>
      <point x="491" y="16"/>
      <point x="388" y="16" type="curve" smooth="yes"/>
      <point x="192" y="16"/>
      <point x="91" y="123"/>
      <point x="91" y="280" type="curve" smooth="yes"/>
      <point x="91" y="499"/>
      <point x="246" y="684"/>
      <point x="490" y="684" type="curve" smooth="yes"/>
      <point x="591" y="684"/>
      <point x="665" y="656"/>
      <point x="713" y="602" type="curve"/>
      <point x="727" y="615" type="line"/>
      <point x="680" y="671"/>
      <point x="597" y="703"/>
      <point x="492" y="703" type="curve" smooth="yes"/>
      <point x="229" y="703"/>
      <point x="71" y="504"/>
      <point x="71" y="280" type="curve" smooth="yes"/>
      <point x="71" y="111"/>
      <point x="182" y="-3"/>
    </contour>
  </outline>
</glyph>
<glyph name="d.ss01" format="2">
  <advance width="704"/>
  <anchor x="286" y="0" name="bottom"/>
  <anchor x="556" y="630" name="center"/>
  <anchor x="752" y="742" name="topright"/>
  <outline>
    <contour>
      <point x="269" y="-3" type="curve" smooth="yes"/>
      <point x="440" y="-3"/>
      <point x="558" y="133"/>
      <point x="557" y="312" type="curve" smooth="yes"/>
      <point x="556" y="442"/>
      <point x="479" y="520"/>
      <point x="341" y="520" type="curve" smooth="yes"/>
      <point x="171" y="520"/>
      <point x="49" y="386"/>
      <point x="49" y="207" type="curve" smooth="yes"/>
      <point x="49" y="78"/>
      <point x="134" y="-3"/>
    </contour>
    <contour>
      <point x="272" y="16" type="curve" smooth="yes"/>
      <point x="144" y="16"/>
      <point x="69" y="86"/>
      <point x="69" y="208" type="curve" smooth="yes"/>
      <point x="69" y="376"/>
      <point x="183" y="501"/>
      <point x="338" y="501" type="curve" smooth="yes"/>
      <point x="466" y="501"/>
      <point x="541" y="431"/>
      <point x="541" y="309" type="curve" smooth="yes"/>
      <point x="541" y="140"/>
      <point x="427" y="16"/>
    </contour>
    <contour>
      <point x="603" y="-3" type="curve" smooth="yes"/>
      <point x="620" y="-3"/>
      <point x="643" y="1"/>
      <point x="657" y="7" type="curve"/>
      <point x="658" y="26" type="line"/>
      <point x="645" y="20"/>
      <point x="626" y="16"/>
      <point x="604" y="16" type="curve" smooth="yes"/>
      <point x="539" y="16"/>
      <point x="515" y="58"/>
      <point x="530" y="132" type="curve" smooth="yes"/>
      <point x="652" y="742" type="line"/>
      <point x="632" y="742" type="line"/>
      <point x="546" y="313" type="line"/>
      <point x="542" y="241" type="line"/>
      <point x="516" y="161" type="line"/>
      <point x="509" y="126" type="line" smooth="yes"/>
      <point x="493" y="48"/>
      <point x="527" y="-3"/>
    </contour>
  </outline>
</glyph>
<glyph name="descTail-cy.case" format="2">
  <advance width="282"/>
  <anchor x="27" y="0" name="_bottomleft"/>
  <outline>
    <contour>
      <point x="34" y="-165" type="line"/>
      <point x="52" y="-165" type="line"/>
      <point x="148" y="19" type="line"/>
      <point x="35" y="19" type="line"/>
      <point x="27" y="0" type="line"/>
      <point x="134" y="0" type="line"/>
      <point x="121" y="9" type="line"/>
    </contour>
  </outline>
</glyph>
<glyph name="descTail-cy" format="2">
  <advance width="279"/>
  <anchor x="28" y="0" name="_bottomleft"/>
  <outline>
    <contour>
      <point x="47" y="-121" type="line"/>
      <point x="65" y="-121" type="line"/>
      <point x="140" y="18" type="line"/>
      <point x="32" y="18" type="line"/>
      <point x="28" y="0" type="line"/>
      <point x="124" y="0" type="line"/>
      <point x="114" y="8" type="line"/>
    </contour>
  </outline>
</glyph>
<glyph name="descender-cy" format="2">
  <advance width="285"/>
  <anchor x="13" y="0" name="_bottomleft"/>
  <outline>
    <contour>
      <point x="76" y="-121" type="line"/>
      <point x="96" y="-121" type="line"/>
      <point x="124" y="18" type="line"/>
      <point x="17" y="18" type="line"/>
      <point x="13" y="0" type="line"/>
      <point x="108" y="0" type="line"/>
      <point x="102" y="8" type="line"/>
    </contour>
  </outline>
</glyph>
<glyph name="eight.dnom" format="2">
  <advance width="430"/>
  <outline>
    <contour>
      <point x="181" y="-2" type="curve" smooth="yes"/>
      <point x="297" y="-2"/>
      <point x="364" y="46"/>
      <point x="364" y="114" type="curve" smooth="yes"/>
      <point x="364" y="180"/>
      <point x="301" y="223"/>
      <point x="189" y="223" type="curve" smooth="yes"/>
      <point x="74" y="223"/>
      <point x="8" y="177"/>
      <point x="8" y="108" type="curve" smooth="yes"/>
      <point x="8" y="43"/>
      <point x="70" y="-2"/>
    </contour>
    <contour>
      <point x="182" y="16" type="curve" smooth="yes"/>
      <point x="82" y="16"/>
      <point x="27" y="53"/>
      <point x="27" y="109" type="curve" smooth="yes"/>
      <point x="27" y="168"/>
      <point x="86" y="208"/>
      <point x="189" y="208" type="curve" smooth="yes"/>
      <point x="289" y="208"/>
      <point x="345" y="170"/>
      <point x="345" y="115" type="curve" smooth="yes"/>
      <point x="345" y="55"/>
      <point x="286" y="16"/>
    </contour>
    <contour>
      <point x="222" y="210" type="curve" smooth="yes"/>
      <point x="330" y="210"/>
      <point x="389" y="253"/>
      <point x="389" y="316" type="curve" smooth="yes"/>
      <point x="389" y="375"/>
      <point x="329" y="417"/>
      <point x="230" y="417" type="curve" smooth="yes"/>
      <point x="126" y="417"/>
      <point x="65" y="372"/>
      <point x="65" y="310" type="curve" smooth="yes"/>
      <point x="65" y="251"/>
      <point x="119" y="210"/>
    </contour>
    <contour>
      <point x="223" y="225" type="curve" smooth="yes"/>
      <point x="134" y="225"/>
      <point x="84" y="260"/>
      <point x="84" y="310" type="curve" smooth="yes"/>
      <point x="84" y="364"/>
      <point x="137" y="399"/>
      <point x="229" y="399" type="curve" smooth="yes"/>
      <point x="317" y="399"/>
      <point x="370" y="366"/>
      <point x="370" y="315" type="curve" smooth="yes"/>
      <point x="370" y="262"/>
      <point x="317" y="225"/>
    </contour>
  </outline>
</glyph>
<glyph name="el-cy.loclBGR" format="2">
  <advance width="528"/>
  <anchor x="212" y="0" name="bottom"/>
  <anchor x="315" y="517" name="top"/>
  <outline>
    <contour>
      <point x="325" y="517" type="line"/>
      <point x="305" y="517" type="line"/>
      <point x="-36" y="0" type="line"/>
      <point x="-12" y="0" type="line"/>
      <point x="317" y="503" type="line"/>
      <point x="309" y="503" type="line"/>
      <point x="439" y="0" type="line"/>
      <point x="460" y="0" type="line"/>
    </contour>
  </outline>
</glyph>
<glyph name="exclam.sc" format="2">
  <advance width="242"/>
  <outline>
    <contour>
      <point x="96" y="168" type="line"/>
      <point x="110" y="168" type="line"/>
      <point x="192" y="559" type="line"/>
      <point x="170" y="559" type="line"/>
    </contour>
    <contour>
      <point x="74" y="-3" type="curve" smooth="yes"/>
      <point x="88" y="-3"/>
      <point x="100" y="9"/>
      <point x="100" y="23" type="curve" smooth="yes"/>
      <point x="100" y="37"/>
      <point x="88" y="49"/>
      <point x="74" y="49" type="curve" smooth="yes"/>
      <point x="60" y="49"/>
      <point x="48" y="37"/>
      <point x="48" y="23" type="curve" smooth="yes"/>
      <point x="48" y="9"/>
      <point x="60" y="-3"/>
    </contour>
  </outline>
</glyph>
<glyph name="exclamdown.sc" format="2">
  <advance width="242"/>
  <outline>
    <contour>
      <point x="154" y="391" type="line"/>
      <point x="140" y="391" type="line"/>
      <point x="58" y="0" type="line"/>
      <point x="80" y="0" type="line"/>
    </contour>
    <contour>
      <point x="176" y="562" type="curve" smooth="yes"/>
      <point x="162" y="562"/>
      <point x="150" y="550"/>
      <point x="150" y="536" type="curve" smooth="yes"/>
      <point x="150" y="522"/>
      <point x="162" y="510"/>
      <point x="176" y="510" type="curve" smooth="yes"/>
      <point x="190" y="510"/>
      <point x="202" y="522"/>
      <point x="202" y="536" type="curve" smooth="yes"/>
      <point x="202" y="550"/>
      <point x="190" y="562"/>
    </contour>
  </outline>
</glyph>
<glyph name="ezh.sc" format="2">
  <advance width="530"/>
  <guideline x="216" y="94" angle="258.7"/>
  <anchor x="197" y="0" name="bottom"/>
  <anchor x="308" y="559" name="top"/>
  <outline>
    <contour>
      <point x="202" y="-3" type="curve" smooth="yes"/>
      <point x="337" y="-3"/>
      <point x="444" y="64"/>
      <point x="444" y="174" type="curve" smooth="yes"/>
      <point x="444" y="259"/>
      <point x="381" y="310"/>
      <point x="250" y="310" type="curve" smooth="yes"/>
      <point x="237" y="310" type="line"/>
      <point x="239" y="303" type="line"/>
      <point x="495" y="544" type="line"/>
      <point x="498" y="559" type="line"/>
      <point x="116" y="559" type="line"/>
      <point x="112" y="540" type="line"/>
      <point x="475" y="540" type="line"/>
      <point x="474" y="547" type="line"/>
      <point x="216" y="306" type="line"/>
      <point x="215" y="292" type="line"/>
      <point x="248" y="292" type="line" smooth="yes"/>
      <point x="373" y="292"/>
      <point x="424" y="247"/>
      <point x="424" y="175" type="curve" smooth="yes"/>
      <point x="424" y="77"/>
      <point x="329" y="16"/>
      <point x="202" y="16" type="curve" smooth="yes"/>
      <point x="116" y="16"/>
      <point x="46" y="44"/>
      <point x="16" y="88" type="curve"/>
      <point x="0" y="77" type="line"/>
      <point x="29" y="31"/>
      <point x="105" y="-3"/>
    </contour>
  </outline>
</glyph>
<glyph name="f.ss01" format="2">
  <advance width="303"/>
  <outline>
    <contour>
      <point x="62" y="0" type="line"/>
      <point x="82" y="0" type="line"/>
      <point x="183" y="504" type="line"/>
      <point x="185" y="514" type="line"/>
      <point x="204" y="609" type="line" smooth="yes"/>
      <point x="220" y="691"/>
      <point x="261" y="726"/>
      <point x="332" y="726" type="curve" smooth="yes"/>
      <point x="366" y="726"/>
      <point x="395" y="715"/>
      <point x="414" y="695" type="curve"/>
      <point x="428" y="708" type="line"/>
      <point x="408" y="732"/>
      <point x="371" y="745"/>
      <point x="333" y="745" type="curve" smooth="yes"/>
      <point x="253" y="745"/>
      <point x="202" y="701"/>
      <point x="185" y="615" type="curve" smooth="yes"/>
    </contour>
    <contour>
      <point x="172" y="498" type="line"/>
      <point x="357" y="498" type="line"/>
      <point x="360" y="517" type="line"/>
      <point x="175" y="517" type="line"/>
    </contour>
  </outline>
</glyph>
<glyph name="five.osf" format="2">
  <advance width="548"/>
  <outline>
    <contour>
      <point x="210" y="-103" type="curve" smooth="yes"/>
      <point x="375" y="-103"/>
      <point x="475" y="-15"/>
      <point x="475" y="126" type="curve" smooth="yes"/>
      <point x="475" y="238"/>
      <point x="396" y="297"/>
      <point x="228" y="297" type="curve" smooth="yes"/>
      <point x="97" y="297" type="line"/>
      <point x="103" y="287" type="line"/>
      <point x="199" y="589" type="line"/>
      <point x="188" y="581" type="line"/>
      <point x="532" y="581" type="line"/>
      <point x="536" y="600" type="line"/>
      <point x="181" y="600" type="line"/>
      <point x="80" y="278" type="line"/>
      <point x="225" y="278" type="line" smooth="yes"/>
      <point x="385" y="278"/>
      <point x="455" y="227"/>
      <point x="455" y="124" type="curve" smooth="yes"/>
      <point x="455" y="-3"/>
      <point x="363" y="-84"/>
      <point x="212" y="-84" type="curve" smooth="yes"/>
      <point x="104" y="-84"/>
      <point x="28" y="-44"/>
      <point x="-3" y="9" type="curve"/>
      <point x="-20" y="-4" type="line"/>
      <point x="14" y="-62"/>
      <point x="99" y="-103"/>
    </contour>
  </outline>
</glyph>
<glyph name="fl.ss01" format="2">
  <advance width="567"/>
  <outline>
    <contour>
      <point x="446" y="-103" type="curve" smooth="yes"/>
      <point x="463" y="-103"/>
      <point x="486" y="-99"/>
      <point x="500" y="-93" type="curve"/>
      <point x="501" y="-74" type="line"/>
      <point x="488" y="-80"/>
      <point x="469" y="-84"/>
      <point x="447" y="-84" type="curve" smooth="yes"/>
      <point x="382" y="-84"/>
      <point x="358" y="-42"/>
      <point x="373" y="32" type="curve" smooth="yes"/>
      <point x="481" y="570" type="line" smooth="yes"/>
      <point x="503" y="679"/>
      <point x="463" y="745"/>
      <point x="365" y="745" type="curve" smooth="yes"/>
      <point x="269" y="745"/>
      <point x="209" y="690"/>
      <point x="185" y="570" type="curve" smooth="yes"/>
      <point x="71" y="0" type="line"/>
      <point x="91" y="0" type="line"/>
      <point x="205" y="570" type="line" smooth="yes"/>
      <point x="227" y="681"/>
      <point x="279" y="726"/>
      <point x="364" y="726" type="curve" smooth="yes"/>
      <point x="449" y="726"/>
      <point x="481" y="670"/>
      <point x="461" y="570" type="curve" smooth="yes"/>
      <point x="352" y="26" type="line" smooth="yes"/>
      <point x="336" y="-52"/>
      <point x="370" y="-103"/>
    </contour>
    <contour>
      <point x="71" y="498" type="line"/>
      <point x="366" y="498" type="line"/>
      <point x="369" y="517" type="line"/>
      <point x="74" y="517" type="line"/>
    </contour>
  </outline>
</glyph>
<glyph name="four.tf" format="2">
  <advance width="700"/>
  <guideline x="606" y="239" angle="90"/>
  <outline>
    <contour>
      <point x="64" y="208" type="line"/>
      <point x="616" y="208" type="line"/>
      <point x="620" y="227" type="line"/>
      <point x="78" y="227" type="line"/>
      <point x="94" y="223" type="line"/>
      <point x="526" y="700" type="line"/>
      <point x="499" y="700" type="line"/>
      <point x="67" y="223" type="line"/>
    </contour>
    <contour>
      <point x="393" y="0" type="line"/>
      <point x="413" y="0" type="line"/>
      <point x="495" y="410" type="line"/>
      <point x="475" y="410" type="line"/>
      <point x="438" y="227" type="line"/>
      <point x="435" y="208" type="line"/>
    </contour>
  </outline>
</glyph>
<glyph name="ge-cy.loclBGR" format="2">
  <advance width="518"/>
  <outline>
    <contour>
      <point x="207" y="-3" type="curve" smooth="yes"/>
      <point x="291" y="-3"/>
      <point x="365" y="23"/>
      <point x="428" y="73" type="curve"/>
      <point x="416" y="89" type="line"/>
      <point x="356" y="41"/>
      <point x="286" y="17"/>
      <point x="207" y="17" type="curve" smooth="yes"/>
      <point x="107" y="17"/>
      <point x="54" y="54"/>
      <point x="54" y="119" type="curve" smooth="yes"/>
      <point x="54" y="200"/>
      <point x="126" y="223"/>
      <point x="247" y="246" type="curve" smooth="yes"/>
      <point x="362" y="268"/>
      <point x="463" y="297"/>
      <point x="463" y="402" type="curve" smooth="yes"/>
      <point x="463" y="479"/>
      <point x="407" y="520"/>
      <point x="303" y="520" type="curve" smooth="yes"/>
      <point x="240" y="520"/>
      <point x="189" y="505"/>
      <point x="116" y="465" type="curve"/>
      <point x="126" y="447" type="line"/>
      <point x="197" y="486"/>
      <point x="244" y="500"/>
      <point x="303" y="500" type="curve" smooth="yes"/>
      <point x="397" y="500"/>
      <point x="443" y="467"/>
      <point x="443" y="402" type="curve" smooth="yes"/>
      <point x="443" y="313"/>
      <point x="358" y="288"/>
      <point x="243" y="266" type="curve" smooth="yes"/>
      <point x="120" y="243"/>
      <point x="34" y="214"/>
      <point x="34" y="119" type="curve" smooth="yes"/>
      <point x="34" y="42"/>
      <point x="97" y="-3"/>
    </contour>
  </outline>
</glyph>
<glyph name="guilsinglleft.sc" format="2">
  <advance width="259"/>
  <guideline x="539" y="385" angle="0"/>
  <outline>
    <contour>
      <point x="162" y="113" type="line"/>
      <point x="184" y="113" type="line"/>
      <point x="79" y="287" type="line"/>
      <point x="80" y="273" type="line"/>
      <point x="252" y="446" type="line"/>
      <point x="228" y="446" type="line"/>
      <point x="62" y="279" type="line"/>
    </contour>
  </outline>
</glyph>
<glyph name="guilsinglright.sc" format="2">
  <advance width="259"/>
  <outline>
    <contour>
      <point x="105" y="446" type="line"/>
      <point x="83" y="446" type="line"/>
      <point x="188" y="272" type="line"/>
      <point x="187" y="286" type="line"/>
      <point x="15" y="113" type="line"/>
      <point x="39" y="113" type="line"/>
      <point x="205" y="280" type="line"/>
    </contour>
  </outline>
</glyph>
<glyph name="h.sc" format="2">
  <advance width="692"/>
  <anchor x="294" y="0" name="bottom"/>
  <anchor x="380" y="431" name="center"/>
  <anchor x="406" y="559" name="top"/>
  <outline>
    <contour>
      <point x="610" y="559" type="line"/>
      <point x="498" y="0" type="line"/>
      <point x="518" y="0" type="line"/>
      <point x="630" y="559" type="line"/>
    </contour>
    <contour>
      <point x="90" y="0" type="line"/>
      <point x="202" y="559" type="line"/>
      <point x="182" y="559" type="line"/>
      <point x="70" y="0" type="line"/>
    </contour>
    <contour>
      <point x="557" y="274" type="line"/>
      <point x="561" y="293" type="line"/>
      <point x="145" y="293" type="line"/>
      <point x="141" y="274" type="line"/>
    </contour>
  </outline>
</glyph>
<glyph name="i.sc" format="2">
  <advance width="264"/>
  <anchor x="80" y="0" name="bottom"/>
  <anchor x="90" y="0" name="ogonek"/>
  <anchor x="192" y="559" name="top"/>
  <anchor x="108" y="559" name="topleft"/>
  <outline>
    <contour>
      <point x="70" y="0" type="line"/>
      <point x="90" y="0" type="line"/>
      <point x="202" y="559" type="line"/>
      <point x="182" y="559" type="line"/>
    </contour>
  </outline>
</glyph>
<glyph name="iacute_j.loclNLD.sc" format="2">
  <advance width="612"/>
  <outline>
    <contour>
      <point x="243" y="-3" type="curve" smooth="yes"/>
      <point x="379" y="-3"/>
      <point x="459" y="73"/>
      <point x="491" y="232" type="curve" smooth="yes"/>
      <point x="556" y="559" type="line"/>
      <point x="536" y="559" type="line"/>
      <point x="471" y="235" type="line" smooth="yes"/>
      <point x="441" y="84"/>
      <point x="368" y="16"/>
      <point x="243" y="16" type="curve" smooth="yes"/>
      <point x="179" y="16"/>
      <point x="125" y="36"/>
      <point x="85" y="66" type="curve"/>
      <point x="73" y="49" type="line"/>
      <point x="113" y="19"/>
      <point x="171" y="-3"/>
    </contour>
    <contour>
      <point x="115" y="233" type="line"/>
      <point x="135" y="233" type="line"/>
      <point x="200" y="559" type="line"/>
      <point x="180" y="559" type="line"/>
    </contour>
    <contour>
      <point x="186" y="649" type="line"/>
      <point x="218" y="649" type="line"/>
      <point x="380" y="759" type="line"/>
      <point x="338" y="759" type="line"/>
    </contour>
    <contour>
      <point x="542" y="649" type="line"/>
      <point x="574" y="649" type="line"/>
      <point x="736" y="759" type="line"/>
      <point x="694" y="759" type="line"/>
    </contour>
  </outline>
</glyph>
<glyph name="iacute_j.loclNLD.sc.ss01" format="2">
  <advance width="612"/>
  <outline>
    <contour>
      <point x="212" y="-3" type="curve" smooth="yes"/>
      <point x="340" y="-3"/>
      <point x="440" y="74"/>
      <point x="472" y="233" type="curve" smooth="yes"/>
      <point x="537" y="559" type="line"/>
      <point x="517" y="559" type="line"/>
      <point x="452" y="233" type="line" smooth="yes"/>
      <point x="422" y="85"/>
      <point x="335" y="16"/>
      <point x="216" y="16" type="curve" smooth="yes"/>
      <point x="156" y="16"/>
      <point x="104" y="35"/>
      <point x="67" y="67" type="curve"/>
      <point x="53" y="50" type="line"/>
      <point x="91" y="18"/>
      <point x="146" y="-3"/>
    </contour>
    <contour>
      <point x="96" y="233" type="line"/>
      <point x="116" y="233" type="line"/>
      <point x="181" y="559" type="line"/>
      <point x="161" y="559" type="line"/>
    </contour>
    <contour>
      <point x="168" y="649" type="line"/>
      <point x="198" y="649" type="line"/>
      <point x="370" y="759" type="line"/>
      <point x="330" y="759" type="line"/>
    </contour>
    <contour>
      <point x="524" y="649" type="line"/>
      <point x="554" y="649" type="line"/>
      <point x="726" y="759" type="line"/>
      <point x="686" y="759" type="line"/>
    </contour>
  </outline>
</glyph>
<glyph name="ii-cy.ss01" format="2">
  <advance width="656"/>
  <anchor x="267" y="0" name="bottom"/>
  <anchor x="467" y="0" name="bottomleft"/>
  <anchor x="538" y="0" name="bottomright"/>
  <anchor x="487" y="0" name="ogonek"/>
  <anchor x="370" y="517" name="top"/>
  <anchor x="580" y="517" name="topright"/>
  <outline>
    <contour>
      <point x="262" y="-3" type="curve" smooth="yes"/>
      <point x="370" y="-3"/>
      <point x="458" y="45"/>
      <point x="507" y="155" type="curve"/>
      <point x="497" y="150" type="line"/>
      <point x="467" y="0" type="line"/>
      <point x="487" y="0" type="line"/>
      <point x="590" y="517" type="line"/>
      <point x="570" y="517" type="line"/>
      <point x="513" y="230" type="line" smooth="yes"/>
      <point x="485" y="90"/>
      <point x="394" y="16"/>
      <point x="264" y="16" type="curve" smooth="yes"/>
      <point x="137" y="16"/>
      <point x="85" y="91"/>
      <point x="109" y="212" type="curve" smooth="yes"/>
      <point x="170" y="517" type="line"/>
      <point x="150" y="517" type="line"/>
      <point x="89" y="212" type="line" smooth="yes"/>
      <point x="64" y="86"/>
      <point x="120" y="-3"/>
    </contour>
  </outline>
</glyph>
<glyph name="j.sc" format="2">
  <advance width="410"/>
  <anchor x="238" y="559" name="top"/>
  <outline>
    <contour>
      <point x="110" y="-3" type="curve" smooth="yes"/>
      <point x="197" y="-3"/>
      <point x="250" y="39"/>
      <point x="273" y="153" type="curve" smooth="yes"/>
      <point x="354" y="559" type="line"/>
      <point x="124" y="559" type="line"/>
      <point x="120" y="540" type="line"/>
      <point x="331" y="540" type="line"/>
      <point x="255" y="158" type="line" smooth="yes"/>
      <point x="234" y="54"/>
      <point x="187" y="16"/>
      <point x="112" y="16" type="curve" smooth="yes"/>
      <point x="53" y="16"/>
      <point x="10" y="44"/>
      <point x="-10" y="88" type="curve"/>
      <point x="-27" y="77" type="line"/>
      <point x="-6" y="29"/>
      <point x="45" y="-3"/>
    </contour>
  </outline>
</glyph>
<glyph name="l.sc" format="2">
  <advance width="486"/>
  <anchor x="257" y="0" name="bottom"/>
  <anchor x="138" y="289" name="center"/>
  <anchor x="381" y="289" name="dot"/>
  <anchor x="192" y="559" name="top"/>
  <anchor x="436" y="559" name="topright"/>
  <outline>
    <contour>
      <point x="70" y="0" type="line"/>
      <point x="426" y="0" type="line"/>
      <point x="430" y="19" type="line"/>
      <point x="94" y="19" type="line"/>
      <point x="202" y="559" type="line"/>
      <point x="182" y="559" type="line"/>
    </contour>
  </outline>
</glyph>
<glyph name="leftArrow.case" format="2">
  <advance width="600"/>
  <outline>
    <contour>
      <point x="251" y="143" type="line"/>
      <point x="278" y="143" type="line"/>
      <point x="153" y="319" type="line"/>
      <point x="278" y="498" type="line"/>
      <point x="251" y="498" type="line"/>
      <point x="125" y="319" type="line"/>
    </contour>
    <contour>
      <point x="145" y="310" type="line"/>
      <point x="512" y="310" type="line"/>
      <point x="512" y="330" type="line"/>
      <point x="145" y="330" type="line"/>
    </contour>
  </outline>
</glyph>
<glyph name="lje-cy.ss01" format="2">
  <advance width="911"/>
  <outline>
    <contour>
      <point x="-44" y="2" type="line"/>
      <point x="-32" y="-2"/>
      <point x="-20" y="-3"/>
      <point x="-8" y="-3" type="curve" smooth="yes"/>
      <point x="79" y="-3"/>
      <point x="134" y="140"/>
      <point x="186" y="344" type="curve" smooth="yes"/>
      <point x="227" y="506" type="line"/>
      <point x="217" y="498" type="line"/>
      <point x="513" y="498" type="line"/>
      <point x="529" y="517" type="line"/>
      <point x="209" y="517" type="line"/>
      <point x="166" y="348" type="line" smooth="yes"/>
      <point x="115" y="148"/>
      <point x="65" y="17"/>
      <point x="-5" y="17" type="curve" smooth="yes"/>
      <point x="-16" y="17"/>
      <point x="-30" y="18"/>
      <point x="-40" y="21" type="curve"/>
    </contour>
    <contour>
      <point x="608" y="-3" type="curve" smooth="yes"/>
      <point x="749" y="-3"/>
      <point x="853" y="95"/>
      <point x="853" y="211" type="curve" smooth="yes"/>
      <point x="853" y="306"/>
      <point x="788" y="360"/>
      <point x="680" y="360" type="curve" smooth="yes"/>
      <point x="596" y="360"/>
      <point x="525" y="327"/>
      <point x="479" y="268" type="curve"/>
      <point x="529" y="517" type="line"/>
      <point x="509" y="517" type="line"/>
      <point x="442" y="183" type="line" smooth="yes"/>
      <point x="419" y="68"/>
      <point x="487" y="-3"/>
    </contour>
    <contour>
      <point x="610" y="16" type="curve" smooth="yes"/>
      <point x="496" y="16"/>
      <point x="442" y="82"/>
      <point x="462" y="184" type="curve" smooth="yes"/>
      <point x="472" y="236" type="line"/>
      <point x="519" y="304"/>
      <point x="592" y="341"/>
      <point x="678" y="341" type="curve" smooth="yes"/>
      <point x="774" y="341"/>
      <point x="833" y="295"/>
      <point x="833" y="208" type="curve" smooth="yes"/>
      <point x="833" y="106"/>
      <point x="742" y="16"/>
    </contour>
  </outline>
</glyph>
<glyph name="m.sc.ss01" format="2">
  <advance width="1047"/>
  <anchor x="471" y="0" name="bottom"/>
  <anchor x="595" y="559" name="top"/>
  <outline>
    <contour>
      <point x="70" y="0" type="line"/>
      <point x="89" y="0" type="line"/>
      <point x="168" y="355" type="line" smooth="yes"/>
      <point x="197" y="485"/>
      <point x="284" y="543"/>
      <point x="395" y="543" type="curve" smooth="yes"/>
      <point x="515" y="543"/>
      <point x="566" y="480"/>
      <point x="538" y="352" type="curve" smooth="yes"/>
      <point x="461" y="0" type="line"/>
      <point x="480" y="0" type="line"/>
      <point x="555" y="336" type="line" smooth="yes"/>
      <point x="587" y="479"/>
      <point x="671" y="543"/>
      <point x="785" y="543" type="curve" smooth="yes"/>
      <point x="905" y="543"/>
      <point x="958" y="480"/>
      <point x="930" y="352" type="curve" smooth="yes"/>
      <point x="853" y="0" type="line"/>
      <point x="873" y="0" type="line"/>
      <point x="950" y="353" type="line" smooth="yes"/>
      <point x="980" y="491"/>
      <point x="915" y="562"/>
      <point x="786" y="562" type="curve" smooth="yes"/>
      <point x="692" y="562"/>
      <point x="609" y="519"/>
      <point x="561" y="415" type="curve"/>
      <point x="567" y="415" type="line"/>
      <point x="568" y="513"/>
      <point x="504" y="562"/>
      <point x="397" y="562" type="curve" smooth="yes"/>
      <point x="307" y="562"/>
      <point x="227" y="524"/>
      <point x="185" y="439" type="curve"/>
      <point x="187" y="435" type="line"/>
      <point x="214" y="559" type="line"/>
      <point x="194" y="559" type="line"/>
    </contour>
  </outline>
</glyph>
<glyph name="macroncomb.narrow" format="2">
  <anchor x="351" y="517" name="_top"/>
  <anchor x="374" y="630" name="top"/>
  <outline>
    <contour>
      <point x="268" y="652" type="line"/>
      <point x="490" y="652" type="line"/>
      <point x="494" y="672" type="line"/>
      <point x="272" y="672" type="line"/>
    </contour>
  </outline>
</glyph>
<glyph name="n.sc.ss01" format="2">
  <advance width="678"/>
  <anchor x="288" y="0" name="bottom"/>
  <anchor x="402" y="559" name="top"/>
  <outline>
    <contour>
      <point x="70" y="0" type="line"/>
      <point x="90" y="0" type="line"/>
      <point x="157" y="337" type="line" smooth="yes"/>
      <point x="185" y="478"/>
      <point x="278" y="543"/>
      <point x="399" y="543" type="curve" smooth="yes"/>
      <point x="526" y="543"/>
      <point x="583" y="470"/>
      <point x="555" y="327" type="curve" smooth="yes"/>
      <point x="490" y="0" type="line"/>
      <point x="510" y="0" type="line"/>
      <point x="575" y="328" type="line" smooth="yes"/>
      <point x="606" y="482"/>
      <point x="536" y="562"/>
      <point x="402" y="562" type="curve" smooth="yes"/>
      <point x="300" y="562"/>
      <point x="218" y="518"/>
      <point x="171" y="422" type="curve"/>
      <point x="174" y="419" type="line"/>
      <point x="202" y="559" type="line"/>
      <point x="182" y="559" type="line"/>
    </contour>
  </outline>
</glyph>
<glyph name="nine.tf" format="2">
  <advance width="700"/>
  <outline>
    <contour>
      <point x="383" y="703" type="curve" smooth="yes"/>
      <point x="237" y="703"/>
      <point x="136" y="621"/>
      <point x="136" y="485" type="curve" smooth="yes"/>
      <point x="136" y="363"/>
      <point x="231" y="294"/>
      <point x="363" y="294" type="curve" smooth="yes"/>
      <point x="478" y="294"/>
      <point x="596" y="352"/>
      <point x="616" y="497" type="curve"/>
      <point x="608" y="490" type="line"/>
      <point x="609" y="479"/>
      <point x="610" y="467"/>
      <point x="610" y="446" type="curve" smooth="yes"/>
      <point x="610" y="251"/>
      <point x="528" y="16"/>
      <point x="258" y="16" type="curve" smooth="yes"/>
      <point x="200" y="16"/>
      <point x="149" y="25"/>
      <point x="106" y="50" type="curve"/>
      <point x="94" y="32" type="line"/>
      <point x="141" y="6"/>
      <point x="194" y="-3"/>
      <point x="256" y="-3" type="curve" smooth="yes"/>
      <point x="539" y="-3"/>
      <point x="630" y="238"/>
      <point x="630" y="440" type="curve" smooth="yes"/>
      <point x="630" y="617"/>
      <point x="528" y="703"/>
    </contour>
    <contour>
      <point x="382" y="684" type="curve" smooth="yes"/>
      <point x="528" y="684"/>
      <point x="598" y="592"/>
      <point x="598" y="509" type="curve" smooth="yes"/>
      <point x="598" y="402"/>
      <point x="504" y="313"/>
      <point x="364" y="313" type="curve" smooth="yes"/>
      <point x="242" y="313"/>
      <point x="156" y="374"/>
      <point x="156" y="487" type="curve" smooth="yes"/>
      <point x="156" y="608"/>
      <point x="246" y="684"/>
    </contour>
  </outline>
</glyph>
<glyph name="oe.sc" format="2">
  <advance width="912"/>
  <anchor x="433" y="0" name="bottom"/>
  <anchor x="545" y="559" name="top"/>
  <outline>
    <contour>
      <point x="316" y="0" type="curve" smooth="yes"/>
      <point x="429" y="0" type="line"/>
      <point x="433" y="19" type="line"/>
      <point x="318" y="19" type="line" smooth="yes"/>
      <point x="156" y="19"/>
      <point x="76" y="102"/>
      <point x="76" y="224" type="curve" smooth="yes"/>
      <point x="76" y="408"/>
      <point x="205" y="540"/>
      <point x="407" y="540" type="curve" smooth="yes"/>
      <point x="537" y="540" type="line"/>
      <point x="541" y="559" type="line"/>
      <point x="409" y="559" type="line" smooth="yes"/>
      <point x="193" y="559"/>
      <point x="56" y="418"/>
      <point x="56" y="224" type="curve" smooth="yes"/>
      <point x="56" y="90"/>
      <point x="147" y="0"/>
    </contour>
    <contour>
      <point x="423" y="0" type="line"/>
      <point x="802" y="0" type="line"/>
      <point x="806" y="19" type="line"/>
      <point x="447" y="19" type="line"/>
      <point x="551" y="540" type="line"/>
      <point x="899" y="540" type="line"/>
      <point x="903" y="559" type="line"/>
      <point x="535" y="559" type="line"/>
    </contour>
    <contour>
      <point x="494" y="274" type="line"/>
      <point x="809" y="274" type="line"/>
      <point x="813" y="293" type="line"/>
      <point x="498" y="293" type="line"/>
    </contour>
  </outline>
</glyph>
<glyph name="oogonek.sc" format="2">
  <advance width="694"/>
  <anchor x="407" y="559" name="top"/>
  <outline>
    <contour>
      <point x="239" y="-213" type="curve" smooth="yes"/>
      <point x="268" y="-213"/>
      <point x="296" y="-204"/>
      <point x="319" y="-186" type="curve"/>
      <point x="311" y="-169" type="line"/>
      <point x="291" y="-185"/>
      <point x="265" y="-194"/>
      <point x="240" y="-194" type="curve" smooth="yes"/>
      <point x="204" y="-194"/>
      <point x="183" y="-176"/>
      <point x="183" y="-142" type="curve" smooth="yes"/>
      <point x="183" y="-88"/>
      <point x="241" y="-23"/>
      <point x="383" y="4" type="curve" smooth="yes"/>
      <point x="545" y="35"/>
      <point x="647" y="175"/>
      <point x="647" y="335" type="curve" smooth="yes"/>
      <point x="647" y="471"/>
      <point x="557" y="562"/>
      <point x="392" y="562" type="curve" smooth="yes"/>
      <point x="183" y="562"/>
      <point x="55" y="404"/>
      <point x="55" y="224" type="curve" smooth="yes"/>
      <point x="55" y="89"/>
      <point x="145" y="-3"/>
      <point x="310" y="-3" type="curve"/>
      <point x="301" y="0" type="line"/>
      <point x="209" y="-33"/>
      <point x="163" y="-90"/>
      <point x="163" y="-144" type="curve" smooth="yes"/>
      <point x="163" y="-187"/>
      <point x="193" y="-213"/>
    </contour>
    <contour>
      <point x="312" y="16" type="curve" smooth="yes"/>
      <point x="156" y="16"/>
      <point x="75" y="101"/>
      <point x="75" y="224" type="curve" smooth="yes"/>
      <point x="75" y="397"/>
      <point x="197" y="543"/>
      <point x="390" y="543" type="curve" smooth="yes"/>
      <point x="547" y="543"/>
      <point x="627" y="458"/>
      <point x="627" y="335" type="curve" smooth="yes"/>
      <point x="627" y="162"/>
      <point x="504" y="16"/>
    </contour>
  </outline>
</glyph>
<glyph name="p.sc" format="2">
  <advance width="605"/>
  <outline>
    <contour>
      <point x="70" y="0" type="line"/>
      <point x="90" y="0" type="line"/>
      <point x="130" y="200" type="line"/>
      <point x="120" y="190" type="line"/>
      <point x="308" y="190" type="line" smooth="yes"/>
      <point x="466" y="190"/>
      <point x="565" y="266"/>
      <point x="565" y="410" type="curve" smooth="yes"/>
      <point x="565" y="505"/>
      <point x="495" y="559"/>
      <point x="375" y="559" type="curve" smooth="yes"/>
      <point x="182" y="559" type="line"/>
    </contour>
    <contour>
      <point x="130" y="200" type="line"/>
      <point x="200" y="549" type="line"/>
      <point x="191" y="540" type="line"/>
      <point x="375" y="540" type="line" smooth="yes"/>
      <point x="484" y="540"/>
      <point x="545" y="493"/>
      <point x="545" y="409" type="curve" smooth="yes"/>
      <point x="545" y="277"/>
      <point x="458" y="209"/>
      <point x="308" y="209" type="curve" smooth="yes"/>
      <point x="124" y="209" type="line"/>
    </contour>
  </outline>
</glyph>
<glyph name="periodcentered.loclCAT.case" format="2">
  <advance width="340"/>
  <anchor x="208" y="421" name="_dot"/>
  <outline>
    <contour>
      <point x="208" y="395" type="curve" smooth="yes"/>
      <point x="222" y="395"/>
      <point x="234" y="407"/>
      <point x="234" y="421" type="curve" smooth="yes"/>
      <point x="234" y="435"/>
      <point x="222" y="447"/>
      <point x="208" y="447" type="curve" smooth="yes"/>
      <point x="194" y="447"/>
      <point x="182" y="435"/>
      <point x="182" y="421" type="curve" smooth="yes"/>
      <point x="182" y="407"/>
      <point x="194" y="395"/>
    </contour>
  </outline>
</glyph>
<glyph name="periodcentered.loclCAT.sc" format="2">
  <advance width="74"/>
  <anchor x="47" y="312" name="_center"/>
  <anchor x="40" y="276" name="top"/>
  <outline>
    <contour>
      <point x="48" y="287" type="curve" smooth="yes"/>
      <point x="62" y="287"/>
      <point x="74" y="299"/>
      <point x="74" y="313" type="curve" smooth="yes"/>
      <point x="74" y="327"/>
      <point x="62" y="339"/>
      <point x="48" y="339" type="curve" smooth="yes"/>
      <point x="34" y="339"/>
      <point x="22" y="327"/>
      <point x="22" y="313" type="curve" smooth="yes"/>
      <point x="22" y="299"/>
      <point x="34" y="287"/>
    </contour>
  </outline>
</glyph>
<glyph name="periodcentered.sc" format="2">
  <advance width="222"/>
  <anchor x="117" y="288" name="_dot"/>
  <outline>
    <contour>
      <point x="117" y="262" type="curve" smooth="yes"/>
      <point x="131" y="262"/>
      <point x="143" y="274"/>
      <point x="143" y="288" type="curve" smooth="yes"/>
      <point x="143" y="302"/>
      <point x="131" y="314"/>
      <point x="117" y="314" type="curve" smooth="yes"/>
      <point x="103" y="314"/>
      <point x="91" y="302"/>
      <point x="91" y="288" type="curve" smooth="yes"/>
      <point x="91" y="274"/>
      <point x="103" y="262"/>
    </contour>
  </outline>
</glyph>
<glyph name="peso.BRACKET.130" format="2">
  <advance width="813"/>
  <outline>
    <contour>
      <point x="99" y="0" type="line"/>
      <point x="119" y="0" type="line"/>
      <point x="169" y="249" type="line"/>
      <point x="158" y="240" type="line"/>
      <point x="391" y="240" type="line" smooth="yes"/>
      <point x="586" y="240"/>
      <point x="708" y="334"/>
      <point x="708" y="514" type="curve" smooth="yes"/>
      <point x="708" y="633"/>
      <point x="622" y="700"/>
      <point x="474" y="700" type="curve" smooth="yes"/>
      <point x="239" y="700" type="line"/>
    </contour>
    <contour>
      <point x="57" y="392" type="line"/>
      <point x="809" y="392" type="line"/>
      <point x="813" y="410" type="line"/>
      <point x="61" y="410" type="line"/>
    </contour>
    <contour>
      <point x="169" y="251" type="line"/>
      <point x="257" y="689" type="line"/>
      <point x="246" y="681" type="line"/>
      <point x="475" y="681" type="line" smooth="yes"/>
      <point x="612" y="681"/>
      <point x="688" y="621"/>
      <point x="688" y="514" type="curve" smooth="yes"/>
      <point x="688" y="345"/>
      <point x="579" y="259"/>
      <point x="390" y="259" type="curve" smooth="yes"/>
      <point x="162" y="259" type="line"/>
    </contour>
    <contour>
      <point x="85" y="530" type="line"/>
      <point x="837" y="530" type="line"/>
      <point x="841" y="548" type="line"/>
      <point x="89" y="548" type="line"/>
    </contour>
  </outline>
</glyph>
<glyph name="q.sc" format="2">
  <advance width="694"/>
  <anchor x="407" y="559" name="top"/>
  <outline>
    <contour>
      <point x="310" y="-3" type="curve" smooth="yes"/>
      <point x="519" y="-3"/>
      <point x="647" y="156"/>
      <point x="647" y="335" type="curve" smooth="yes"/>
      <point x="647" y="471"/>
      <point x="557" y="562"/>
      <point x="392" y="562" type="curve" smooth="yes"/>
      <point x="183" y="562"/>
      <point x="55" y="404"/>
      <point x="55" y="224" type="curve" smooth="yes"/>
      <point x="55" y="89"/>
      <point x="145" y="-3"/>
    </contour>
    <contour>
      <point x="470" y="-100" type="curve" smooth="yes"/>
      <point x="519" y="-100"/>
      <point x="567" y="-80"/>
      <point x="602" y="-40" type="curve"/>
      <point x="589" y="-26" type="line"/>
      <point x="559" y="-63"/>
      <point x="518" y="-82"/>
      <point x="472" y="-82" type="curve" smooth="yes"/>
      <point x="412" y="-82"/>
      <point x="365" y="-50"/>
      <point x="324" y="8" type="curve"/>
      <point x="300" y="3" type="line"/>
      <point x="349" y="-63"/>
      <point x="402" y="-100"/>
    </contour>
    <contour>
      <point x="312" y="16" type="curve" smooth="yes"/>
      <point x="156" y="16"/>
      <point x="75" y="101"/>
      <point x="75" y="224" type="curve" smooth="yes"/>
      <point x="75" y="397"/>
      <point x="199" y="543"/>
      <point x="390" y="543" type="curve" smooth="yes"/>
      <point x="547" y="543"/>
      <point x="627" y="458"/>
      <point x="627" y="335" type="curve" smooth="yes"/>
      <point x="627" y="162"/>
      <point x="504" y="16"/>
    </contour>
  </outline>
</glyph>
<glyph name="q.sc.ss01.BRACKET.170" format="2">
  <advance width="694"/>
  <outline>
    <contour>
      <point x="262" y="-108" type="line"/>
      <point x="282" y="-108" type="line"/>
      <point x="304" y="1" type="line"/>
      <point x="284" y="1" type="line"/>
    </contour>
    <contour>
      <point x="310" y="-3" type="curve" smooth="yes"/>
      <point x="519" y="-3"/>
      <point x="647" y="156"/>
      <point x="647" y="335" type="curve" smooth="yes"/>
      <point x="647" y="471"/>
      <point x="557" y="562"/>
      <point x="392" y="562" type="curve" smooth="yes"/>
      <point x="183" y="562"/>
      <point x="55" y="404"/>
      <point x="55" y="224" type="curve" smooth="yes"/>
      <point x="55" y="89"/>
      <point x="145" y="-3"/>
    </contour>
    <contour>
      <point x="312" y="16" type="curve" smooth="yes"/>
      <point x="156" y="16"/>
      <point x="75" y="101"/>
      <point x="75" y="224" type="curve" smooth="yes"/>
      <point x="75" y="397"/>
      <point x="199" y="543"/>
      <point x="390" y="543" type="curve" smooth="yes"/>
      <point x="547" y="543"/>
      <point x="627" y="458"/>
      <point x="627" y="335" type="curve" smooth="yes"/>
      <point x="627" y="162"/>
      <point x="504" y="16"/>
    </contour>
  </outline>
</glyph>
<glyph name="quotesinglbase.sc" format="2">
  <advance width="182"/>
  <outline>
    <contour>
      <point x="-9" y="-120" type="line"/>
      <point x="9" y="-120" type="line"/>
      <point x="61" y="-6" type="line" smooth="yes"/>
      <point x="66" y="5"/>
      <point x="70" y="12"/>
      <point x="70" y="23" type="curve" smooth="yes"/>
      <point x="70" y="37"/>
      <point x="58" y="49"/>
      <point x="44" y="49" type="curve" smooth="yes"/>
      <point x="30" y="49"/>
      <point x="18" y="37"/>
      <point x="18" y="23" type="curve" smooth="yes"/>
      <point x="18" y="9"/>
      <point x="30" y="-3"/>
      <point x="44" y="-3" type="curve"/>
      <point x="43" y="8" type="line"/>
    </contour>
  </outline>
</glyph>
<glyph name="quotesingle.sc" format="2">
  <advance width="184"/>
  <outline>
    <contour>
      <point x="101" y="349" type="line"/>
      <point x="119" y="349" type="line"/>
      <point x="163" y="559" type="line"/>
      <point x="141" y="559" type="line"/>
    </contour>
  </outline>
</glyph>
